<svg id="Layer_1" data-name="Layer 1" xmlns="http://www.w3.org/2000/svg" viewBox="0 0 574 100"><defs><style>.cls-1{fill:#867777;}.cls-2{fill:#e2cece;}.cls-3{fill:#fff;}</style></defs><title>assisting</title><path d="M124.6,48.32h1.32a.75.75,0,0,1,.66.41,2.67,2.67,0,0,1,.35.88,3.25,3.25,0,0,1,.06.88q0,.41-.19.41h-8.58L126.89,60a.55.55,0,0,1,0,.69,2.67,2.67,0,0,1-.63.8,3.54,3.54,0,0,1-.85.57q-.44.2-.66,0l-9.24-9.65-9.18,9.65q-.22.22-.66,0a3.53,3.53,0,0,1-.85-.57,2.65,2.65,0,0,1-.63-.8.55.55,0,0,1,0-.69l8.64-9.11h-7.45a.86.86,0,0,1-.66-.41,3.28,3.28,0,0,1-.49-.88,2.08,2.08,0,0,1-.14-.88q0-.41.35-.41h1.82v-11q0-.28.39-.31a2.83,2.83,0,0,1,.9.09,4.61,4.61,0,0,1,1,.38,1.41,1.41,0,0,1,.64.57h4.81V32.83q0-.31.47-.33a3.09,3.09,0,0,1,1,.16,4,4,0,0,1,1,.49.87.87,0,0,1,.47.69v4.24h4.71l.66-1.1,2.83,1.67-.66,1.23Zm-15.27,0h4.75V40.65h-4.75Zm7.73,0h4.56V40.65h-4.56Z"/><path d="M135.78,53a2.22,2.22,0,0,1-.28,1.1l-4.12,8c-.11.19-.29.21-.55.06a3.53,3.53,0,0,1-.8-.64,3.64,3.64,0,0,1-.66-.94,1,1,0,0,1-.09-.83l3.36-6.69a1.53,1.53,0,0,0,.16-.69V38.71q0-.31.47-.33a3.15,3.15,0,0,1,1,.16,3.89,3.89,0,0,1,1,.49.85.85,0,0,1,.47.66Zm1.67-19.33,2.23,1.45-.53.8V53q0,.13-.39.16a3.28,3.28,0,0,1-.88-.06,3.21,3.21,0,0,1-.88-.3.63.63,0,0,1-.39-.58V37.2H132V53q0,.13-.39.16a3.14,3.14,0,0,1-.86-.06,2.94,2.94,0,0,1-.86-.31.65.65,0,0,1-.39-.57V34.12c0-.15.1-.24.3-.27a1.79,1.79,0,0,1,.69,0,4,4,0,0,1,.79.28,1.89,1.89,0,0,1,.61.44h5Zm-.88,28.6-1.79-4.53a1.3,1.3,0,0,1,.06-1,3.73,3.73,0,0,1,.66-1.05,2.16,2.16,0,0,1,.83-.61.44.44,0,0,1,.61.28l2.14,5.37Zm5.63-.44q0,.31-.47.28a2.67,2.67,0,0,1-1-.28,3.53,3.53,0,0,1-.91-.63.85.85,0,0,1-.33-.75l2.67-17.47q0-.31.49-.27a3.16,3.16,0,0,1,1,.28,3.49,3.49,0,0,1,.93.61.82.82,0,0,1,.35.72Zm7-22.44h1.89a.76.76,0,0,1,.66.4,2.8,2.8,0,0,1,.36.89,3.06,3.06,0,0,1,.08.89q0,.4-.19.4h-2.8v18a2.07,2.07,0,0,1-.57,1.56,2.44,2.44,0,0,1-1.43.66,4.42,4.42,0,0,1-1.87-.2,5.28,5.28,0,0,1-1.86-1,3.68,3.68,0,0,0,1.26-.08,2.27,2.27,0,0,0,.84-.41,1.63,1.63,0,0,0,.48-.64,2,2,0,0,0,.16-.79V41.94h-5.12a.87.87,0,0,1-.66-.4,3,3,0,0,1-.49-.89,2.42,2.42,0,0,1-.16-.89q0-.4.33-.4h6.1V33q0-.31.46-.33a3.24,3.24,0,0,1,1,.16,3.76,3.76,0,0,1,1,.49.87.87,0,0,1,.46.69Z"/><path d="M164.54,54.26h7.29l-.22-.28a.69.69,0,0,1,0-.75,3.43,3.43,0,0,1,.6-.88,2.69,2.69,0,0,1,.8-.61q.42-.2.61,0l3.61,4.59-2.33,1.85-1.1-1.38h-6.13V60a2,2,0,0,1-.6,1.54,2.55,2.55,0,0,1-1.47.63,4.53,4.53,0,0,1-1.86-.22,4.9,4.9,0,0,1-1.77-1,2.53,2.53,0,0,0,2.1-.46,2,2,0,0,0,.62-1.43v-2.2h-5.86l-2.29,1q-.25.13-.49-.27a2.72,2.72,0,0,1-.33-1,3.88,3.88,0,0,1,0-1.1.81.81,0,0,1,.38-.69l6.16-2.8h-3.13l-1.31.69q-.25.16-.5-.24a2.71,2.71,0,0,1-.36-.94,4.23,4.23,0,0,1-.08-1.08.75.75,0,0,1,.35-.69l5.77-3h-4.48l0,.6q0,.16-.48.16a4.68,4.68,0,0,1-1-.13,3.32,3.32,0,0,1-1-.41.74.74,0,0,1-.43-.69l.19-3h-.06a.89.89,0,0,1-.66-.36,2.72,2.72,0,0,1-.49-.8,2,2,0,0,1-.16-.8q0-.36.33-.36h1.16l.09-1.73a3.56,3.56,0,0,1-.63-.33,4,4,0,0,1-.57-.44,1.66,1.66,0,0,1-.38-.5.58.58,0,0,1,0-.49l2.2-4.65q.13-.22.52-.17a2.38,2.38,0,0,1,.83.28,4,4,0,0,1,.8.57,1.5,1.5,0,0,1,.46.64h7.1a.72.72,0,0,1,.64.39,3,3,0,0,1,.35.85,2.73,2.73,0,0,1,.08.85q0,.39-.19.39h-9l-.25.47a2.66,2.66,0,0,1,.46.22,3.75,3.75,0,0,1,.36.25h5.06l.53-.79,2.8,1.6-.66,1.23v1.35h.44a.77.77,0,0,1,.66.36,2.7,2.7,0,0,1,.38.8,2.24,2.24,0,0,1,.09.8q0,.36-.19.36h-1.38v1.38h.09a.68.68,0,0,1,.6.33,2.24,2.24,0,0,1,.31.72,2.21,2.21,0,0,1,.06.72q0,.33-.16.33h-.91v.5c0,.08-.09.15-.27.19a2.08,2.08,0,0,1-.64,0,3.12,3.12,0,0,1,0,.88.66.66,0,0,1-.31.53l-1.26.66h3.87l3.68-1.67q.25-.13.49.28a2.88,2.88,0,0,1,.33,1,3.9,3.9,0,0,1,0,1.1q-.06.53-.38.66Zm-5,3q.28-.16.61.2a3,3,0,0,1,.55.9,3.65,3.65,0,0,1,.27,1.07.7.7,0,0,1-.27.72l-3.71,2q-.28.16-.61-.22a3.25,3.25,0,0,1-.55-.91,3.63,3.63,0,0,1-.27-1.07q0-.53.3-.69Zm.21-12.88q-.06-.25.27-.47a2.75,2.75,0,0,1,.75-.35,2.11,2.11,0,0,1,.78-.09q.36,0,.39.25l.19.94h1.28V43.26h-4.68l-.09,1.38h1.16Zm0-3.52q-.06-.25.27-.47a2.75,2.75,0,0,1,.75-.35,2.1,2.1,0,0,1,.78-.09q.36,0,.39.25l.12.75h1.34V39.68h-4.46l-.09,1.26h.91Zm12-6h4.59a.75.75,0,0,1,.66.41,3,3,0,0,1,.36.88,2.91,2.91,0,0,1,.08.88q0,.41-.19.41h-6.6l-.79,1.76q-.13.28-.58.19a3.37,3.37,0,0,1-1.78-1.07.75.75,0,0,1-.22-.75l2.07-4.78q.13-.28.6-.19a2.79,2.79,0,0,1,1,.41,3.44,3.44,0,0,1,.82.72.77.77,0,0,1,.2.75Zm2.64,8.23L177,45.43a.75.75,0,0,1,.17.77,3,3,0,0,1-.42,1A3.19,3.19,0,0,1,176,48q-.38.3-.6.08l-3.17-2.77-2.64,2.77q-.22.25-.58,0a2.85,2.85,0,0,1-.66-.77,3.44,3.44,0,0,1-.42-1,.87.87,0,0,1,.13-.82l2-2.07-1.29-1.16a.75.75,0,0,1-.17-.77,3,3,0,0,1,.41-1,3,3,0,0,1,.68-.77q.38-.3.63-.11l1.79,1.6,3-3.14q.22-.22.6,0a2.53,2.53,0,0,1,.68.75,3.48,3.48,0,0,1,.42,1,.8.8,0,0,1-.13.79Zm.41,19-3.74-2a.68.68,0,0,1-.27-.71,3.36,3.36,0,0,1,.28-1.05,3,3,0,0,1,.57-.88q.33-.35.61-.19l4.27,2.39Z"/><path d="M185,49.33h4.65v-2.7q0-.31.46-.35a2.92,2.92,0,0,1,1,.14,3.75,3.75,0,0,1,1,.49.87.87,0,0,1,.46.69v1.73h7.76a.75.75,0,0,1,.66.41,3,3,0,0,1,.36.88,2.92,2.92,0,0,1,.08.88q0,.41-.19.41h-8.67v2.45H200a.75.75,0,0,1,.66.41,3,3,0,0,1,.36.88,2.91,2.91,0,0,1,.08.88q0,.41-.19.41h-8.23v2.42h8.64a.75.75,0,0,1,.66.41,3,3,0,0,1,.36.88,2.91,2.91,0,0,1,.08.88q0,.41-.19.41H180.91a.88.88,0,0,1-.69-.41,3.29,3.29,0,0,1-.49-.88,2.29,2.29,0,0,1-.16-.88q0-.41.33-.41h9.77V56.93h-7.35a.88.88,0,0,1-.69-.41,3.28,3.28,0,0,1-.49-.88,2.09,2.09,0,0,1-.14-.88q0-.41.35-.41h8.33V51.9h-6.29l-1.16,1.85q-.09.16-.52,0a4.23,4.23,0,0,1-.88-.5,3.08,3.08,0,0,1-.74-.74.64.64,0,0,1-.06-.75l3.08-4.9q.16-.25.58-.08a3,3,0,0,1,.85.55,3.16,3.16,0,0,1,.68.83.74.74,0,0,1,.06.77Zm15.49-2.83q0,.16-.47.19a4.34,4.34,0,0,1-1-.06,3.35,3.35,0,0,1-1-.35.75.75,0,0,1-.47-.66H184.37v.53q0,.16-.46.19a4,4,0,0,1-1-.08,3.51,3.51,0,0,1-1-.36.75.75,0,0,1-.46-.66V33q0-.28.38-.33a2.44,2.44,0,0,1,.88.08,4.41,4.41,0,0,1,1,.36,1.56,1.56,0,0,1,.64.55h13.48l.63-1,2.83,1.7-.66,1.19Zm-16.15-8.14h13.17V36.29H184.37Zm0,4.68h13.17V40.94H184.37Z"/><path d="M211,44.17V61.84q0,.31-.47.33a3.09,3.09,0,0,1-1-.16,4,4,0,0,1-1-.49.87.87,0,0,1-.47-.69v-11l-1.07,2q-.16.28-.58.09a3.14,3.14,0,0,1-.85-.58,3.77,3.77,0,0,1-.71-.88.84.84,0,0,1-.13-.8l4.65-8.77h-3a.86.86,0,0,1-.66-.41,3.27,3.27,0,0,1-.49-.88,2.29,2.29,0,0,1-.16-.88q0-.41.33-.41h5.34l.6-1.1q.16-.28.6-.11a2.68,2.68,0,0,1,.86.58,3.74,3.74,0,0,1,.69.9.86.86,0,0,1,.11.8Zm-4.18-9.62a.64.64,0,0,1,.13-.69,3.23,3.23,0,0,1,.69-.72,2.91,2.91,0,0,1,.82-.46q.41-.14.53.11l1.67,3.58-2.45,1.23Zm4.49,10.87a.87.87,0,0,1,.27-.71,2.84,2.84,0,0,1,.77-.64,2.51,2.51,0,0,1,.82-.31q.38-.06.44.22l1,6.19-2.45.35Zm3.21,16.31a.88.88,0,0,1-.69-.41,3.29,3.29,0,0,1-.49-.88,2.29,2.29,0,0,1-.16-.88q0-.41.33-.41h5.44V45.43h-3.58a.89.89,0,0,1-.69-.4,3,3,0,0,1-.49-.89,2.19,2.19,0,0,1-.14-.89q0-.4.35-.4h4.56V33.14q0-.31.47-.35a2.8,2.8,0,0,1,1,.14,4,4,0,0,1,1,.49.87.87,0,0,1,.47.69v8.74h3.8a.76.76,0,0,1,.66.4,2.79,2.79,0,0,1,.36.89,2.67,2.67,0,0,1,.06.89q0,.4-.2.4h-4.68V59.16h4.65a.79.79,0,0,1,.68.41,2.49,2.49,0,0,1,.36.88,3.25,3.25,0,0,1,.06.88c0,.27-.08.41-.19.41Z"/><path d="M102.27,65.71l.22-.35.2-.34H103l-.07.2-.07.21-.09.29h-.53Zm.75,0,.22-.35.2-.34h.34l-.07.2-.07.21-.09.29H103Z"/><path d="M104.06,67.42q0-.38-.05-.61a1.91,1.91,0,0,0,.36.12,1.27,1.27,0,0,0,.27,0,.56.56,0,0,0,.25,0,.14.14,0,0,0,.09-.13.19.19,0,0,0,0-.06l0-.06-.07-.08-.34-.29-.16-.14a1.07,1.07,0,0,1-.15-.17.58.58,0,0,1-.08-.16.6.6,0,0,1,0-.17.61.61,0,0,1,0-.21.65.65,0,0,1,.12-.2.66.66,0,0,1,.2-.16.9.9,0,0,1,.27-.09l.3,0a3.43,3.43,0,0,1,.66.07q0,.12,0,.23t0,.36a1.62,1.62,0,0,0-.3-.09l-.23,0a.47.47,0,0,0-.23.05.15.15,0,0,0-.09.13.18.18,0,0,0,0,.07l.05.08.1.1.2.16.13.1.12.11.11.13.07.12a.51.51,0,0,1,0,.11.52.52,0,0,1,0,.12.65.65,0,0,1-.29.55.91.91,0,0,1-.31.13,1.64,1.64,0,0,1-.36,0A4.06,4.06,0,0,1,104.06,67.42Z"/><path d="M106.82,67.46q.09-.87.11-1.91l-.76,0v-.2q0-.16,0-.35h2.28v.17q0,.14,0,.23c0,.06,0,.11,0,.14l-.63,0h-.12q0,.32,0,.58t0,.74q0,.36,0,.58h-.79Z"/><path d="M108.45,67.46l.15-.26.92-1.74.1-.19.12-.25h.92l.26.74.53,1.43.1.26h-.82q-.08-.29-.23-.69h-.9q-.16.31-.32.69h-.85Zm1.38-1.21h.55l-.23-.69L110,66Z"/><path d="M111.91,67.46q0-.31.05-.57t0-.58q0-.33,0-.7t0-.59h1.11l.41,0a1,1,0,0,1,.24.05.71.71,0,0,1,.18.1.59.59,0,0,1,.12.13.54.54,0,0,1,.08.16.71.71,0,0,1,0,.2.8.8,0,0,1,0,.22.65.65,0,0,1-.1.2.64.64,0,0,1-.16.16,1.47,1.47,0,0,1-.28.14l.09.23.08.19.24.52.06.13h-.82l-.1-.34-.05-.16-.13-.36-.18-.51.19,0a.68.68,0,0,0,.24,0,.32.32,0,0,0,.16-.12.31.31,0,0,0,.05-.17.23.23,0,0,0,0-.13.25.25,0,0,0-.13-.09,1,1,0,0,0-.27,0h-.29q0,.37,0,.89t0,1h-.76Z"/><path d="M114.63,67.42q0-.38-.05-.61a1.91,1.91,0,0,0,.36.12,1.27,1.27,0,0,0,.27,0,.56.56,0,0,0,.25,0,.14.14,0,0,0,.09-.13.19.19,0,0,0,0-.06l0-.06-.07-.08-.34-.29-.16-.14a1.07,1.07,0,0,1-.15-.17.58.58,0,0,1-.08-.16.6.6,0,0,1,0-.17.61.61,0,0,1,0-.21.65.65,0,0,1,.12-.2.66.66,0,0,1,.2-.16.9.9,0,0,1,.27-.09l.3,0a3.43,3.43,0,0,1,.66.07q0,.12,0,.23t0,.36a1.62,1.62,0,0,0-.3-.09l-.23,0a.47.47,0,0,0-.23.05.15.15,0,0,0-.09.13.18.18,0,0,0,0,.07l.05.08.1.1.2.16.13.1.12.11.11.13.07.12a.51.51,0,0,1,0,.11.52.52,0,0,1,0,.12.65.65,0,0,1-.29.55.91.91,0,0,1-.31.13,1.64,1.64,0,0,1-.36,0A4.06,4.06,0,0,1,114.63,67.42Z"/><path d="M117.57,65l-.24.39-.17.3h-.34L117,65h.53Zm.75,0-.21.35-.2.34h-.34l.22-.7h.53Z"/><path d="M119.76,67.46q0-.39,0-.62t0-.84q0-.54,0-.76c0-.05,0-.13,0-.22h1.59a.8.8,0,0,1,.22.06.52.52,0,0,1,.16.1.51.51,0,0,1,.11.17.66.66,0,0,1,0,.24.72.72,0,0,1,0,.19.58.58,0,0,1-.07.17.52.52,0,0,1-.11.12l-.12.07-.15.05.15,0,.12.07a.48.48,0,0,1,.12.12.53.53,0,0,1,.08.16.67.67,0,0,1,0,.19.72.72,0,0,1,0,.26.61.61,0,0,1-.12.21.57.57,0,0,1-.18.12.86.86,0,0,1-.22.07l-.34,0h-1.34Zm.75-.49h.34l.2,0,.12-.05a.22.22,0,0,0,.07-.09.31.31,0,0,0,0-.12.26.26,0,0,0,0-.1.19.19,0,0,0-.06-.07l-.1,0h-.56Zm0-1H121l.1,0,.09-.05a.21.21,0,0,0,.05-.08.29.29,0,0,0,0-.09.22.22,0,0,0,0-.12.18.18,0,0,0-.1-.08.67.67,0,0,0-.21,0h-.32Z"/><path d="M122.5,67.46q0-.42.06-.69,0-.49.06-1t0-.78h.79l0,.65-.05,1v.25h1.11l0,.54h-1.9Z"/><path d="M126.31,65a2,2,0,0,1,.55.08,1.24,1.24,0,0,1,.46.25,1.1,1.1,0,0,1,.3.39,1.22,1.22,0,0,1,.1.51,1.38,1.38,0,0,1-.11.55,1.16,1.16,0,0,1-.31.43,1.28,1.28,0,0,1-.49.26,2.11,2.11,0,0,1-.59.08,2.08,2.08,0,0,1-.58-.08,1.24,1.24,0,0,1-.48-.26,1,1,0,0,1-.29-.4,1.31,1.31,0,0,1-.09-.48,1.29,1.29,0,0,1,.18-.69,1.21,1.21,0,0,1,.54-.46A1.88,1.88,0,0,1,126.31,65Zm0,.54a.7.7,0,0,0-.37.1.67.67,0,0,0-.26.28.85.85,0,0,0-.09.38.74.74,0,0,0,.08.35.57.57,0,0,0,.25.25.74.74,0,0,0,.35.09.69.69,0,0,0,.36-.1.65.65,0,0,0,.25-.28.86.86,0,0,0,.09-.38.78.78,0,0,0-.08-.35.58.58,0,0,0-.24-.25A.69.69,0,0,0,126.27,65.51Z"/><path d="M130.28,66.86q0,.11-.05.29t0,.29a4.68,4.68,0,0,1-.68.06,1.91,1.91,0,0,1-.54-.07,1.32,1.32,0,0,1-.46-.24.94.94,0,0,1-.3-.39,1.34,1.34,0,0,1-.09-.5,1.36,1.36,0,0,1,.12-.58,1.14,1.14,0,0,1,.35-.43,1.43,1.43,0,0,1,.5-.25,2.09,2.09,0,0,1,.56-.07,3.93,3.93,0,0,1,.65.07v.15q0,.1,0,.22v.2l-.34-.07-.24,0a1,1,0,0,0-.43.1.73.73,0,0,0-.3.28.78.78,0,0,0-.11.41.64.64,0,0,0,.09.35.63.63,0,0,0,.25.22.87.87,0,0,0,.39.08l.28,0Z"/><path d="M130.79,67.46q0-.33,0-.55,0-.39.06-1.07,0-.47,0-.66V65h.8l-.08,1.33,0,1.1h-.8Zm.89-1.29.4-.54.32-.45.1-.15h.88l-.75,1-.14.19.13.21.75,1.08h-.92Q132.22,67,131.69,66.17Z"/><path d="M135.87,66.86q0,.11-.05.29t0,.29a4.68,4.68,0,0,1-.68.06,1.91,1.91,0,0,1-.54-.07,1.32,1.32,0,0,1-.46-.24.94.94,0,0,1-.3-.39,1.34,1.34,0,0,1-.09-.5,1.36,1.36,0,0,1,.12-.58,1.14,1.14,0,0,1,.35-.43,1.43,1.43,0,0,1,.5-.25,2.09,2.09,0,0,1,.56-.07,3.93,3.93,0,0,1,.65.07v.15q0,.1,0,.22v.2l-.34-.07-.24,0a1,1,0,0,0-.43.1.73.73,0,0,0-.3.28.78.78,0,0,0-.11.41.64.64,0,0,0,.09.35.63.63,0,0,0,.25.22.87.87,0,0,0,.39.08l.28,0Z"/><path d="M136.39,67.46l.07-1,0-.71v-.32c0-.09,0-.18,0-.26V65h.8q0,.51-.05.91h1q0-.15,0-.4t0-.34s0-.09,0-.17h.8q-.06.92-.08,1.36t0,1.07h-.81q0-.42.06-1h-1l0,1h-.8Z"/><path d="M139.23,67.46l.15-.26.92-1.74.1-.19.12-.25h.92l.26.74.53,1.43.1.26h-.82q-.08-.29-.23-.69h-.9q-.15.31-.32.69h-.85Zm1.38-1.21h.55l-.23-.69-.2.43Z"/><path d="M142.7,67.46q.1-1.43.1-2.21V65h.8q0,.4-.05.76t0,.93q0,.43,0,.74h-.8Z"/><path d="M144.12,67.46l0-.37.07-1.27,0-.51V65h.92l.76,1.39.11.2q0-.3,0-.84t0-.75h.7l0,.53L146.67,67v.43h-.9l-.14-.25-.3-.51-.27-.48-.17-.32,0,.85,0,.71h-.7Z"/><path d="M148.06,67.46l.15-.26.92-1.74.1-.19.12-.25h.92l.26.74.53,1.43.1.26h-.82q-.08-.29-.23-.69h-.9q-.15.31-.32.69h-.85Zm1.38-1.21H150l-.23-.69-.2.43Z"/><path d="M151.53,67.46l0-.37.07-1.27,0-.51V65h.92l.76,1.39.11.2q0-.3,0-.84t0-.75h.7l0,.53L154.08,67v.43h-.9L153,67.2l-.3-.51-.27-.48-.17-.32,0,.85,0,.71h-.7Z"/><path d="M154.7,67.46q0-.41.05-.65t0-.94q0-.44,0-.63V65H156a2.7,2.7,0,0,1,.42,0,1,1,0,0,1,.34.12.83.83,0,0,1,.26.23,1.07,1.07,0,0,1,.16.34,1.44,1.44,0,0,1,.06.4,1.73,1.73,0,0,1,0,.39,1.44,1.44,0,0,1-.12.34,1.09,1.09,0,0,1-.18.26,1,1,0,0,1-.23.18l-.2.09-.27.05-.44,0H154.7Zm.77-.54h.21a1.48,1.48,0,0,0,.32,0,.52.52,0,0,0,.25-.14.63.63,0,0,0,.16-.27,1.12,1.12,0,0,0,.05-.34.76.76,0,0,0-.08-.36.43.43,0,0,0-.2-.2.87.87,0,0,0-.35-.06h-.3Z"/><path d="M158.79,67.46q0-.41.05-.65t0-.94q0-.44,0-.63V65h1.19a2.7,2.7,0,0,1,.42,0,1,1,0,0,1,.34.12.83.83,0,0,1,.26.23,1.07,1.07,0,0,1,.16.34,1.44,1.44,0,0,1,.06.4,1.73,1.73,0,0,1,0,.39,1.44,1.44,0,0,1-.12.34,1.09,1.09,0,0,1-.18.26,1,1,0,0,1-.23.18l-.2.09-.27.05-.44,0h-1.05Zm.77-.54h.21a1.48,1.48,0,0,0,.32,0,.52.52,0,0,0,.25-.14.63.63,0,0,0,.16-.27,1.12,1.12,0,0,0,.05-.34.76.76,0,0,0-.08-.36.43.43,0,0,0-.2-.2.87.87,0,0,0-.35-.06h-.3Z"/><path d="M161.79,67.46q.1-1.43.1-2.21V65h.8q0,.4-.05.76t0,.93q0,.43,0,.74h-.8Z"/><path d="M164.64,66h1.06q0,.24,0,.69t0,.68l-.34.05-.32,0h-.34a2.87,2.87,0,0,1-.48,0,1.59,1.59,0,0,1-.42-.13.88.88,0,0,1-.31-.24,1.09,1.09,0,0,1-.19-.36,1.37,1.37,0,0,1-.07-.42,1.32,1.32,0,0,1,.18-.67,1.28,1.28,0,0,1,.52-.49,1.84,1.84,0,0,1,.87-.18,4.47,4.47,0,0,1,.87.09q0,.26,0,.58l-.21-.07-.19,0-.2,0h-.17a1.2,1.2,0,0,0-.37.06.79.79,0,0,0-.3.17A.74.74,0,0,0,164,66a1,1,0,0,0-.06.34.72.72,0,0,0,.07.33.47.47,0,0,0,.23.22.79.79,0,0,0,.35.07,1.48,1.48,0,0,0,.35,0l0-.39h-.33v-.32S164.64,66.11,164.64,66Z"/><path d="M166.24,67.46q.1-1.43.1-2.21V65h.8q0,.4-.05.76t0,.93q0,.43,0,.74h-.8Z"/><path d="M168.19,67.46q.09-.87.11-1.91l-.76,0v-.2q0-.16,0-.35h2.28v.17q0,.14,0,.23c0,.06,0,.11,0,.14l-.63,0h-.12q0,.32,0,.58t0,.74q0,.36,0,.58h-.79Z"/><path d="M169.82,67.46l.15-.26.92-1.74.1-.19.12-.25H172l.26.74.53,1.43.1.26h-.82q-.08-.29-.23-.69H171q-.15.31-.32.69h-.85Zm1.38-1.21h.55l-.23-.69-.2.43Z"/><path d="M173.27,67.46q0-.42.06-.69,0-.49.06-1t0-.78h.79l0,.65-.05,1v.25h1.11l0,.54h-1.9Z"/><path d="M178.8,66.86q0,.11-.05.29t0,.29a4.68,4.68,0,0,1-.68.06,1.91,1.91,0,0,1-.54-.07,1.32,1.32,0,0,1-.46-.24.94.94,0,0,1-.3-.39,1.34,1.34,0,0,1-.09-.5,1.36,1.36,0,0,1,.12-.58,1.14,1.14,0,0,1,.35-.43,1.43,1.43,0,0,1,.5-.25,2.09,2.09,0,0,1,.56-.07,3.93,3.93,0,0,1,.65.07v.15q0,.1,0,.22v.2l-.34-.07-.24,0a1,1,0,0,0-.43.1.73.73,0,0,0-.3.28.78.78,0,0,0-.11.41.64.64,0,0,0,.09.35.63.63,0,0,0,.25.22.87.87,0,0,0,.39.08l.28,0Z"/><path d="M179.42,65h.77l-.05.76q0,.21,0,.4t0,.26a1.09,1.09,0,0,0,0,.23.36.36,0,0,0,.07.15.31.31,0,0,0,.14.1.58.58,0,0,0,.19,0l.16,0,.11-.05.07-.07a.52.52,0,0,0,.07-.13.77.77,0,0,0,0-.19q0-.12,0-.53t0-.65a1.74,1.74,0,0,1,0-.28h.79l-.09,1.27s0,0,0,.06a2.64,2.64,0,0,1,0,.52.69.69,0,0,1-.13.27.81.81,0,0,1-.26.2,1.31,1.31,0,0,1-.39.13,2.6,2.6,0,0,1-.44,0l-.39,0a1.51,1.51,0,0,1-.31-.08,1.1,1.1,0,0,1-.24-.13.63.63,0,0,1-.14-.14.56.56,0,0,1-.08-.17.85.85,0,0,1,0-.24s0-.07,0-.13,0-.14,0-.25l0-.29q0-.11,0-.33Z"/><path d="M182.32,67.46q0-.31.05-.57t0-.58q0-.33,0-.7t0-.59h1.11l.41,0a1,1,0,0,1,.24.05.71.71,0,0,1,.18.1.59.59,0,0,1,.12.13.54.54,0,0,1,.08.16.7.7,0,0,1,0,.2.8.8,0,0,1,0,.22.64.64,0,0,1-.26.36,1.47,1.47,0,0,1-.28.14l.09.23.08.19.24.52.06.13h-.82l-.1-.34-.05-.16-.13-.36-.18-.51.19,0a.67.67,0,0,0,.24,0,.32.32,0,0,0,.16-.12.31.31,0,0,0,.05-.17.23.23,0,0,0,0-.13.25.25,0,0,0-.13-.09,1,1,0,0,0-.27,0h-.29q0,.37,0,.89t0,1h-.76Z"/><path d="M185.06,67.46q0-.31.05-.57t0-.58q0-.33,0-.7t0-.59h1.11l.41,0a1,1,0,0,1,.24.05.71.71,0,0,1,.18.1.59.59,0,0,1,.12.13.54.54,0,0,1,.08.16.7.7,0,0,1,0,.2.8.8,0,0,1,0,.22.64.64,0,0,1-.26.36,1.47,1.47,0,0,1-.28.14l.09.23.08.19.24.52.06.13h-.82l-.1-.34-.05-.16-.13-.36-.18-.51.19,0a.67.67,0,0,0,.24,0,.32.32,0,0,0,.16-.12.31.31,0,0,0,.05-.17.23.23,0,0,0,0-.13.25.25,0,0,0-.13-.09,1,1,0,0,0-.27,0h-.29q0,.37,0,.89t0,1h-.76Z"/><path d="M187.79,67.46q0-.46.07-.77t0-.83q0-.51,0-.68V65h2v.41s0,.08,0,.13h-1.21l0,.41h1q0,.23,0,.54h-1l0,.43h1.23q0,.26,0,.55h-2Z"/><path d="M190.38,67.46l0-.37.07-1.27,0-.51V65h.92l.76,1.39.11.2q0-.3,0-.84t0-.75h.7l0,.53L192.93,67v.43H192l-.14-.25-.3-.51-.27-.48-.17-.32,0,.85,0,.71h-.7Z"/><path d="M195.66,66.86q0,.11-.05.29t0,.29a4.68,4.68,0,0,1-.68.06,1.91,1.91,0,0,1-.54-.07,1.32,1.32,0,0,1-.46-.24.94.94,0,0,1-.3-.39,1.34,1.34,0,0,1-.09-.5,1.36,1.36,0,0,1,.12-.58,1.14,1.14,0,0,1,.35-.43,1.43,1.43,0,0,1,.5-.25A2.09,2.09,0,0,1,195,65a3.93,3.93,0,0,1,.65.07v.15q0,.1,0,.22v.2l-.34-.07-.24,0a1,1,0,0,0-.43.1.73.73,0,0,0-.3.28.78.78,0,0,0-.11.41.64.64,0,0,0,.09.35.63.63,0,0,0,.25.22A.87.87,0,0,0,195,67l.28,0Z"/><path d="M196.69,67.46q0-.14,0-.49t0-.49L195.94,65h.85q.07.18.19.43t.2.44l.33-.56.18-.3h.84l-.78,1.16a4.18,4.18,0,0,0-.23.36v.32q0,.27,0,.59h-.78Z"/><path d="M199.47,67.46l.15-.26.92-1.74.1-.19.12-.25h.92l.26.74.53,1.43.1.26h-.82q-.08-.29-.23-.69h-.9q-.15.31-.32.69h-.85Zm1.38-1.21h.55l-.23-.69L201,66Z"/><path d="M202.91,67.42q0-.38-.05-.61a1.91,1.91,0,0,0,.36.12,1.27,1.27,0,0,0,.27,0,.56.56,0,0,0,.25,0,.14.14,0,0,0,.09-.13.19.19,0,0,0,0-.06l0-.06-.07-.08-.34-.29-.16-.14a1.07,1.07,0,0,1-.15-.17.58.58,0,0,1-.08-.16.6.6,0,0,1,0-.17.61.61,0,0,1,0-.21.65.65,0,0,1,.12-.2.66.66,0,0,1,.2-.16.89.89,0,0,1,.27-.09l.3,0a3.43,3.43,0,0,1,.66.07q0,.12,0,.23t0,.36a1.61,1.61,0,0,0-.3-.09l-.23,0a.47.47,0,0,0-.23.05.15.15,0,0,0-.09.13.18.18,0,0,0,0,.07l.05.08.1.1.2.16.13.1.12.11.11.13.07.12a.52.52,0,0,1,0,.11.52.52,0,0,1,0,.12.65.65,0,0,1-.29.55.91.91,0,0,1-.31.13,1.64,1.64,0,0,1-.36,0A4.06,4.06,0,0,1,202.91,67.42Z"/><path d="M205.11,67.42q0-.38-.05-.61a1.91,1.91,0,0,0,.36.12,1.27,1.27,0,0,0,.27,0,.56.56,0,0,0,.25,0,.14.14,0,0,0,.09-.13.19.19,0,0,0,0-.06l0-.06-.07-.08-.34-.29-.16-.14a1.07,1.07,0,0,1-.15-.17.58.58,0,0,1-.08-.16.6.6,0,0,1,0-.17.61.61,0,0,1,0-.21.65.65,0,0,1,.12-.2.66.66,0,0,1,.2-.16.89.89,0,0,1,.27-.09l.3,0a3.43,3.43,0,0,1,.66.07q0,.12,0,.23t0,.36a1.61,1.61,0,0,0-.3-.09l-.23,0a.47.47,0,0,0-.23.05.15.15,0,0,0-.09.13.18.18,0,0,0,0,.07l.05.08.1.1.2.16.13.1.12.11.11.13.07.12a.52.52,0,0,1,0,.11.52.52,0,0,1,0,.12.65.65,0,0,1-.29.55.91.91,0,0,1-.31.13,1.64,1.64,0,0,1-.36,0A4.06,4.06,0,0,1,205.11,67.42Z"/><path d="M208.79,65a2,2,0,0,1,.55.08,1.24,1.24,0,0,1,.46.25,1.1,1.1,0,0,1,.3.39,1.22,1.22,0,0,1,.1.51,1.38,1.38,0,0,1-.11.55,1.16,1.16,0,0,1-.31.43,1.28,1.28,0,0,1-.49.26,2.11,2.11,0,0,1-.59.08,2.08,2.08,0,0,1-.58-.08,1.24,1.24,0,0,1-.48-.26,1,1,0,0,1-.29-.4,1.31,1.31,0,0,1-.09-.48,1.29,1.29,0,0,1,.18-.69,1.21,1.21,0,0,1,.54-.46A1.88,1.88,0,0,1,208.79,65Zm0,.54a.7.7,0,0,0-.37.1.67.67,0,0,0-.26.28.85.85,0,0,0-.09.38.74.74,0,0,0,.08.35.57.57,0,0,0,.25.25.74.74,0,0,0,.35.09.69.69,0,0,0,.36-.1.65.65,0,0,0,.25-.28.86.86,0,0,0,.09-.38.78.78,0,0,0-.08-.35.58.58,0,0,0-.24-.25A.69.69,0,0,0,208.76,65.51Z"/><path d="M212.77,66.86q0,.11-.05.29t0,.29a4.68,4.68,0,0,1-.68.06,1.91,1.91,0,0,1-.54-.07,1.32,1.32,0,0,1-.46-.24.94.94,0,0,1-.3-.39,1.34,1.34,0,0,1-.09-.5,1.36,1.36,0,0,1,.12-.58,1.14,1.14,0,0,1,.35-.43,1.43,1.43,0,0,1,.5-.25,2.09,2.09,0,0,1,.56-.07,3.93,3.93,0,0,1,.65.07v.15q0,.1,0,.22v.2l-.34-.07-.24,0a1,1,0,0,0-.43.1.73.73,0,0,0-.3.28.78.78,0,0,0-.11.41.64.64,0,0,0,.09.35.63.63,0,0,0,.25.22.87.87,0,0,0,.39.08l.28,0Z"/><path d="M213.29,67.46q.1-1.43.1-2.21V65h.8q0,.4-.05.76t0,.93q0,.43,0,.74h-.8Z"/><path d="M214.38,67.46l.15-.26.92-1.74.1-.19.12-.25h.92l.26.74.53,1.43.1.26h-.82q-.08-.29-.23-.69h-.9q-.15.31-.32.69h-.85Zm1.38-1.21h.55l-.23-.69-.2.43Z"/><path d="M218.39,67.46q.09-.87.11-1.91l-.76,0v-.2q0-.16,0-.35H220v.17q0,.14,0,.23c0,.06,0,.11,0,.14l-.63,0h-.12q0,.32,0,.58t0,.74q0,.36,0,.58h-.79Z"/><path d="M220.35,67.46q.1-1.43.1-2.21V65h.8q0,.4-.05.76t0,.93q0,.43,0,.74h-.8Z"/><path d="M223.24,65a2,2,0,0,1,.55.08,1.24,1.24,0,0,1,.46.25,1.1,1.1,0,0,1,.3.39,1.22,1.22,0,0,1,.1.51,1.38,1.38,0,0,1-.11.55,1.16,1.16,0,0,1-.31.43,1.28,1.28,0,0,1-.49.26,2.11,2.11,0,0,1-.59.08,2.08,2.08,0,0,1-.58-.08,1.24,1.24,0,0,1-.48-.26,1,1,0,0,1-.29-.4,1.31,1.31,0,0,1-.09-.48,1.29,1.29,0,0,1,.18-.69,1.21,1.21,0,0,1,.54-.46A1.88,1.88,0,0,1,223.24,65Zm0,.54a.7.7,0,0,0-.37.1.67.67,0,0,0-.26.28.85.85,0,0,0-.09.38.74.74,0,0,0,.08.35.57.57,0,0,0,.25.25.74.74,0,0,0,.35.09.69.69,0,0,0,.36-.1.65.65,0,0,0,.25-.28.86.86,0,0,0,.09-.38.78.78,0,0,0-.08-.35.58.58,0,0,0-.24-.25A.69.69,0,0,0,223.21,65.51Z"/><path d="M225.1,67.46l0-.37.07-1.27,0-.51V65h.92l.76,1.39.11.2q0-.3,0-.84t0-.75h.7l0,.53L227.65,67v.43h-.9l-.14-.25-.3-.51-.27-.48-.17-.32,0,.85,0,.71h-.7Z"/><path d="M75.67,51.35S88.06,42.6,101,44c0,0,1.57-1.83-8.1-2.61l7.31-5.22s.52-1-1.57-.26C98.66,35.94,78.29,44.56,75.67,51.35Z"/><polygon points="67.59 51.43 59.25 57.21 62.44 66.57 72.75 66.57 75.94 57.21 67.59 51.43"/><polyline class="cls-1" points="62.45 66.57 65.65 57.2 69.56 57.17 72.77 66.57"/><polygon class="cls-1" points="59.22 57.23 65.65 57.2 67.6 51.43 59.22 57.23"/><polygon class="cls-2" points="69.53 57.17 75.93 57.23 72.77 66.6 69.53 57.17"/><path id="path2" d="M364.88,28.67A21.33,21.33,0,0,1,386.21,50h0a21.33,21.33,0,1,1-21.33-21.33Z"/><path id="path4" class="cls-3" d="M364.88,29.25A20.75,20.75,0,1,1,344.13,50a20.75,20.75,0,0,1,20.75-20.75Z"/><g id="Layer1000"><path id="path108" d="M364.88,33.46A16.54,16.54,0,1,1,348.33,50a16.54,16.54,0,0,1,16.54-16.54h0Z"/><path id="path110" class="cls-3" d="M364.88,33.69A16.31,16.31,0,0,1,381.19,50h0a16.31,16.31,0,1,1-16.31-16.31Z"/></g><path id="path113" d="M348.46,50.4a1.82,1.82,0,0,1,0,.44h23s-2.42-5.17-2.72-5.78c-.11-.22-.09-.43.29-.17s1.15.79,2.33,3.32l1.26-.56c.23-.1.23-.19,0-.53-.41-.72-.74-1.37-1.2-2.08a7.65,7.65,0,0,0-1.41-1.48c-.13-.11-.26-.18.43-.67,0,0,.28.24.72.65a7,7,0,0,1,1,1.09,18,18,0,0,1,1.49,2.52s1.42-.65,1.69-.81a.83.83,0,0,0-.07-.46,13,13,0,0,0-.82-1.57,10.51,10.51,0,0,0-2.6-3c-.28-.25-.07-.39.1-.61s.36-.43.73-.08a9.21,9.21,0,0,1,1.54,1.54,22.44,22.44,0,0,1,2.74,5.37l2.42-.54a14.91,14.91,0,0,0-3.42-6.79,14.71,14.71,0,0,0-11.41-5,14.35,14.35,0,0,0-9.39,3.42c-.09.13-.15.23.15.3a10.31,10.31,0,0,1,4.86,2.79,5,5,0,0,1,1,1.33,8.94,8.94,0,0,1,1.06,2.76A3,3,0,0,1,360.82,49a5.11,5.11,0,0,1-4,.44c-1.2-.25-2.3-.86-3.42-.83s-1.7.17-3.26,1.32a1.86,1.86,0,0,1-1.73.42Zm6.44,10.85,1.85-1.91a12.44,12.44,0,0,0,8.1,3,9.93,9.93,0,0,0,5-1.19s-.67-1.46-.72-1.61l.94-.48c.13-.07.25-.06.37.2a5.22,5.22,0,0,0,.76,1.4,17.58,17.58,0,0,0,2.22-1.75,11.9,11.9,0,0,0,3.58-6.27,13,13,0,0,0,.3-3.64l2.59-.2a22.35,22.35,0,0,1-.7,5.55,14.27,14.27,0,0,1-.93,2.18,16.29,16.29,0,0,1-1.29,2.24,13.6,13.6,0,0,1-6.59,5.17c-.44.16-6.81,2.59-12.88-.88a13.33,13.33,0,0,1-2.54-1.82ZM368,57.35l.52,1.09,1.13-.54-.5-1.08Zm-.87-1.72.52,1.09,1.14-.52-.52-1.1Zm-.87-1.76.5,1.07,1.13-.53-.51-1.06Zm-12.4,8.86-2.37,2.54-.39-.37a.46.46,0,0,1-.13-.19.47.47,0,0,1,0-.2.87.87,0,0,1,.09-.27,1.52,1.52,0,0,1,.21-.31,1.91,1.91,0,0,1,.24-.24.69.69,0,0,1,.29-.16l.14,0a1.58,1.58,0,0,1,0-.24.94.94,0,0,1,.13-.29,2.29,2.29,0,0,1,.26-.33,2.05,2.05,0,0,1,.32-.28,1.07,1.07,0,0,1,.26-.14.57.57,0,0,1,.21,0,.35.35,0,0,1,.17,0l.15.12Zm-1.24,1,.76-.81-.2-.19-.15-.13a.2.2,0,0,0-.12,0,.4.4,0,0,0-.19.07.94.94,0,0,0-.19.16,1.62,1.62,0,0,0-.16.2.74.74,0,0,0-.1.23.19.19,0,0,0,0,.15l.09.11Zm-.31.33-.22-.21a.36.36,0,0,0-.12-.08.19.19,0,0,0-.13,0,.55.55,0,0,0-.17.1l-.18.18-.12.16a.42.42,0,0,0-.06.14.22.22,0,0,0,0,.12.37.37,0,0,0,.08.12l.22.21Zm-1.77-1.79.34-.31.46.52.86-.76-.51-.58.34-.31.67.76-2.61,2.33-.67-.76.34-.3.51.57.73-.65Zm.9-2.19.14.19-2.78,2.1-.14-.19Zm-1.73-.62-2,1.3-.13-.2,2.11-1.34.25-.15a1.49,1.49,0,0,1,.28-.12.86.86,0,0,1,.25,0,.5.5,0,0,1,.21.05.32.32,0,0,1,.15.15.33.33,0,0,1,0,.26.93.93,0,0,1-.14.27,1.17,1.17,0,0,1-.27.26l-.2.15-.13-.2.15-.11.12-.11a.38.38,0,0,0,.07-.14.18.18,0,0,0,0-.15.15.15,0,0,0-.09-.07.32.32,0,0,0-.15,0l-.2.06-.26.14Zm.28-1.69.11.22L347,59.59l-.11-.22Zm-2.83.21,2.43-1,.09.22-3.22,1.36-.09-.22,2-1.73-2.35,1-.09-.22L349.17,56l.09.21Zm-.9-3,.07.24-.21.11a.55.55,0,0,0-.18.16.27.27,0,0,0,0,.23.32.32,0,0,0,.08.13.37.37,0,0,0,.19.09,1.35,1.35,0,0,0,.32,0,2.22,2.22,0,0,0,.38,0l.38-.09.31-.1a3,3,0,0,0,.4-.17,1.11,1.11,0,0,0,.3-.22.48.48,0,0,0,.13-.21.37.37,0,0,0,0-.16l0-.13-.07-.22-.8.24.09.28-.47.14-.16-.51,1.72-.51.11.34a1.63,1.63,0,0,1,.06.27.57.57,0,0,1,0,.29.81.81,0,0,1-.22.3,1.65,1.65,0,0,1-.35.24,3.42,3.42,0,0,1-.4.17l-.46.15a5.8,5.8,0,0,1-.59.14,2.31,2.31,0,0,1-.52,0,2.21,2.21,0,0,1-.36,0,.7.7,0,0,1-.26-.12.41.41,0,0,1-.15-.23.42.42,0,0,1,0-.28.67.67,0,0,1,.15-.22,1.4,1.4,0,0,1,.22-.17l.24-.13Zm-1.56-3.41,0-.23,2.3-.22h.29l.35,0a1,1,0,0,1,.31.09.65.65,0,0,1,.23.18.44.44,0,0,1,.1.25.38.38,0,0,1-.06.26.8.8,0,0,1-.2.21,1.14,1.14,0,0,1-.27.14l-.3.08-.37,0-2.25.21,0-.23,2.21-.21a2.69,2.69,0,0,0,.4-.06.63.63,0,0,0,.24-.11.34.34,0,0,0,.12-.16.38.38,0,0,0,0-.18.28.28,0,0,0-.07-.17.4.4,0,0,0-.16-.09,1,1,0,0,0-.27,0h-.4Zm.82-1.26,2.66,0v.24l-3.52,0v-.24l2.58-.79-2.57,0v-.24l3.52,0v.23Zm2.74-2,0,.24-3.47-.34,0-.24Zm.17-1.25-3.54,0,0-.26,2.68,0-2.49-1,.05-.26,3.28,1.3ZM347,44.39l.44.13-.19.64,1.1.33.21-.71.44.13-.28.94-3.36-1,.28-.94.43.13-.21.71.94.28Zm2.25-.16-.09.22-3.22-1.31.22-.54a.43.43,0,0,1,.13-.17.45.45,0,0,1,.21-.09.89.89,0,0,1,.3,0,2.11,2.11,0,0,1,.39.13,1.9,1.9,0,0,1,.35.18,1.2,1.2,0,0,1,.19.16l.08.09h.11l.14,0,.3.08,1.22.38-.09.22-1.19-.38-.22,0a.28.28,0,0,0-.16,0,.24.24,0,0,0-.08.12l-.12.28Zm-2.83-1.15.89.36.12-.29a.25.25,0,0,0-.08-.31.88.88,0,0,0-.26-.15l-.17,0h-.16a.28.28,0,0,0-.14.06.29.29,0,0,0-.09.12Zm2.45-.52.1-.21.14.05.16,0h.15a.3.3,0,0,0,.13,0,.29.29,0,0,0,.1-.1.35.35,0,0,0,0-.11.24.24,0,0,0,0-.11.33.33,0,0,0,0-.11.34.34,0,0,0-.09-.12l-.18-.12-.18-.09-.18,0a.38.38,0,0,0-.2.06l-.25.15a1.17,1.17,0,0,1-.24.12.66.66,0,0,1-.26,0,1.4,1.4,0,0,1-.33-.07,1.8,1.8,0,0,1-.41-.21,1.32,1.32,0,0,1-.25-.19.93.93,0,0,1-.13-.18.74.74,0,0,1-.08-.18.42.42,0,0,1,0-.17.58.58,0,0,1,0-.14.35.35,0,0,1,.19-.2.73.73,0,0,1,.25-.05,1.16,1.16,0,0,1,.27,0l.22.06.13,0-.1.21-.11,0-.13,0a.4.4,0,0,0-.16,0,.2.2,0,0,0-.12.07l-.06.1a.33.33,0,0,0,0,.18.39.39,0,0,0,.06.15.62.62,0,0,0,.12.13l.16.1a.72.72,0,0,0,.2.07H348l.15,0,.19-.1.23-.13a.68.68,0,0,1,.23-.07.71.71,0,0,1,.25,0l.25.07.23.11a1.69,1.69,0,0,1,.34.24A1,1,0,0,1,350,42a.54.54,0,0,1,.07.23.42.42,0,0,1,0,.2.43.43,0,0,1-.14.19.5.5,0,0,1-.2.09.85.85,0,0,1-.24,0l-.25,0-.24-.08Zm2-1.42-.13.2-3-1.87.13-.2Zm-2.09-2.39-.35-.27.38-.5.38-.5.35.27-.32.42,1.19.91,1.22.93-.14.19-1.23-.93L349,38.36l-.29.39Zm4-.07-.17.18-1.18-1.11-1.81-.83.19-.2,1.36.62L350.44,36l.19-.2,1,1.74Zm5.1-7.43.51-.18a.44.44,0,0,1,.2,0,.35.35,0,0,1,.21.12,1.15,1.15,0,0,1,.18.24l.12.24.08.22a2.22,2.22,0,0,1,.1.41,1.09,1.09,0,0,1,0,.33.48.48,0,0,1-.1.24A.43.43,0,0,1,359,33l-.24.08.48,1.41-.22.08Zm.71,1.35.24-.08a.29.29,0,0,0,.13-.08.27.27,0,0,0,.06-.13.51.51,0,0,0,0-.17,1.28,1.28,0,0,0-.06-.23,1.24,1.24,0,0,0-.12-.25.45.45,0,0,0-.13-.14.15.15,0,0,0-.13,0l-.32.11Zm1.76-2.11a.5.5,0,0,1,.4.15,1.7,1.7,0,0,1,.42.58,4,4,0,0,1,.3.86,3.81,3.81,0,0,1,.09.88,1.75,1.75,0,0,1-.12.68.43.43,0,0,1-.31.29.49.49,0,0,1-.41-.16,1.87,1.87,0,0,1-.4-.58,4,4,0,0,1-.39-1.72,1.6,1.6,0,0,1,.13-.69.47.47,0,0,1,.3-.28Zm.1.46c-.08,0-.14.09-.2.2a1.17,1.17,0,0,0-.08.5,3.23,3.23,0,0,0,.08.66,2.85,2.85,0,0,0,.2.61,1.42,1.42,0,0,0,.28.43.33.33,0,0,0,.28.12c.09,0,.15-.08.21-.21a1.35,1.35,0,0,0,.08-.49,3,3,0,0,0-.08-.65,3.32,3.32,0,0,0-.21-.63,1.27,1.27,0,0,0-.29-.43.34.34,0,0,0-.27-.11Zm3.34-.5V30H365v.45h-.52l.09,3.06h-.24l-.09-3.06Zm6.5.27.2.05c0,.6-.06,1.19-.1,1.79s-.1,1.19-.14,1.78l-.25-.07c0-.16,0-.31,0-.47s0-.31,0-.47l-.34-.09-.34-.09-.4.82-.23-.07c.25-.52.5-1,.76-1.56l.78-1.61Zm-.18,2.17c0-.24,0-.48.05-.73l0-.73-.32.66-.32.66.27.07.27.07Zm1.76-.78-1,2.43-.22-.09L372,31.22l.21.09L372,34l1-2.35.22.09-1.31,3.21-.21-.08Zm.38,3L373.86,32l.37.2a.87.87,0,0,1,.19.14.83.83,0,0,1,.17.24.7.7,0,0,1,.06.33,1.83,1.83,0,0,1-.05.37,2.78,2.78,0,0,1-.13.39q-.09.21-.22.46t-.28.49a3.25,3.25,0,0,1-.35.45,1.29,1.29,0,0,1-.3.25.62.62,0,0,1-.47.06l-.24-.11Zm1.64-2.58-1.23,2.31.15.08a.77.77,0,0,0,.28.09.5.5,0,0,0,.27-.05.86.86,0,0,0,.24-.18,1.77,1.77,0,0,0,.22-.29q.12-.19.25-.44a3.5,3.5,0,0,0,.2-.44,1.52,1.52,0,0,0,.08-.32.75.75,0,0,0,0-.28.69.69,0,0,0-.08-.2.66.66,0,0,0-.11-.13l-.12-.09Zm3.14,2,.29-.36.48.39.47.4-.3.36-.39-.33-1,1.21c-.32.4-.65.78-1,1.16l-.18-.16c.32-.37.65-.75,1-1.15l1-1.21-.37-.3Zm1.47,2.64-.33.33-.48-.49-.81.82.54.54-.33.33-.71-.71,2.47-2.5.7.71-.32.32-.53-.53-.69.7ZM377.42,39l2.66-2.24.16.18-2.31,1.94.53.61-.35.3Zm3.2.75-.38.27-.4-.56-.95.67.45.62L379,41l-.59-.81,2.88-2,.59.81-.37.26-.44-.61-.81.57Zm1.49,1.52-.13-.21.12-.08a.54.54,0,0,0,.11-.12.36.36,0,0,0,.07-.17.31.31,0,0,0,0-.18.31.31,0,0,0-.22-.16.85.85,0,0,0-.34,0,1.88,1.88,0,0,0-.39.12,4.63,4.63,0,0,0-.45.23l-.43.27a1.75,1.75,0,0,0-.3.26.71.71,0,0,0-.17.29.33.33,0,0,0,0,.27.29.29,0,0,0,.18.14.3.3,0,0,0,.2,0l.3-.12.13.21-.16.08-.25.1a.87.87,0,0,1-.34.05.69.69,0,0,1-.3-.07.43.43,0,0,1-.18-.19.49.49,0,0,1-.05-.3.78.78,0,0,1,.16-.37A1.9,1.9,0,0,1,380,41l.39-.28.37-.22a5.38,5.38,0,0,1,.5-.25,2.23,2.23,0,0,1,.47-.14,1.61,1.61,0,0,1,.41,0,.61.61,0,0,1,.3.1.57.57,0,0,1,.19.2.39.39,0,0,1,0,.34,1,1,0,0,1-.19.29,1.35,1.35,0,0,1-.27.22Zm1.49.91a.47.47,0,0,1-.05.41,1.61,1.61,0,0,1-.49.51,4,4,0,0,1-1.64.71,1.88,1.88,0,0,1-.71,0,.4.4,0,0,1-.3-.67,1.77,1.77,0,0,1,.48-.5,3.77,3.77,0,0,1,.77-.44,3.93,3.93,0,0,1,.86-.26,1.72,1.72,0,0,1,.72,0A.51.51,0,0,1,383.6,42.17Zm-.43.19a.35.35,0,0,0-.25-.15,1.25,1.25,0,0,0-.52,0,3.33,3.33,0,0,0-.64.2,2.83,2.83,0,0,0-.56.31,1.35,1.35,0,0,0-.36.36.31.31,0,0,0-.06.29c0,.08.12.13.26.16a1.44,1.44,0,0,0,.51,0,3.05,3.05,0,0,0,.63-.2,3.29,3.29,0,0,0,.58-.33,1.2,1.2,0,0,0,.37-.36.32.32,0,0,0,0-.28Zm1,1.31.08.28-2.53,1.34,2.86-.23.08.28-3.39,1-.06-.22,2.56-.74-2.71.23-.06-.21,2.4-1.26-2.55.74-.07-.22Zm.7,2.56,0,.29-2.68,1,2.87.15,0,.29-3.49.52,0-.23,2.63-.39-2.72-.13,0-.21,2.54-.92-2.63.39,0-.22Zm.37,3.58V50l-2.3.09h-.29l-.34,0A1,1,0,0,1,382,50a.66.66,0,0,1-.22-.2.44.44,0,0,1-.09-.25.39.39,0,0,1,.07-.25.79.79,0,0,1,.21-.2,1.12,1.12,0,0,1,.27-.13l.3-.06.37,0,2.25-.09V49l-2.21.08a2.66,2.66,0,0,0-.41,0,.62.62,0,0,0-.25.1.34.34,0,0,0-.13.15.38.38,0,0,0,0,.18.28.28,0,0,0,.06.17.4.4,0,0,0,.15.1,1,1,0,0,0,.26.06h.4ZM384.34,51l-2.65-.17v-.23l3.51.22,0,.23-2.6.64,2.56.16v.24l-3.51-.22v-.22Zm-2.85,1.82,0-.24,3.47.53,0,.24Zm2.07,2.56.06-.24.14,0h.17a.38.38,0,0,0,.17-.07.31.31,0,0,0,.11-.15.3.3,0,0,0,0-.26.83.83,0,0,0-.25-.23,1.87,1.87,0,0,0-.37-.18l-.49-.14-.5-.1a1.81,1.81,0,0,0-.4,0,.74.74,0,0,0-.33.09.34.34,0,0,0-.17.21.28.28,0,0,0,0,.22.29.29,0,0,0,.14.14l.3.12-.06.24-.17-.05-.26-.1a.85.85,0,0,1-.28-.2.66.66,0,0,1-.16-.26.42.42,0,0,1,0-.26.5.5,0,0,1,.17-.25.82.82,0,0,1,.38-.16,2,2,0,0,1,.53,0l.48.07.42.1a5.43,5.43,0,0,1,.53.16,2.22,2.22,0,0,1,.44.22,1.58,1.58,0,0,1,.32.26.58.58,0,0,1,.14.27.55.55,0,0,1,0,.27.4.4,0,0,1-.22.26,1,1,0,0,1-.34.08,1.38,1.38,0,0,1-.35,0ZM384,57l-.07.19-3.54-.53.1-.25.93.13.25-.66-.8-.48.09-.23Zm-2.15-.38,1.44.23-1.24-.75ZM383,58.42l.41.21-.57,1.12-.41-.21.24-.47-2.74-1.39.11-.22,2.74,1.39Zm-3.79.54.13-.21,3,1.83-.13.21Zm2,3.26a.49.49,0,0,1-.39.16,1.61,1.61,0,0,1-.69-.16,3.81,3.81,0,0,1-.78-.45,3.77,3.77,0,0,1-.64-.61,1.79,1.79,0,0,1-.35-.6.46.46,0,0,1,0-.43.48.48,0,0,1,.41-.16,1.77,1.77,0,0,1,.68.16,3.67,3.67,0,0,1,.76.44,3.78,3.78,0,0,1,.65.61,1.64,1.64,0,0,1,.35.62.51.51,0,0,1,0,.42Zm-.37-.28a.35.35,0,0,0,0-.29,1.19,1.19,0,0,0-.27-.44,3.19,3.19,0,0,0-.49-.45,2.75,2.75,0,0,0-.55-.33,1.34,1.34,0,0,0-.49-.14.32.32,0,0,0-.29.1.3.3,0,0,0,0,.3,1.38,1.38,0,0,0,.27.43,2.93,2.93,0,0,0,.48.44,3.2,3.2,0,0,0,.57.34,1.2,1.2,0,0,0,.5.13.33.33,0,0,0,.27-.1ZM379.47,63l-1.94-1.8.16-.17,2.56,2.38-.16.17-2.42-1.13,1.87,1.74-.16.18L376.82,62l.15-.17Zm-2.29,0-.19.17-.11-.11-.12-.1-.13-.07-.13,0a.31.31,0,0,0-.14,0l-.09.07a.29.29,0,0,0-.07.09.3.3,0,0,0,0,.11.29.29,0,0,0,0,.14,1,1,0,0,0,.11.18l.13.16a.74.74,0,0,0,.16.12.4.4,0,0,0,.21,0l.3,0a1.32,1.32,0,0,1,.28,0,.67.67,0,0,1,.25.06,1.42,1.42,0,0,1,.29.18,2,2,0,0,1,.33.34,1.42,1.42,0,0,1,.18.26.89.89,0,0,1,.07.21.68.68,0,0,1,0,.19.42.42,0,0,1-.05.16.56.56,0,0,1-.08.12.37.37,0,0,1-.25.12.74.74,0,0,1-.26,0,1.19,1.19,0,0,1-.25-.11l-.19-.13-.1-.09.17-.17.1.07.12.08a.43.43,0,0,0,.16.05.21.21,0,0,0,.14,0l.09-.07a.31.31,0,0,0,.08-.16.38.38,0,0,0,0-.16.64.64,0,0,0-.07-.17.8.8,0,0,0-.12-.15.79.79,0,0,0-.17-.14l-.16-.06h-.16l-.22,0-.28,0a.58.58,0,0,1-.25,0,.85.85,0,0,1-.23-.15l-.2-.19-.17-.2a1.51,1.51,0,0,1-.21-.34.76.76,0,0,1-.06-.27.49.49,0,0,1,0-.22.48.48,0,0,1,.13-.16.5.5,0,0,1,.21-.11.53.53,0,0,1,.22,0,.86.86,0,0,1,.22.08l.21.13.18.16.09.1Zm-21.85,2.83.31.16.38.18.29-.63.12-.29.25.12a2.35,2.35,0,0,0-.16.28c-.17.36-.33.73-.5,1.09s-.37.72-.53,1.09c0,.1-.09.22-.14.36l-.24-.11.2-.44-.47-.06a1.38,1.38,0,0,0-.34,0c0-.12,0-.25,0-.39a3.05,3.05,0,0,0,.44.12l.46.08.25-.48.23-.48-.38-.18-.32-.14Zm1.74-.27.24.13-.14.24-.41.85a2.47,2.47,0,0,0,.4,0l.47-.1a1.71,1.71,0,0,0,.06.38,1.37,1.37,0,0,0-.48,0l-.56,0-.24.5-.22.5c-.06.13,0,.23.09.28l.27.12c.09,0,.16,0,.2,0a1.45,1.45,0,0,0,.2-.29.44.44,0,0,0,.19.27,1.73,1.73,0,0,1-.32.3.25.25,0,0,1-.24,0l-.52-.23c-.18-.08-.23-.24-.14-.46s.34-.73.52-1.1l.52-1.09.11-.26ZM359.74,69c.08-.07.19-.06.26-.13.07.11.13.17.23.31l.27.39-.26.21A6.45,6.45,0,0,0,359.74,69Zm-1-.54.17.28q-.22.1-.87.48a1.15,1.15,0,0,0-.16-.24A3.32,3.32,0,0,0,358.72,68.42Zm0-1.22,1.89.5a4.15,4.15,0,0,0-.29,1l-.8-.22-.19.84q-.05.24-.17.27a1.65,1.65,0,0,1-.42,0,1,1,0,0,0,0-.37.66.66,0,0,0,.31.07c.06,0,.1-.06.13-.18l.16-.72-.81-.2q.06-.22.12-.49c0-.18.1-.4.12-.52Zm.17.36-.11.49,1.38.35.13-.52Zm.79-1.1H360s0,.09,0,.17,0,.18,0,.31l.66.17.49.11c0,.08-.05.18-.07.27-.86-.27-1.78-.5-2.66-.69,0-.09,0-.21,0-.3l.53.17.39.11.35.09s0-.1,0-.17,0-.16,0-.26Zm3.4,3.89,0-.38c0-.11,0-.22,0-.33l.12-1.6c0-.15,0-.28,0-.38v-.33l.32,0,.37,0h.33l-.09.25-.05.16-.27.72a1.92,1.92,0,0,1,.22.36,1.44,1.44,0,0,1,.07.24,1.09,1.09,0,0,1,0,.27.76.76,0,0,1-.08.29.42.42,0,0,1-.18.19,1.29,1.29,0,0,1-.37.1s0-.08,0-.11a.51.51,0,0,0,0-.1,1.53,1.53,0,0,0-.09-.21l.2,0c.16,0,.25-.07.26-.25,0,0,0,0,0-.09a.72.72,0,0,0,0-.14,1.21,1.21,0,0,0,0-.16l-.07-.16-.15-.25.15-.41.14-.49-.38,0-.15,2q0,.12,0,.38v.34l-.3,0Zm-.71-1.87.35,0,.06-.65-.35,0Zm-.08.93.35,0,.06-.68-.35,0Zm-.52-1,.36,0,.06-.65-.36,0Zm-.08.93.36,0,.06-.68-.36,0Zm-.09-1.87.33,0,.29,0,0-.22q0-.18,0-.23v-.23a.79.79,0,0,0,.27,0l0,.28,0,.18,0,.22.28,0h.33q0,.21,0,.32l0,.26-.12,1.29c0,.14,0,.24,0,.27V70l-.14,0h-.13c0-.09,0-.16,0-.2v-.11l-.95-.07,0,.18V70a.81.81,0,0,0-.26,0l0-.31,0-.29.12-1.32s0-.13,0-.27Zm3.43.13h.31l.65,0v-.11s0-.1,0-.19l0-.25h.19l.14,0c0,.1,0,.17,0,.22s0,.12,0,.21v.12l.65,0,.31,0c0,.08,0,.13,0,.18s0,.1,0,.16l.08,1.06c0,.11,0,.17,0,.2l0,.2-.31,0a.41.41,0,0,1,0-.06v-.12l-.67,0,0,.48a.74.74,0,0,0,0,.17.15.15,0,0,0,.07.07,1.76,1.76,0,0,0,.53,0l.24,0a.19.19,0,0,0,.11-.08.38.38,0,0,0,0-.14,2.57,2.57,0,0,0,0-.27l.14.14a.7.7,0,0,0,.24.1l-.07.16-.08.17a.39.39,0,0,1-.12.15.46.46,0,0,1-.22.07l-.41,0a2.05,2.05,0,0,1-.63,0,.2.2,0,0,1-.15-.14,1.6,1.6,0,0,1,0-.23l0-.59-.66,0v.24h-.3v-.25c0-.06,0-.14,0-.23l-.07-1c0-.07,0-.12,0-.16Zm.39,1.35.66,0,0-.43-.66,0Zm0-.69.66,0,0-.4-.66,0Zm1,.63.67,0,0-.43-.67,0Zm0-.69.67,0,0-.4-.67,0Zm2.13,1.53.08,0a2,2,0,0,0,.54-.47,1.22,1.22,0,0,0,.27-.54,2.92,2.92,0,0,0,0-.43,3.89,3.89,0,0,0,0-.4l-.68.15-.42.12,0-.09v-.12l0-.13.43-.07.71-.16,0-.15,0-.23,0-.15,0-.09-.08-.31.18,0,.16-.05.05.34c0,.06,0,.14,0,.23l0,.2,0,.16.74-.16.41-.12,0,.12v.07l0,.15-.41.07-.69.15.07.19a2.55,2.55,0,0,0,.26.42,1.35,1.35,0,0,0,.41.41,2.06,2.06,0,0,0,.39.16,1.61,1.61,0,0,0,.35.07h.09a.6.6,0,0,0-.22.29l0,.15-.09,0-.3-.14a1.94,1.94,0,0,1-.55-.38,2.43,2.43,0,0,1-.46-.66c0,.08,0,.14,0,.2s0,.11,0,.15a1.31,1.31,0,0,1,0,.19,2.51,2.51,0,0,1-.08.28,1.21,1.21,0,0,1-.17.31l-.19.24-.34.32,0,0-.1-.11a.61.61,0,0,0-.26-.13Zm3.37-1.29,0-.16,0-.05,0-.11.4-.12.85-.31,0-.07h0l0-.06-.05-.11,0,0a2.57,2.57,0,0,0,.28-.29l-.73.26-.41.17,0-.08,0-.07,0,0,0-.09.42-.13.89-.32.35-.15,0,.11,0,.06,0,.05,0,.09-.1.06a2.16,2.16,0,0,0-.39.37l-.07.08,0,.11.69-.25.43-.18,0,.11,0,.07.07.14-.45.14-.69.25.2.55a.39.39,0,0,1,0,.18q0,.08-.41.3l0-.08-.06-.09-.16-.15h.06l.13,0a.3.3,0,0,0,.13-.08.12.12,0,0,0,0-.07,1.2,1.2,0,0,0-.06-.18l-.09-.25-.85.31-.38.16Zm-.3-.91-.07-.22-.09-.25-.09-.21.32-.1,1.31-.48a3.64,3.64,0,0,0,.07-.76V65.4a1.23,1.23,0,0,0,.31.08l0,.11,0,.14,0,.25,0,.23.37-.13.3-.13,0,.15,0,.09.09.24,0,.08,0,.1a1.07,1.07,0,0,0-.28.1l0-.11,0-.08-.07-.19-2,.73.07.19,0,.09.06.12-.1,0-.18.07Zm-.14-1.27a1,1,0,0,0,.19-.22l.48.34-.12.09-.1.13-.07-.09-.12-.09-.16-.11Zm.9-.62.36.46a.88.88,0,0,0-.24.16l-.06-.08-.11-.16-.15-.18,0-.05A1.13,1.13,0,0,0,372.32,65.67Zm-10-33c0,.28.2.71.58.48l.09-.07a.29.29,0,0,0,.05-.14c.06-.75-.15-.7-.54-.91a1.49,1.49,0,0,1-.25-.17.79.79,0,0,1-.17-.22c-.24-.43-.33-1.43.34-1.55.42,0,.58.51.66.85h-.22c-.07-.25-.29-.59-.57-.37a.61.61,0,0,0-.09.69.72.72,0,0,0,.09.16.61.61,0,0,0,.12.12l.2.13c.38.21.53.31.63.73a3.35,3.35,0,0,1,.06.34,1.54,1.54,0,0,1,0,.41.85.85,0,0,1-.11.28.47.47,0,0,1-.17.17.43.43,0,0,1-.21.05c-.43,0-.64-.55-.7-1Zm3.46-.15c0,.28.06.73.48.58l.1-.06a.29.29,0,0,0,.07-.12c.2-.73,0-.72-.36-1a1.48,1.48,0,0,1-.22-.21.79.79,0,0,1-.12-.25c-.15-.47,0-1.47.63-1.46.42.07.48.61.48,1l-.21,0c0-.26-.17-.64-.49-.47a.61.61,0,0,0-.22.66.72.72,0,0,0,.06.17.6.6,0,0,0,.1.14l.18.16c.33.28.47.4.48.83a3.38,3.38,0,0,1,0,.34,1.54,1.54,0,0,1-.1.4.86.86,0,0,1-.16.25.47.47,0,0,1-.2.13.43.43,0,0,1-.21,0c-.42-.06-.52-.66-.5-1.08Zm-12.58,1.15a.48.48,0,0,1,.41,0,1.22,1.22,0,0,1,.28.14,2.48,2.48,0,0,1,.32.25,4,4,0,0,1,.32.32,4.3,4.3,0,0,1,.29.36,4.16,4.16,0,0,1,.25.38,2.89,2.89,0,0,1,.18.39,1.69,1.69,0,0,1,.13.67.45.45,0,0,1-.17.38.48.48,0,0,1-.43,0,1.76,1.76,0,0,1-.58-.37,4,4,0,0,1-.58-.67,4.46,4.46,0,0,1-.25-.39,3.19,3.19,0,0,1-.19-.4,1.6,1.6,0,0,1-.14-.69A.47.47,0,0,1,353.24,33.65Zm.27.38a.32.32,0,0,0-.1.26,1.14,1.14,0,0,0,.11.49,3.23,3.23,0,0,0,.33.58,3.08,3.08,0,0,0,.42.49,1.39,1.39,0,0,0,.42.29.33.33,0,0,0,.3,0,.3.3,0,0,0,.11-.27,1.26,1.26,0,0,0-.11-.48,2.8,2.8,0,0,0-.33-.56,3.52,3.52,0,0,0-.44-.5,1.3,1.3,0,0,0-.43-.29.33.33,0,0,0-.29,0Zm2.16.34.79,1.39-.21.11-1.75-3.06.85-.46.24.41-.64.35.49.86.59-.32.23.4Z"/><path d="M411.39,44.13H397.75V56.34h13.63v2.2h-16V42h16Zm-9.72.81a16.38,16.38,0,0,0,3,4.29,16.8,16.8,0,0,0,3-4.29h2.46a14.21,14.21,0,0,1-1.51,3,18.71,18.71,0,0,1-2.25,2.79,18.05,18.05,0,0,0,2.07,1.44,17.78,17.78,0,0,0,2.32,1.16v2.37a16.5,16.5,0,0,1-3.16-1.41,20.31,20.31,0,0,1-2.9-2,20.31,20.31,0,0,1-2.9,2,16.65,16.65,0,0,1-3.15,1.41V53.34a18.77,18.77,0,0,0,4.39-2.6,18.64,18.64,0,0,1-2.25-2.79,14.17,14.17,0,0,1-1.51-3Z"/><path d="M416.47,41.81v3.67h1.74v2.18h-1.74v7.4l.89-.23.92-.26v2.18a29.73,29.73,0,0,1-2.92.76,24.66,24.66,0,0,1-3.08.42V55.75q.91-.07,1.83-.21V47.66h-1.74V45.48h1.74V41.81Zm12.34,7.71h.83v2.2h-4.57a6,6,0,0,0,1.56,2.78,7.72,7.72,0,0,0,2.62,1.72v2.5a7.29,7.29,0,0,1-3.12-1.46,9.44,9.44,0,0,1-2.36-2.74,7.57,7.57,0,0,1-2,2.63,8.22,8.22,0,0,1-3.08,1.57v-2.5A5.42,5.42,0,0,0,421,54.5a6.35,6.35,0,0,0,1.16-2.78h-3.23v-2.2h3.46v-4.2h-3.06v-2.2h3.06V41.35h2.37v1.77h4Zm-4-4.2v4.2h1.65v-4.2Z"/><path d="M433.44,41.32q-.05.56-.16,1.12H435v2.2h-2.57a3.63,3.63,0,0,1-1,1,3.87,3.87,0,0,1-1.55.55V43.73a1.81,1.81,0,0,0,.85-1,5.45,5.45,0,0,0,.36-1.44Zm1.33,7.49h-1.35v2.71h1.41v2.2h-1.41v2.41a.34.34,0,0,0,.11.25.33.33,0,0,0,.25.11h.76v2.2h-1.81a1.54,1.54,0,0,1-1.12-.46,1.51,1.51,0,0,1-.47-1.12V53.71h-1.23v-2.2h1.23V48.81H430v-2.2h4.73Zm4,4.45q0,.44,0,.83t-.06.75a4.38,4.38,0,0,0,.91,1,1.82,1.82,0,0,0,1.18.43h6.41v2.18H440.8a4.54,4.54,0,0,1-1.77-.29,3.61,3.61,0,0,1-1.19-.82,3,3,0,0,1-1.09.92,4.66,4.66,0,0,1-1.55.43V56a1.53,1.53,0,0,0,1-1,6.42,6.42,0,0,0,.25-2v-6h-1.21V44.76h3.58Zm0-11.93V44h-2.37V41.32Zm8.36,12.81h-2v1.71h-2.35V54.13h-3.29v-2.2h3.29V50.21h-3.2V48l.9-3.23h-1v-2.2h1.58l.35-1.25h2.16l-.35,1.25h3.87v2.2H442.7L441.82,48h1.13V45.89h2.25V48h1.88v2.2H445.2v1.72h2Z"/><path d="M452.33,52.64a14.5,14.5,0,0,1-.33,1.54q-.23.85-.5,1.69t-.56,1.58q-.29.75-.54,1.24h-2.46q.3-.65.61-1.42t.58-1.56q.27-.79.48-1.57t.33-1.48Zm11.83-1.48H448V49h16.11Zm-13.35-9.4q.26,1.32.72,2.87a27.13,27.13,0,0,0,1,2.93H450.1a14,14,0,0,1-.52-1.34q-.25-.76-.47-1.56t-.4-1.55q-.18-.76-.26-1.34Zm5.57,0a29.28,29.28,0,0,0,.69,2.85,25.55,25.55,0,0,0,1.06,3h-2.48q-.25-.58-.5-1.33t-.47-1.56q-.22-.8-.4-1.56T454,41.76Zm7.38,0q-.09.58-.26,1.34t-.4,1.56q-.22.8-.47,1.56a12.43,12.43,0,0,1-.52,1.33h-2.46a23.82,23.82,0,0,0,1-2.93q.45-1.55.71-2.87Zm-1.88,16.92q-.12-.7-.33-1.49c-.14-.53-.3-1.05-.48-1.58s-.37-1-.58-1.56-.41-1-.61-1.41h2.46a12.73,12.73,0,0,1,.54,1.22q.29.75.55,1.59t.49,1.7q.23.85.35,1.54Z"/><path d="M470.78,50.05h-1v2h.88v2.2h-.88v2.11h12.63v2.11H468.53a2,2,0,0,1-1.2-.35,3,3,0,0,1-.82-.91,3.36,3.36,0,0,1-.61,1,2.11,2.11,0,0,1-.93.57V56.22a2.15,2.15,0,0,0,.26-.7,8,8,0,0,0,.13-1q0-.61.05-1.41t0-1.88h1.72q0,.88,0,1.73T467,54.57a3.63,3.63,0,0,0,.51,1.32V50.05h-2.41v-2.2h1.69v-2.5h-1.58v-2.2h1.58V41.25h2.27v1.92h1.58v2.2h-1.58v2.5h1.69ZM477,43.81h-.47v8.47H477v2.11h-.54v1.55h-1.92V54.39h-3.51V52.28h.54V43.81h-.47V41.72H477Zm-3.43,1.42h1V43.81h-1Zm0,3.53h1V47.33h-1Zm0,3.51h1V50.88h-1Zm5.8-7.22q0,1,.14,2a17.5,17.5,0,0,0,.3,1.83,20,20,0,0,0,.39-2.18,21.84,21.84,0,0,0,.16-2.35h-3V42.22h4.88v2a22.84,22.84,0,0,1-.35,4.4,17.3,17.3,0,0,1-1,3.42,5.43,5.43,0,0,0,.64,1,2.53,2.53,0,0,0,.69.6v2.37a4.71,4.71,0,0,1-1.28-.73A5.74,5.74,0,0,1,479.76,54a5.2,5.2,0,0,1-2.44,2V53.55a4,4,0,0,0,1.35-1.62,16.41,16.41,0,0,1-.85-3,22.68,22.68,0,0,1-.36-3.84Z"/><path d="M486.35,45.54q0,1.26,0,2.59t-.18,2.64q-.13,1.32-.33,2.6t-.47,2.48h-2.39a41.77,41.77,0,0,0,.83-5.11,45.91,45.91,0,0,0,.23-5.2Zm6.08-4.2V57a1.71,1.71,0,0,1-.5,1.25,1.67,1.67,0,0,1-1.24.51H487.3v-2.2h1.9a.86.86,0,0,0,.62-.25.83.83,0,0,0,.26-.62V41.34Zm4.78,14.51a38.56,38.56,0,0,0-.36-5.21q-.36-2.64-.92-5.1h2.35q.56,2.46.92,5.1a38.56,38.56,0,0,1,.36,5.21Z"/><path d="M506.52,55h-6.33V52.9l2.34-4.22h-2.34v-2.2l2.71-5.2h2.57l-2.69,5.2h1l.81-1.46h2.67l-4.11,7.82h3.39Zm-.09,3.51h-6.24v-2.2h6.24Zm10.24-2.23h.77v2.2H507v-2.2h.76V42h8.91Zm-6.54-9.63h4.18V44.13h-4.18Zm0,4.8h4.18v-2.6h-4.18Zm0,4.83h4.18V53.66h-4.18Z"/></svg>