<svg id="图层_1" data-name="图层 1" xmlns="http://www.w3.org/2000/svg" viewBox="0 0 98.67 31.92"><defs><style>.cls-1,.cls-2,.cls-3{fill-rule:evenodd;}.cls-2{fill:#fff;}.cls-3{fill:#f5cc24;}</style></defs><title>media</title><path class="cls-1" d="M4.35,24.82h0v0m5.69,1-.73,0h0c-1.47-.06-2.94-.16-4.37-.28l-.12,0a1.55,1.55,0,0,1-.89-.44A1.5,1.5,0,0,1,3.46,24v0h0a1.85,1.85,0,0,1,0-.53v0a.59.59,0,0,1,.06-.17A104.38,104.38,0,0,1,12,9.07l-1-1.27a1.52,1.52,0,0,1-.4-1A1.54,1.54,0,0,1,13.55,6l0,0,.37.49L14.31,6l0,0a1.54,1.54,0,0,1,2.86.78,1.52,1.52,0,0,1-.4,1l-.94,1.25a104.57,104.57,0,0,1,8.51,14.26v0a1.54,1.54,0,0,1-1.08,2.24l-.14,0c-1.32.11-2.67.2-4,.27h0c-1.17.08-2.53.12-4.16.12s-3.42,0-4.93-.08"/><path class="cls-2" d="M23.89,24a.91.91,0,0,1-.81.9h0q-2,.17-4,.26c-3.06.21-6.91.09-9.76,0q-2.19-.1-4.35-.28H5A.9.9,0,0,1,4.1,24a1.27,1.27,0,0,1,0-.46A103.5,103.5,0,0,1,12.84,9.07q-.62-.85-1.26-1.68a.88.88,0,0,1-.25-.62A.9.9,0,0,1,13,6.42h0l.88,1.17.88-1.17h0a.9.9,0,0,1,1.72.36.88.88,0,0,1-.25.62q-.63.82-1.25,1.66a103.52,103.52,0,0,1,8.73,14.55A.88.88,0,0,1,23.89,24Z"/><path class="cls-3" d="M14,25.57c-1.21,0-2.43,0-3.64-.06l-.05-.09a54.8,54.8,0,0,1,3.86-7h.1a54.52,54.52,0,0,1,3.85,7l-.05.09C16.67,25.54,15.3,25.57,14,25.57Z"/><path d="M14.19,18.78a54.49,54.49,0,0,1,3.56,6.47c-1.28,0-2.54.07-3.77.07s-2.24,0-3.35-.05a54.65,54.65,0,0,1,3.57-6.48m0-.66a.31.31,0,0,0-.26.14,55.05,55.05,0,0,0-3.88,7,.31.31,0,0,0,.27.44c1.21,0,2.44.06,3.65.06s2.69,0,4.07-.08a.31.31,0,0,0,.25-.15.31.31,0,0,0,0-.29,54.86,54.86,0,0,0-3.87-7,.31.31,0,0,0-.26-.14Z"/><path d="M53.48,21.83a10.52,10.52,0,0,1-3.66-.78v-3.3h1.56V16.53H49.82V14.11h1.56V12.89H49.82V10.53h1.32V9.31H49.82V7H48.46V9.31H46.27v1.22h2.19v2.36H45.94v1.22h2.52v6.12a5.09,5.09,0,0,1-.86-.9c.05-1,.06-2.24.06-3.72H46.31c0,3.74-.07,5.6-.71,7.72a.08.08,0,0,0,.08.11H47a15.41,15.41,0,0,0,.46-2.26,9.73,9.73,0,0,0,6,2c1,.05,2.1.07,3.59.07l4.36,0V21.87c-4.12,0-6.11.06-7.87,0"/><rect x="28.51" y="14.97" width="15.43" height="1.49"/><path d="M94.55,18.22H85.74v5.3h8.81Zm-1.49,3.95H87.23V19.58h5.83Z"/><polygon points="83.91 15.73 80.76 13.73 80.76 15.33 83.91 17.34 83.91 15.73"/><polygon points="91.92 7.02 90.43 7.02 90.43 8.44 85.51 8.44 85.51 7.02 84.02 7.02 84.02 8.44 80.26 8.44 80.26 9.79 84.02 9.79 84.02 11.14 85.51 11.14 85.51 9.79 90.43 9.79 90.43 11.14 91.92 11.14 91.92 9.79 95.68 9.79 95.68 8.44 91.92 8.44 91.92 7.02"/><polygon points="68.07 8.44 68.07 7.01 66.58 7.01 66.58 8.44 63.24 8.44 63.24 9.79 71.4 9.79 71.4 8.44 68.07 8.44"/><path d="M63.7,16.47v6.81h7.06V16.47Zm1.49,1.36h4.08v4.1H65.2Z"/><path d="M78.16,16.24a7.85,7.85,0,0,0-1.38-2.67l1.57-4.28V7.79H72.39V23.6h1.49V9.28h2.87l-1.7,4.62.33.34a6.32,6.32,0,0,1,1.33,2.41A10.51,10.51,0,0,1,77,20.14H74.71a.09.09,0,0,0-.09.08v0h0L75,21.5h3.26a13,13,0,0,0-.14-5.26"/><path d="M56.22,17.76V8.91h.55V7.69h-5.7V8.91h.71v10l-1,.24v1.15a.08.08,0,0,0,.1.08l3.93-1v2.1h1.36V19l1-.25V17.62a.08.08,0,0,0-.1-.08l-.9.22m-1.36.34-1.72.42V15.88h1.72Zm0-3.44H53.14V12.39h1.72Zm0-3.49H53.14V8.91h1.72Z"/><path d="M61.36,20.94a.08.08,0,0,0,.08-.12c-.63-1.38-1.15-2.65-1.58-3.87a26.59,26.59,0,0,0,1.47-7.84l0-.55a.08.08,0,0,0-.08-.08h-4.2V9.69h3a25.43,25.43,0,0,1-.87,5.24,33,33,0,0,1-1-4.56H57.09a.08.08,0,0,0-.08.1,34,34,0,0,0,1.55,6.47,34.59,34.59,0,0,1-1.71,3.87.08.08,0,0,0,.07.13h1.23c.39-.78.74-1.53,1-2.27.29.73.6,1.48,1,2.27Z"/><path d="M70,13.79l.85-3a.08.08,0,0,0-.08-.11H69.3l-.88,3.11h-2.2l-.88-3.11H63.9a.08.08,0,0,0-.08.11l.85,3H62.93v1.36h8.79V13.79Z"/><path d="M84.07,12.78l-3.19-2.09a.08.08,0,0,0-.13.07v1.47l3.18,2.09a.09.09,0,0,0,.13-.07Z"/><path d="M95.68,16.59a28.52,28.52,0,0,1-3.78-.9,10.06,10.06,0,0,0,2.74-2.62h0V11.72H88.47l.74-1a.08.08,0,0,0-.07-.13h-1.5c-.92,1.28-1.94,2.58-2.91,3.71a.08.08,0,0,0,.06.14h1.59l.34-.42a9.4,9.4,0,0,0,2,1.71,31.22,31.22,0,0,1-4.06,1v1.28a.08.08,0,0,0,.1.08,25.64,25.64,0,0,0,5.55-1.48A24.7,24.7,0,0,0,95.58,18a.08.08,0,0,0,.1-.08Zm-7.94-3.51h5.17a8.34,8.34,0,0,1-2.6,2,8.29,8.29,0,0,1-2.58-2"/><path d="M82.81,18.3c-.93,1.87-1.78,3.39-2.75,5.09a.08.08,0,0,0,.07.13H81.7c.94-1.64,1.77-3.18,2.71-5.09a.08.08,0,0,0-.07-.12Z"/><path d="M29.27,7.52a.08.08,0,0,0-.08.12c1,2.15,1.83,4,2.82,6.32h1.64a.08.08,0,0,0,.08-.11c-1-2.38-1.85-4.22-2.8-6.32Z"/><path d="M35.22,7.52H33.59a.08.08,0,0,0-.08.11c.86,2.16,1.61,4,2.47,6.33H37.6a.09.09,0,0,0,.08-.11c-.87-2.36-1.61-4.2-2.45-6.32"/><path d="M41.63,7.52c-.89,2.22-1.7,4.06-2.67,6.32A.08.08,0,0,0,39,14h1.65c1-2.22,1.75-4.06,2.66-6.33a.08.08,0,0,0-.08-.11Z"/><path d="M32.7,17.51c-1.15,1.88-2.44,3.86-3.79,5.79a.08.08,0,0,0,.07.13h1.82c1.34-2,2.62-3.94,3.73-5.8a.08.08,0,0,0-.07-.13Z"/><path d="M39.79,17.51c1.15,1.88,2.44,3.86,3.79,5.79a.08.08,0,0,1-.07.13H41.69c-1.34-2-2.62-3.94-3.73-5.8a.08.08,0,0,1,.07-.13Z"/></svg>