<svg id="Layer_1" data-name="Layer 1" xmlns="http://www.w3.org/2000/svg" xmlns:xlink="http://www.w3.org/1999/xlink" viewBox="0 0 1896 357.38"><defs><style>.cls-1{fill:url(#linear-gradient);}.cls-2{fill:url(#linear-gradient-2);}.cls-3{fill:url(#linear-gradient-3);}.cls-4{fill:url(#linear-gradient-4);}.cls-5{fill:url(#linear-gradient-5);}.cls-6{fill:url(#linear-gradient-6);}.cls-7{fill:url(#linear-gradient-7);}.cls-8{fill:url(#linear-gradient-8);}.cls-9{fill:url(#linear-gradient-9);}.cls-10{fill:url(#linear-gradient-10);}.cls-11{fill:url(#linear-gradient-11);}.cls-12{fill:url(#linear-gradient-12);}.cls-13{fill:url(#linear-gradient-13);}.cls-14{fill:url(#linear-gradient-14);}.cls-15{fill:url(#linear-gradient-15);}.cls-16{fill:url(#linear-gradient-16);}.cls-17{fill:url(#linear-gradient-17);}.cls-18{fill:url(#linear-gradient-18);}.cls-19{fill:url(#linear-gradient-19);}.cls-20{fill:url(#linear-gradient-20);}.cls-21{fill:url(#linear-gradient-21);}.cls-22{fill:url(#linear-gradient-22);}.cls-23{fill:url(#linear-gradient-23);}.cls-24{fill:url(#linear-gradient-24);}.cls-25{fill:url(#linear-gradient-25);}.cls-26{fill:url(#linear-gradient-26);}.cls-27{fill:url(#linear-gradient-27);}.cls-28{fill:url(#linear-gradient-28);}.cls-29{fill:#0c3fa1;}</style><linearGradient id="linear-gradient" x1="192.38" y1="239.44" x2="70.88" y2="155.45" gradientUnits="userSpaceOnUse"><stop offset="0" stop-color="#001eab"/><stop offset="0.14" stop-color="#053ec6"/><stop offset="0.37" stop-color="#0b6eee"/><stop offset="0.49" stop-color="#0e80fd"/><stop offset="0.61" stop-color="#0c6fee"/><stop offset="0.84" stop-color="#0542c9"/><stop offset="1" stop-color="#001eab"/></linearGradient><linearGradient id="linear-gradient-2" x1="218.46" y1="201.72" x2="96.96" y2="117.72" xlink:href="#linear-gradient"/><linearGradient id="linear-gradient-3" x1="210.34" y1="213.47" x2="88.84" y2="129.47" xlink:href="#linear-gradient"/><linearGradient id="linear-gradient-4" x1="200.35" y1="227.91" x2="78.86" y2="143.91" xlink:href="#linear-gradient"/><linearGradient id="linear-gradient-5" x1="188.71" y1="244.75" x2="67.21" y2="160.75" xlink:href="#linear-gradient"/><linearGradient id="linear-gradient-6" x1="205.96" y1="219.8" x2="84.46" y2="135.8" xlink:href="#linear-gradient"/><linearGradient id="linear-gradient-7" x1="176.82" y1="261.94" x2="55.33" y2="177.95" xlink:href="#linear-gradient"/><linearGradient id="linear-gradient-8" x1="166.72" y1="276.56" x2="45.22" y2="192.56" xlink:href="#linear-gradient"/><linearGradient id="linear-gradient-9" x1="216.82" y1="204.09" x2="95.33" y2="120.09" xlink:href="#linear-gradient"/><linearGradient id="linear-gradient-10" x1="226.08" y1="190.7" x2="104.58" y2="106.7" xlink:href="#linear-gradient"/><linearGradient id="linear-gradient-11" x1="233.84" y1="179.47" x2="112.35" y2="95.47" xlink:href="#linear-gradient"/><linearGradient id="linear-gradient-12" x1="199.74" y1="228.79" x2="78.25" y2="144.79" xlink:href="#linear-gradient"/><linearGradient id="linear-gradient-13" x1="192.15" y1="239.77" x2="70.66" y2="155.78" xlink:href="#linear-gradient"/><linearGradient id="linear-gradient-14" x1="187.35" y1="257.31" x2="49.66" y2="162.11" xlink:href="#linear-gradient"/><linearGradient id="linear-gradient-15" x1="229.39" y1="185.9" x2="107.9" y2="101.91" xlink:href="#linear-gradient"/><linearGradient id="linear-gradient-16" x1="238.32" y1="172.99" x2="116.82" y2="88.99" xlink:href="#linear-gradient"/><linearGradient id="linear-gradient-17" x1="244.75" y1="163.68" x2="123.26" y2="79.69" xlink:href="#linear-gradient"/><linearGradient id="linear-gradient-18" x1="248.99" y1="157.56" x2="127.49" y2="73.56" xlink:href="#linear-gradient"/><linearGradient id="linear-gradient-19" x1="244.27" y1="164.39" x2="122.77" y2="80.39" xlink:href="#linear-gradient"/><linearGradient id="linear-gradient-20" x1="180.38" y1="256.79" x2="58.88" y2="172.79" xlink:href="#linear-gradient"/><linearGradient id="linear-gradient-21" x1="162.5" y1="282.67" x2="41.01" y2="198.68" xlink:href="#linear-gradient"/><linearGradient id="linear-gradient-22" x1="174.85" y1="264.79" x2="53.36" y2="180.8" xlink:href="#linear-gradient"/><linearGradient id="linear-gradient-23" x1="158.09" y1="289.04" x2="36.59" y2="205.04" xlink:href="#linear-gradient"/><linearGradient id="linear-gradient-24" x1="151.73" y1="298.23" x2="30.23" y2="214.23" xlink:href="#linear-gradient"/><linearGradient id="linear-gradient-25" x1="167.02" y1="276.13" x2="45.52" y2="192.13" xlink:href="#linear-gradient"/><linearGradient id="linear-gradient-26" x1="157.27" y1="290.22" x2="35.78" y2="206.22" xlink:href="#linear-gradient"/><linearGradient id="linear-gradient-27" x1="171.4" y1="269.78" x2="49.91" y2="185.79" xlink:href="#linear-gradient"/><linearGradient id="linear-gradient-28" x1="160.22" y1="285.96" x2="38.72" y2="201.97" xlink:href="#linear-gradient"/></defs><title>zbae-logo</title><path class="cls-1" d="M120.86,71.26s73,11.5,101.48,78c0,0,33,68.5-18,132.5,0,0-24.47,34-83.48,49.5,0,0,34,4,80.48-33.5,0,0,45.5-43.5,40.5-102.5,0,0,1-48.5-36-86C205.84,109.26,167.87,72.26,120.86,71.26Z"/><rect class="cls-2" x="208.5" y="186.76" width="15.34" height="26.75"/><rect class="cls-3" x="180.25" y="186.76" width="21.59" height="26.75"/><rect class="cls-4" x="147.25" y="186.76" width="25.84" height="26.75"/><rect class="cls-5" x="111.25" y="186.76" width="25.84" height="26.75"/><rect class="cls-6" x="111.25" y="150.51" width="25.84" height="25.5"/><rect class="cls-7" x="75.5" y="186.76" width="23.84" height="26.75"/><rect class="cls-8" x="46.75" y="186.76" width="18.84" height="26.75"/><polygon class="cls-9" points="147.25 151.76 170.09 151.76 171.34 176.01 147.25 176.01 147.25 151.76"/><polygon class="cls-10" points="176.09 151.76 180.25 176.01 199.09 176.01 194.34 151.76 176.09 151.76"/><polygon class="cls-11" points="201.84 151.76 208.5 176.01 220.34 176.01 214.09 151.76 201.84 151.76"/><polygon class="cls-12" points="208.5 224.26 201.84 249.01 216.17 249.01 220.34 224.26 208.5 224.26"/><polygon class="cls-13" points="181.54 225.26 176.09 249.01 194.09 249.01 200.59 225.26 181.54 225.26"/><polygon class="cls-14" points="147.25 225.26 169.09 225.26 169.09 239.26 169.09 249.01 147.25 249.01 147.25 225.26"/><polygon class="cls-15" points="144.34 122.51 144.34 140.51 165.84 140.51 157.09 122.51 144.34 122.51"/><polygon class="cls-16" points="167.59 122.51 175.09 140.51 191.04 140.51 181.54 122.51 167.59 122.51"/><polyline class="cls-17" points="186.59 122.51 197.34 140.51 211.09 140.51 199.09 122.51 187.59 122.51"/><polygon class="cls-18" points="173.09 100.51 167.59 100.51 181.54 115.51 188.34 115.51 173.09 100.51"/><polygon class="cls-19" points="161.59 100.51 153.84 100.51 163.84 115.51 175.09 115.51 161.59 100.51"/><polygon class="cls-20" points="196.34 258.76 208.5 258.76 196.34 279.26 187.59 279.26 196.34 258.76"/><polygon class="cls-21" points="180.25 286.51 186.59 286.51 171.34 300.26 167.59 299.01 180.25 286.51"/><polyline class="cls-22" points="167.59 277.01 179.32 277.01 191.04 258.76 173.09 258.76 167.59 275.76"/><polygon class="cls-23" points="161.34 286.51 173.09 286.51 162.84 300.26 153.84 299.01 161.34 286.51"/><polygon class="cls-24" points="140.09 286.51 155.09 286.51 147.25 300.26 134.34 300.26 140.09 286.51"/><polygon class="cls-25" points="144.34 277.01 158.17 277.01 165.84 258.76 144.71 258.76 144.34 277.01"/><rect class="cls-26" x="115.59" y="258.76" width="18.75" height="18.25"/><rect class="cls-27" x="111.25" y="225.26" width="25.84" height="23.75"/><rect class="cls-28" x="78.84" y="225.26" width="21.5" height="23.75"/><path class="cls-29" d="M327.24,174.24v6.14q0,5.67-4.25,6.61a4.18,4.18,0,0,1-1.89.47q-4.73,1.42-7.08.94-6.15,1.89-5.67-3.78.46-17,.94-28.34v-5.67q-.47-12.75-.94-16.06-1-5.19,4.25-3.78a100,100,0,0,1,17,6.14h18.89v-6.61a73,73,0,0,1-.47-9q-.48-5.67-.95-10.39-1-2.83-.47-3.31c.31-.63,1.57-.94,3.78-.94a180.94,180.94,0,0,1,18.89,2.83q3.77,2.83.95,5.67-2.83,1.42-2.36,3.78v17.95h18.89q4.25-8.5,7.08-9,6.61,1,16.06,9,2.83,3.79,0,6.14c-1.58.94-2.21,2.05-1.89,3.31v6.14q-.48,18,.47,26,.47,4.73-4.25,6.61a69.5,69.5,0,0,1-8,2.36h-1.89q-5.67,1.42-5.2-4.25v-9H367.86v6.14q-.48,21.73.94,35,0,5.67-3.78,7.08a84.73,84.73,0,0,1-12.75,2.83q-6.14.94-5.2-6.14.47-8,.95-18.42,0-11.34.47-22.2v-4.25Zm0-30.7v26.92h21.26V140.7H330.07Q327.24,141.18,327.24,143.53Zm61.88,26.92V140.7H367.86v29.76Z"/><path class="cls-29" d="M505.78,146.37H490.19a2.18,2.18,0,0,1-1.42,2.36c-1.58.63-2.36,2.05-2.36,4.25q-1,4.25-1.42,8-.48,7.09-.95,9.92h30.7q6.61-10.38,8.5-10.86,3.77.48,13.7,9.92c1.25,1.58,1.89,2.83,1.89,3.78q-.48,1.42-2.83,1.42h-9a137.34,137.34,0,0,0-14.64-.47h-22.2q9.92,24.56,44.87,32.59,3.77,1,3.78,1.89c0,.63-1.11,1.42-3.31,2.36q-6.14,3.3-11.81,11.34-2.37,3.3-6.14,1.42-30.23-10.87-32.12-49.6h-1.89q-1.89,39.21-59,51c-1.89.31-3,.16-3.31-.47s.47-1.58,2.36-2.83q34-18.9,39.68-47.71H439.18a89.77,89.77,0,0,1-9,.47q-4.25.48-6.61.94c-1.26.32-2.05,0-2.36-.94a6,6,0,0,1-2.36-3.78c-.32-.63,0-.94.95-.94q2.83,1,23.14.47h20.78q.47-4.25.95-11.34,0-6.61.47-13.23H447.68q-9,.48-14.64.94c-1.26.63-2.05.47-2.36-.47a3,3,0,0,1-1.42-1.89c-.32-.63-.63-1.25-.94-1.89l-.47-.94c0-.31.63-.47,1.89-.47q10.38,1,20.31.94h33.54a159.18,159.18,0,0,0,8-32.59c0-1.89,1.42-2.67,4.25-2.36q12.28,3.79,19.37,6.14c1.25.94,1.89,1.89,1.89,2.83a2.23,2.23,0,0,1-1.89,2.36q-3.79,1-7.08,5.2a152.85,152.85,0,0,1-17.48,18.42h17.48q6.13-8.5,9-9.92,4.72,1.42,13.22,9.45a5.84,5.84,0,0,1,1.42,3.31,2.19,2.19,0,0,1-2.36,1.42h-7.56Q517.11,146.38,505.78,146.37Zm-50.07-15.59a43.79,43.79,0,0,0-8.5-16.53c-1.26-.63-1.89-1.25-1.89-1.89q.47-.94,2.83-1.42,17.47,1.42,25,9.92,6.61,12.29-4.72,17.95Q457.6,142.6,455.71,130.78Z"/><path class="cls-29" d="M580.88,157.7v19.37q-.48,23.15.94,37.31,0,7.08-4.72,8-5.2,1.42-10.86,2.36-7.56,1.88-5.67-9,0-12.28.47-22.67.46-11.34.94-14.64a93.94,93.94,0,0,1-19.37,19.37c-1.26.94-2.05,1.26-2.36.94q-.48-.94.94-2.83a183,183,0,0,0,17.48-54.32h-5.2l-6.61.94c-1.26.32-2.05,0-2.36-.94a4.88,4.88,0,0,1-1.89-3.31c-.63-.94-.32-1.25.95-.94a69.06,69.06,0,0,0,12.28.94H562v-6.61q0-6.13-.94-20.31-1-3.77,2.83-3.78A141.88,141.88,0,0,1,582.3,110a3.25,3.25,0,0,1,2.83,2.36c0,.94-.63,2.05-1.89,3.31q-2.83,1.89-2.36,4.72V135.5q3.77-5.19,5.67-5.67,4.72,1.89,11.81,9.45c-.32,0-.16.16.47.47H621v-8a190.29,190.29,0,0,0-1.42-19.37c-.63-1.57-.79-2.67-.47-3.31q.94-.94,3.78-.94a129.57,129.57,0,0,1,18.42,2.36q4.25,1.89.95,5.67-3.31,2.37-2.83,5.67v12.75q3.77-5.19,6.14-5.2,5.19,2.37,13.23,10.86c1.25,1.89.95,3-.94,3.31a122.06,122.06,0,0,1-18.42-.47v24.09q-.48,11.81.94,41.57.94,9.92-4.72,12.28c-1.26.31-1.73.47-1.42.47a50.36,50.36,0,0,1-10.86,3.78q-5.2.47-6.61-3.31-1.89-8-10.86-10.86-5.67-1.89-4.25-1.89c-.63-.94.78-1.25,4.25-.94q17,2.36,15.11-10.39v-22.2a12.25,12.25,0,0,1-7.56,5.2q-10.4,2.37-11.34-9.45a39.39,39.39,0,0,0-2.83-15.59,2.33,2.33,0,0,1-.47-2.36c.31-.31,1.25-.47,2.83-.47q14.64,3.31,18.42,10.86a1.34,1.34,0,0,0,.47.94c0,.63.15.94.47.94V143.06H602.61q-3.31.48-7.09.94c-.94.63-1.58.47-1.89-.47a3,3,0,0,1-1.42-1.89H580.88V154.4q12.75,2.37,17,7.56,4.72,8.5-1.42,14.17-10.39,5.67-12.28-4.72A58.64,58.64,0,0,0,580.88,157.7Z"/><path class="cls-29" d="M726.36,123.22v5.67q0,27.4,11.34,45.34a72.18,72.18,0,0,0,38.73,29.29q4.72,1.89,4.25,2.83c0,.32-.47.63-1.42.94a5.4,5.4,0,0,1-1.42.94q-10.4,4.25-14.17,11.34-2.37,5.67-7.08,1.42-33.07-18.42-32.12-70.38-3.31,57.16-61.4,70.85a1.32,1.32,0,0,1-1.89-.94c-.32-.63.16-1.26,1.42-1.89Q707.47,195,707.47,127q-.48-9-.94-12.28-1-2.36,0-3.31c.31-.31,1.57-.47,3.78-.47a120.76,120.76,0,0,1,17.95,3.31q2.36,1,2.36,2.83a2.62,2.62,0,0,1-2.36,2.83A2.68,2.68,0,0,0,726.36,123.22Z"/><path class="cls-29" d="M869,211.55H793.44c-3.15.31-5.2.47-6.14.47-1.58.31-2.52.16-2.83-.47a7.31,7.31,0,0,1-1.42-1.89,1.36,1.36,0,0,0-.94-.47c-.63-1.25-.32-1.89.94-1.89q2.83,1,10.39,1.42h37.79V127.48H808.08q-10.87.48-16.53.94c-1.58.32-2.36.16-2.36-.47-.32,0-.63-.31-.94-.94a5.87,5.87,0,0,1-1.42-2.83c-.63-.31-.95-.63-.95-.94a3.62,3.62,0,0,0,1.42-.47q16.05,1.42,25,1.42H870.9q5.67-9.92,9.92-11.81,4.72,1.89,13.7,11.34c.94,1.26,1.25,2.36.94,3.31-.32.63-1.11.94-2.36.94H880.35q-7.56-.47-19.37-.47H853.9a3,3,0,0,1-1.42,3.31q-1.42,1-1.42,4.25v73.69h24.56q6.61-10.38,9.92-11.34,5.19,1.89,14.64,10.86c.94.63,1.25,1.25.94,1.89a3,3,0,0,1-2.36,1.89Q894.52,211.55,869,211.55Z"/><path class="cls-29" d="M931.83,122.75h16.53q4.25-7.55,7.08-8,5.19,1.89,11.81,8,1.88,3.31-1.42,3.78H951.2a3.29,3.29,0,0,1-.95,3.31,2.68,2.68,0,0,0-1.89,3.31q-.48,5.2-.95,9h5.2q4.72-8.5,7.08-9,3.77,1,9.92,6.14v-5.2q-.48-7.55-.94-14.64-1-5.19,4.25-3.78A78,78,0,0,1,988,121.33h7.56q3.3-6.61,6.14-7.56,6.13,1,14.17,7.08,3.3,3.31,0,6.14a3.69,3.69,0,0,0-1.42,3.31v11.34q-.48,11.34.47,17,0,5.2-3.78,6.14a33.61,33.61,0,0,1-8.5,1.89q-5.67,1.89-5.2-2.83v-5.67H985.68v2.36q.46,3.31-4.25,4.72a31.1,31.1,0,0,1-7.56,1.89h-.47q-4.25.48-3.78-4.72v-17H946.47a32.42,32.42,0,0,0-1.42,4.25q12.28,1,17.95,5.67,5.67,7.56.94,13.7-9.45,6.14-13.23-2.83-2.37-9-7.09-13.7a34.13,34.13,0,0,1-13.23,15.11l.47.47c0,.32.16.32.47,0q8.5,1.42,16.06,3.31a4.34,4.34,0,0,1,2.36,2.36h33.54q3.77-6.61,6.14-7.08,7.09,1.42,16.53,8,2.83,3.31,0,5.67a3.39,3.39,0,0,0-1.89,3.31v19.84c.31,4.41.63,8.18.95,11.34q0,6.61-4.25,7.09l-5.67.94q-2.83.47-5.2.94-4.73.47-4.25-4.25V213H946.95v4.72a5.2,5.2,0,0,1-3.78,5.2c-1.58.31-3.31.63-5.2.94a19.72,19.72,0,0,0-4.72.47q-6.14.94-5.2-4.25.46-4.73.47-25v-8.5a60.17,60.17,0,0,0-.47-9.45V171.4a.93.93,0,0,1-.47-1.42q-8,4.73-20.31,7.56-2.37.48-2.83,0c-.32-.63,0-1.42.94-2.36q19.36-11.8,23.62-29.76H917.66q-6.62.48-10.39.94a1.32,1.32,0,0,1-1.89-.94c-.63,0-1.26-.63-1.89-1.89v-.94a3.56,3.56,0,0,1-.47-1.42h1.42a14,14,0,0,0,6.61.47q7.55-21.25,8-31.65,0-3.3,2.83-2.83a65.5,65.5,0,0,1,15.59,4.72q3.3,2.37-.47,4.72a3.69,3.69,0,0,0-3.31,3.31,5.52,5.52,0,0,1-.94,1.42C932.14,122,931.83,122.44,931.83,122.75Zm-12.75,19.37h10.86q.94-5.19,1.89-15.59h-2.36q-4.25,6.62-15.12,15.59Zm66.6,35.43H947.42a2.13,2.13,0,0,0-.47,2.36v11.81h38.73Zm-38.73,17.95v14.17h38.73V195.49Zm50.54-70.85h-9q-3.31,0-2.83,2.36v27.4h11.81Z"/><path class="cls-29" d="M1052.75,154.4h8q3.3-6.13,6.14-7.09,4.72.48,14.64,6.61,3.77,4.25.47,6.61-2.37,1.89-1.89,3.78v16.06a213,213,0,0,0,.47,25.51q1.42,16.05-13.7,19.37-6.14,1.42-6.61-2.36-1.42-7.56-9-9a1.36,1.36,0,0,1-.94-.47c-.32-.32-.47-.32-.47,0v3.31q.47,5.19-3.78,6.61a23.32,23.32,0,0,1-8.5,1.89Q1031,226.67,1032,221q1.42-17.48,1.89-36.84V166.21q-.48-6.61-.94-13.7-2.37.48-3.31-2.36a50.22,50.22,0,0,1-3.78-10.39c-.63-1.57,0-2.67,1.89-3.31a11.4,11.4,0,0,0,8-5.67,54.09,54.09,0,0,0,8-20.78q.47-3.77,4.72-2.83,6.13,1.42,15.12,4.25a3,3,0,0,1,1.89,2.83,2.23,2.23,0,0,1-2.36,1.89,8.64,8.64,0,0,0-3.78,2.83A81.07,81.07,0,0,1,1040,136.92h3.31q14.64-.94,25-1.89a37.81,37.81,0,0,0-7.08-9.92c-.94-.63-1.11-1.25-.47-1.89a3.85,3.85,0,0,1,2.83-.94q15.59,3.31,22.67,12.75,4.25,10.4-3.31,15.11-9,2.83-10.86-4.25a.42.42,0,0,1-.47-.47,10.39,10.39,0,0,1-.47-3.31q-20.79,4.25-30.23,7.56l2.83.94a46,46,0,0,1,6.61,1.89A5.2,5.2,0,0,1,1052.75,154.4Zm10.39,3.78h-12.28a4.6,4.6,0,0,0-.94,3.31v9.45h13.23Zm-13.23,16.53v12.75h13.23V174.71Zm13.23,30.23v-13.7h-13.23v18.89h2.36Q1064.08,211.07,1063.14,204.94Zm41.57-86v10.86A63.75,63.75,0,0,0,1117,113.78q1.42-3.3,5.67-.94,6.61,5.2,11.34,9.45a3.29,3.29,0,0,1,.94,3.31,2.29,2.29,0,0,1-2.83,1.42,10.93,10.93,0,0,0-3.78.94h-.94q-7.09,3.79-22.67,9v2.36q-.48,8.5,6.61,8h3.31q10.86,1,13.7-13.23c.31-2.2,1.1-3.31,2.36-3.31q1.88.48,1.42,3.31-.48,9.92,4.72,11.81,4.25,2.83,4.25,6.61a10,10,0,0,1-5.67,7.56,58.54,58.54,0,0,1-17.48,2.36h-14.64a8,8,0,0,1,1.89.47h1.42q3.77,2.37.94,5.67a3.39,3.39,0,0,0-1.89,3.31V185.1A77.61,77.61,0,0,0,1117.93,169q1.42-3.3,5.67-.94,3.3,2.37,11.81,9.92,2.36,4.25-1.89,4.72c-1.58.32-3.31.63-5.2.94q-7.09,3.79-22.67,9v7.56q-.48,9,7.09,8h5.2q9,0,12.75-16.53.47-3.3,2.36-3.78,1.42.48,1.89,3.78-.47,10.87,5.2,15.11c2.52,1.58,3.78,3.46,3.78,5.67q0,4.25-5.2,7.09-6.62,3.3-17.48,3.78h-16.06q-17,.47-16.53-17.95V178.49q-.48-6.61-.94-14.17-.48-3.77,3.78-3.78a15,15,0,0,1,2.36.47,3,3,0,0,0,2.36,0q-8.5-3.3-8-17.48V124.64q-.48-6.61-.95-14.17-1-3.77,3.78-3.31c0,.32.31.47.94.47a111.88,111.88,0,0,1,13.7,2.36q3.3,2.37.47,5.2C1105.18,115.83,1104.71,117.08,1104.71,119Z"/><path class="cls-29" d="M1177.92,150.15h8.5q4.72-6.61,6.14-6.14a35.9,35.9,0,0,1,15.59,10.39,2.71,2.71,0,0,1-1.42,3.31q-2.83,1.42-2.36,3.78v12.75q.46,13.23-16.06,16.06-5.2,1-5.67-2.36-.48-6.61-8-9.45V195q-.48,9.45,8,9H1185q14.64,1.89,17.48-14.17.94-4.25,2.36-3.31c.94,0,1.42,1.11,1.42,3.31q-.48,10.4,4.72,11.81,4.72,2.83,3.78,6.61-2.37,10.38-25,10.39h-11.34q-22.67,1.42-20.78-17.95v-39.2a99.43,99.43,0,0,1-9.45,7.56q-1.89,1.42-2.83.94c-.63-.63-.47-1.57.47-2.83Q1159,143.06,1167.53,110a2.13,2.13,0,0,1,2.83-1.89q9.92,2.37,18.89,4.72c1.25.63,1.89,1.42,1.89,2.36s-.63,1.73-1.89,2.36a21.24,21.24,0,0,0-3.78,3.78q16.05.48,23.14,8,4.25,6.14-.47,13.23-7.08,7.56-12.75-2.36a47.75,47.75,0,0,0-11.81-15.59,231.33,231.33,0,0,1-12.75,21.25,29.64,29.64,0,0,1,5.2,3.31Zm9.45,3.78H1176.5c-1.58.63-2.21,1.89-1.89,3.78v17.95h.47q13.69,2.37,12.28-7.08ZM1229.88,135v45.82q0,11.81-3.78,11.34a46.61,46.61,0,0,1-8.5,1.42h-2.83q-3.79,1-2.83-3.78.46-14.17.94-26.45V142.12q-.48-6.61-.94-14.64-1.42-4.25,3.31-4.25a145.4,145.4,0,0,1,16.06,2.83c1.57.63,2.36,1.42,2.36,2.36a3,3,0,0,1-1.89,2.83A3.37,3.37,0,0,0,1229.88,135Zm7.56,60.93V132.2a162.49,162.49,0,0,0-1.42-17.48v-1.89q-1.42-4.72,3.31-4.25,8.5,1,17,2.36c1.57.63,2.52,1.42,2.83,2.36s-.16,1.89-1.42,2.83q-3.31,2.83-2.83,6.14v42.51q-.48,3.31,1.42,42.51,0,9.44-4.25,12.28a46.32,46.32,0,0,1-13.23,5.2q-5.67,1.42-6.61-3.31-1.89-9.45-10.86-10.86c-3.15-.94-4.41-1.73-3.78-2.36q.46-1.42,4.25-1.42Q1239.79,209.2,1237.43,196Z"/><path class="cls-29" d="M1348.43,132.67v24.56H1364q5.67-9,8-9.45,5.67,1.89,12.75,9.45c.63,2.52.16,3.78-1.42,3.78h-12.75v30.23q0,10.4.94,25.51.94,5.67-3.78,7.08-5.2.94-11.34,1.89-4.25,0-3.78-5.2.47-14.17.94-35V161h-5.2q-.48,30.23-8,41.57-6.62,11.34-30.23,21.26-2.37.94-2.83,0-1-.48.95-1.89,12.75-11.81,17-19.37a1.36,1.36,0,0,1-.94.47c0,.32-.32.79-.95,1.42q-9.92,4.73-11.81-6.14-.48-6.13-4.72-14.64v8a40.08,40.08,0,0,0,0,9q.46,6.62.47,8.5.47,9-5.2,11.81a29.8,29.8,0,0,1-10.86,3.78q-7.08,1.88-7.09-2.83-1-7.56-8-9c-1.89-.63-2.68-1.42-2.36-2.36.31-.63,1.57-.94,3.78-.94q14.64.94,12.28-6.61V188.88a3,3,0,0,0-1.89,2.36q-8.5,17.48-19.84,24.56c-1.26.63-2.05.78-2.36.47s-.16-1.11.47-2.36a92.51,92.51,0,0,0,5.67-19.37q.46-2.83.94-6.14a46.4,46.4,0,0,1,.47-6.61q-.48-2.83,3.78-1.89,3.3.48,12.75,2.83v-5.67h-11.34q-3.31.48-7.08.94a1.91,1.91,0,0,1-2.36-.94,3,3,0,0,1-1.42-1.42c-.32-.63-.63-1.25-.95-1.89-.63-.31-.79-.63-.47-.94l1.42-.47q3.77,1.42,13.23.94h9v-13.7h-11.34q-3.31.48-7.08.94a1.91,1.91,0,0,1-2.36-.94,3,3,0,0,1-1.42-1.42c-.32-.63-.63-1.25-.95-1.89-.94-.94-.63-1.25.95-.94q3.77,1,13.23.47h5.2q-4.25-.94-4.25-6.61a31.91,31.91,0,0,0-3.78-14.17c-.63-.94-.79-1.57-.47-1.89a3.75,3.75,0,0,1,2.36-.47q14.64,3.79,17.48,12.75.94,9-7.09,10.39h9q3.77-9.44,5.2-24.09h-23.62q-3.31.48-7.09.94c-1.26.63-2.05.47-2.36-.47a3,3,0,0,1-1.42-1.89,7.05,7.05,0,0,1-1.42-1.89c-.63-.94-.32-1.25.94-.94q2.36.48,6.61.94h17q-3.79-.94-4.25-6.61a26.49,26.49,0,0,0-4.25-11.81c-.94-.63-1.26-1.1-.94-1.42,0-.31.63-.63,1.89-.94q16.05,1,20.31,8.5,1.88,9.45-6.14,11.81l-.95.47h9q4.72-9.92,7.08-10.86,4.25,1.42,16.06,10.86-1.42-4.72-.94-5.67-1-2.36,0-3.31c.31-.63,1.42-.78,3.31-.47q9,2.83,15.59,5.67a1.5,1.5,0,0,0,1.42.94,107.05,107.05,0,0,0,17.48-12.28c.94-1.25,2.2-1.42,3.78-.47A101.34,101.34,0,0,1,1382,124.17a15.22,15.22,0,0,1,1.89,1.42q1.42,5.2-3.31,4.25-2.37-.46-7.56-.94a82.36,82.36,0,0,1-12.28,1.89,79.23,79.23,0,0,1-12.28,0Zm-19.84-.94h-14.17a43,43,0,0,0,5.67,2.36,7.53,7.53,0,0,0,3.31.94,4.11,4.11,0,0,1,1.89,3.31c0,.94-.63,1.42-1.89,1.42q-3.79.48-5.2,2.36-7.09,9.45-12.28,13.7h4.72q4.25-9,7.56-9.45,4.25,1.89,13.23,9V144c0-1.57-.16-3.93-.47-7.08v-6.61A2.78,2.78,0,0,1,1328.6,131.73Zm.94,27.87h-20.78c.31,1.26,0,2.05-.94,2.36-.63.32-.94,1.58-.94,3.78v7.56h3.78q4.25-9,7.56-9.45,5.67,2.37,12.75,9v-5.2a52.61,52.61,0,0,0,.47-8Zm0,17.48h-22.67v2.83h.47q12.28,2.37,18.89,9.92a20,20,0,0,1,1.89,6.14,122.27,122.27,0,0,0,2.83-18.89Z"/><path class="cls-29" d="M1419.76,150.15h8.5q4.72-6.61,6.14-6.14A35.9,35.9,0,0,1,1450,154.4a2.71,2.71,0,0,1-1.42,3.31q-2.83,1.42-2.36,3.78v12.75q.46,13.23-16.06,16.06-5.2,1-5.67-2.36-.48-6.61-8-9.45V195q-.48,9.45,8,9h2.36q14.64,1.89,17.48-14.17.94-4.25,2.36-3.31c.94,0,1.42,1.11,1.42,3.31q-.48,10.4,4.72,11.81,4.72,2.83,3.78,6.61-2.37,10.38-25,10.39h-11.34q-22.67,1.42-20.78-17.95v-39.2A99.43,99.43,0,0,1,1390,169q-1.89,1.42-2.83.94c-.63-.63-.47-1.57.47-2.83q13.22-24.09,21.73-57.15a2.13,2.13,0,0,1,2.83-1.89q9.92,2.37,18.89,4.72c1.25.63,1.89,1.42,1.89,2.36s-.63,1.73-1.89,2.36a21.24,21.24,0,0,0-3.78,3.78q16.05.48,23.14,8,4.25,6.14-.47,13.23-7.08,7.56-12.75-2.36a47.75,47.75,0,0,0-11.81-15.59,231.33,231.33,0,0,1-12.75,21.25,29.64,29.64,0,0,1,5.2,3.31Zm9.45,3.78h-10.86c-1.58.63-2.21,1.89-1.89,3.78v17.95h.47q13.69,2.37,12.28-7.08ZM1471.71,135v45.82q0,11.81-3.78,11.34a46.61,46.61,0,0,1-8.5,1.42h-2.83q-3.79,1-2.83-3.78.46-14.17.94-26.45V142.12q-.48-6.61-.94-14.64-1.42-4.25,3.31-4.25a145.4,145.4,0,0,1,16.06,2.83c1.57.63,2.36,1.42,2.36,2.36a3,3,0,0,1-1.89,2.83A3.37,3.37,0,0,0,1471.71,135Zm7.56,60.93V132.2a162.49,162.49,0,0,0-1.42-17.48v-1.89q-1.42-4.72,3.31-4.25,8.5,1,17,2.36c1.57.63,2.52,1.42,2.83,2.36s-.16,1.89-1.42,2.83q-3.31,2.83-2.83,6.14v42.51q-.48,3.31,1.42,42.51,0,9.44-4.25,12.28a46.32,46.32,0,0,1-13.23,5.2q-5.67,1.42-6.61-3.31-1.89-9.45-10.86-10.86c-3.15-.94-4.41-1.73-3.78-2.36q.46-1.42,4.25-1.42Q1481.63,209.2,1479.27,196Z"/><path class="cls-29" d="M1542.57,170.46V134.09q-.48-5.67-.47-10.86-.48-5.19-.94-8.5-1.42-5.19,3.78-4.25a155.22,155.22,0,0,1,17.48,2.83q5.19,2.37,1.89,5.67-3.79,1.89-3.31,3.78v87.85h9v-76q-.48-10.38-.94-19.37-1-2.83-.47-3.31c.63-.63,1.89-.94,3.78-.94q11.34,1.42,17.48,2.83,5.19,2.37,1.89,5.67-2.83,1.89-2.83,3.78V187a295.76,295.76,0,0,0,9.45-48.65q-.47-3.3,3.31-2.36a93.21,93.21,0,0,1,19.37,8.5,4.11,4.11,0,0,1,1.89,3.31,2.24,2.24,0,0,1-2.36,1.89,4.54,4.54,0,0,0-4.25,2.83Q1605.86,178,1588.86,196v14.64h8.5q8.5-10.86,10.86-10.86,5.67.48,16.53,10.39,2.36,4.25-1.89,5.2-22.67-1-35-.94h-58.1q-4.25,0-9.92.47a36.72,36.72,0,0,0-8,1.42,2.77,2.77,0,0,1-2.36-1.42,48.53,48.53,0,0,0-2.83-4.25,3.63,3.63,0,0,1-.47-1.42h1.42q6.61.94,26,1.42h9V186q-3.31,6.62-9.45,7.08-9.45,1-9.45-13.7a110.16,110.16,0,0,0-6.14-39.2,2.33,2.33,0,0,1-.47-2.36c.63-.31,1.57-.15,2.83.47Q1537.36,151.57,1542.57,170.46Z"/><path class="cls-29" d="M1704.11,218.64H1656.4a150.29,150.29,0,0,0-17,1.42h-.95a1.51,1.51,0,0,1-1.42-.94,18.47,18.47,0,0,1-2.36-4.25c-.63-.94-.79-1.42-.47-1.42q0-.48,1.42,0,6.13.94,25,1.42h16.06V198.8h-10.86q-4.73.48-8,.94-1.89,1-2.36-.94c-.32,0-.63-.31-.94-.94a17.15,17.15,0,0,1-.94-2.36c-.63,0-.79-.16-.47-.47a138,138,0,0,1-21.73,9.92q-2.37,1-2.83,0c0-.63.63-1.57,1.89-2.83q11.8-8.5,24.56-28.81h-3.31q-4.73.48-10.39.47-5.2.48-8,.94a.42.42,0,0,0-.47.47c-.94,0-1.58-.63-1.89-1.89-.63-.94-1.42-2.2-2.36-3.78l-.47-.94c0-.31.47-.47,1.42-.47q2.36,1,9.92,1.42h16.53V128.42h-7.56q-5.2.48-11.34.94-.48,1-2.36-.94c-.32,0-.63-.31-.95-.94a5,5,0,0,1-.94-2.83c-1.26-.94-1.11-1.25.47-.94q2.83.48,9,.94h13.7a4.14,4.14,0,0,1-.47-1.89q-1-7.55-1.42-10.39-1.42-4.72,3.78-4.25c0,.32.47.47,1.42.47q6.13.48,15.59,1.42,3.77,2.37.47,5.67a4,4,0,0,0-1.42,4.25v4.72h25a50.53,50.53,0,0,0-.94-11.34q-1-4.72,3.78-4.25,3.3.48,10.86,1.89a38.54,38.54,0,0,0,5.2.47q4.25,2.37.95,5.67a4,4,0,0,0-1.42,4.25v3.31h2.36q5.67-9,9.45-9.92,5.19,1.42,13.7,10.39,1.88,3.31-1.42,3.78h-11.34q-4.73-.47-12.75-.47v41.09h3.78q6.13-9.92,9.92-10.39,6.13,1.89,15.12,10.39c.94,1.26,1.25,2.36.94,3.31s-1.11,1.26-2.36.94h-14.64q-6.62-.47-19.37-.47h-3.78q13.22,10.39,35.43,13.23a8.37,8.37,0,0,1,3.31.94,4.58,4.58,0,0,1-1.89,2.83,21.88,21.88,0,0,0-8,10.86q-1.42,3.79-3.78,2.36a107,107,0,0,1-12.28-6.61c0,1.26-.47,1.89-1.42,1.89h-23.14v16.06h20.31q5.67-8,9.45-9,5.19,1.42,13.22,9,2.36,3.77-1.42,4.72A283.18,283.18,0,0,0,1704.11,218.64Zm-36.37-23.14h9v-2.36a35.42,35.42,0,0,1-.47-6.61c-.32-2.2-.63-4.25-.94-6.14v-2.83c-.63,0-1.26.47-1.89,1.42a99.36,99.36,0,0,1-18.89,15.11,3.71,3.71,0,0,0,2.36.47Q1665.38,196,1667.74,195.49Zm31.65-55.74V128.42h-25.51v11.34Zm-25.51,3.31V154.4h25.51V143.06Zm0,15.11v11.34h25.51V158.18Zm21.25,29.29v8H1698q3.77-6.61,7.09-8.5a32.23,32.23,0,0,1,5.67,2.36,41.76,41.76,0,0,1-9.92-16.06H1680c.31,1.26.15,2.05-.47,2.36q7.09,1,16.53,2.36,3.78,1.89.47,5.67C1695.6,184.32,1695.13,185.57,1695.13,187.46Z"/><path class="cls-29" d="M1764.57,197.85v-44.4h-3.31q-3.79.48-7.09.94-1.89.48-2.36-.94a5.14,5.14,0,0,1-.94-1.42,2.69,2.69,0,0,1-.94-1.89c-.32-.63,0-.94.94-.94a80,80,0,0,0,12.28.94h1.42V133.62q-.48-6.13-.47-11.81a59.76,59.76,0,0,0-.94-7.56q-1-2.83,0-3.31.46-.94,3.78-.94,4.72,0,16.06,2.83,4.25,2.83.94,5.2-3.31,1.89-2.83,4.72v27.4h.47q2.83-7.08,6.14-8.5,3.3,1,9.45,5.67v-7.08q-.48-9.44-.94-16.06-.48-3.3,3.78-2.83a110.47,110.47,0,0,1,14.17,3.78q4.72,2.37.95,5.67a3.68,3.68,0,0,0-1.42,3.31V152l5.2-1.89V131.73q-.48-4.72-.94-10.39-.48-6.13-.95-9.45-1.42-4.25,3.78-4.25,5.67,1,15.11,3.31c1.57.63,2.36,1.42,2.36,2.36q.46,1.42-1.42,2.83-2.37,2.37-1.89,4.72V144l4.72-1.89q3.3-5.67,6.14-7.56,5.19,1,16.53,8.5,2.36,2.83-1.42,4.72a4.63,4.63,0,0,0-2.36,4.25v3.78q-.48,3.79.94,18.89c0,1.58.16,2.52.47,2.83q.46,7.08-3.31,9.92a22.17,22.17,0,0,1-12.28,5.67q-5.2,1.42-5.67-2.36a11.48,11.48,0,0,0-3.78-8v10.39q.46,5.67-4.25,7.08a17.13,17.13,0,0,1-5.2,1.42h-1.89q-7.09,1.89-5.67-5.67v-3.78q.94-11.8.94-27.4V153.45l-5.2,2.36V203q-.48,4.73,5.67,4.25h27.4q4.25,1.89,11.34-18.42.94-4.25,2.83-3.31c.95,0,1.25,1.11.95,3.31q-1.42,12.29,3.78,16.06,3.77,3.79,3.78,6.61-1,5.67-5.2,7.56a40.73,40.73,0,0,1-16.06,2.83h-37.31q-15.12.94-13.7-13.7V193.13q-12.29,9.45-32.12,21.73c-1.89.94-3,1.73-3.31,2.36-.95,1.25-1.89,1.89-2.83,1.89s-1.73-.63-2.36-1.89a82.23,82.23,0,0,1-6.61-12.28q-1-3.3,2.83-3.78c.94-.31,2-.63,3.31-.94Q1761.73,198.8,1764.57,197.85Zm32.59-9.45V162a63.18,63.18,0,0,1-6.61,3.31l-2.83,1.42a1.18,1.18,0,0,1-1.89,0,10.18,10.18,0,0,1-3.31-2.83c-.63-.31-.79-.63-.47-.94,0-.31.47-.63,1.42-.94q4.25-.47,13.7-4.25v-4.25H1781.1v39.68a74.44,74.44,0,0,0,9-2.36Q1794.79,189.35,1797.16,188.41ZM1842,145l-7.08,2.83v29.28q7.55,1.42,7.08-4.72Z"/><path class="cls-29" d="M331.65,274.21l-.2,13.3H304.66V285l18-29.53h-3.32q-10.76.39-11.34,9.58h-2.15l.39-11.93h25.23v3.52L314,285.16q14.08.78,15.45-11Z"/><path class="cls-29" d="M354,287.51V269.32q0-3.32-2.15-3.32-3.92,1-4.11,7.63v8.61q-.39,3.72,3.32,3.32v2H336.39v-2q4.5.39,4.11-3.32V258q.19-2.74-3.72-2.54v-2l11-.2v13.3a8.15,8.15,0,0,1,6.26-3.13q7.23.2,7.43,7v11.73q-.39,3.72,3.33,3.32v2Z"/><path class="cls-29" d="M395.51,275.77q-1.37,11.54-13.1,11.93-11.93-.39-13.1-11.93,1.17-11.54,13.1-12.32Q394.14,264.43,395.51,275.77Zm-8.41,0q-.2-10.36-4.69-10.56-4.69.2-4.69,10.56t4.69,10.56Q386.9,286.14,387.1,275.77Z"/><path class="cls-29" d="M414.92,287.51H400.05v-2q3.91.39,3.72-3.32V269.32q.19-3.52-3.72-3.32v-1.76l10.56-.2v3.52q3.52-4.11,7.82-4.11,6.65.2,6.84,7.24v11.54q-.39,3.72,3.52,3.32v2H418V268.93q-.2-2.93-2.15-2.93-4.31.78-4.89,8v8.21q-.59,3.72,3.91,3.32Z"/><path class="cls-29" d="M453.1,262.67h-.2q-1.37.39-1.37,2.54a7.64,7.64,0,0,1,3.33,6.26q-.59,7.24-10.56,7.63a15.39,15.39,0,0,1-2.54-.2,5.49,5.49,0,0,0-1.17-.2q-2,.2-2,1-.2,1.37,5.67,1.56,12.91.59,12.91,6.45-1,7.43-12.71,8.21-11.54-.39-12.13-6.26.39-3.13,6.45-3.91a14.16,14.16,0,0,0-1.56-.39q-3.52-1-3.33-3.91-.2-2,4.3-3.91-4.3-2.15-4.3-6.06.39-7.23,10.56-8a29.56,29.56,0,0,1,4.89.78,4.75,4.75,0,0,1,4.69-3.91q3.91.2,4.11,3.32-.2,2.54-2.93,2.54-2.35,0-2.35-2.15A1.63,1.63,0,0,1,453.1,262.67Zm-2.54,27.77q0-3.33-7.24-3.32-5.48,0-5.28,2.74.19,3.71,6.65,3.91Q450.16,293.37,450.56,290.44Zm-6.06-25q-3.91,0-3.72,5.87-.2,6.26,3.72,6.06,3.32,0,3.52-6.06Q448,265.4,444.5,265.4Z"/><path class="cls-29" d="M481.9,262.67h-.2q-1.37.39-1.37,2.54a7.64,7.64,0,0,1,3.33,6.26q-.59,7.24-10.56,7.63a15.39,15.39,0,0,1-2.54-.2,5.49,5.49,0,0,0-1.17-.2q-2,.2-2,1-.2,1.37,5.67,1.56,12.91.59,12.91,6.45-1,7.43-12.71,8.21-11.54-.39-12.13-6.26.39-3.13,6.45-3.91a14.16,14.16,0,0,0-1.56-.39q-3.52-1-3.33-3.91-.2-2,4.3-3.91-4.3-2.15-4.3-6.06.39-7.23,10.56-8a29.57,29.57,0,0,1,4.89.78,4.75,4.75,0,0,1,4.69-3.91q3.91.2,4.11,3.32-.2,2.54-2.93,2.54-2.35,0-2.35-2.15A1.63,1.63,0,0,1,481.9,262.67Zm-2.54,27.77q0-3.33-7.24-3.32-5.48,0-5.28,2.74.19,3.71,6.65,3.91Q479,293.37,479.36,290.44Zm-6.06-25q-3.91,0-3.72,5.87-.2,6.26,3.72,6.06,3.32,0,3.52-6.06Q476.81,265.4,473.29,265.4Z"/><path class="cls-29" d="M500.92,264v17.41q0,3.91,2.74,3.91,4.11-.19,4.5-5.87V269.32q.39-3.52-4.11-3.32v-1.76l11.34-.2v18.19q-.59,3.72,3.91,3.32v1.76l-10.76.2v-2.74a9.51,9.51,0,0,1-7.43,2.93q-7.63,0-7.43-7V269.32q.19-3.52-3.52-3.32v-1.76Z"/><path class="cls-29" d="M544.38,270.29v11.54q-.2,2.93,1.56,2.93,1.37.2,1.76-3.52h1.76v1q-.39,5.28-6.26,5.48-3.92,0-5.28-2.93a9.44,9.44,0,0,1-7.24,2.93q-7.83-.2-7.82-5.48,0-5.47,12.32-9a6.83,6.83,0,0,0,1.76-.59V269.9q0-4.3-4.5-4.3a11.33,11.33,0,0,0-3.32.78v.2a3.32,3.32,0,0,1,2.74,3.33,3.42,3.42,0,0,1-3.52,3.32q-3.72,0-3.72-3.72.59-5.67,10.37-6.06Q544.39,263.45,544.38,270.29ZM537,280.66V275q-6.26,2.15-6.45,6.65,0,3.72,3.13,3.72T537,280.66Z"/><path class="cls-29" d="M567.32,287.51H552.45v-2q3.91.39,3.72-3.32V269.32q.19-3.52-3.72-3.32v-1.76L563,264v3.52q3.52-4.11,7.82-4.11,6.65.2,6.84,7.24v11.54q-.39,3.72,3.52,3.32v2H570.45V268.93q-.2-2.93-2.15-2.93-4.31.78-4.89,8v8.21q-.59,3.72,3.91,3.32Z"/><path class="cls-29" d="M606.09,281.44l1.37,1.17a10.89,10.89,0,0,1-9.39,5.09q-11.73-.59-12.52-11.93.59-11.34,13.1-12.32,8,.39,8.61,5.87-.39,3.91-3.91,4.11-3.52,0-3.72-3.52,0-2.93,3.33-3.52a6.18,6.18,0,0,0-3.33-1q-6.06.39-6.06,10.17,0,10.17,6.26,10.17Q602.57,285.75,606.09,281.44Z"/><path class="cls-29" d="M622.76,264v17.41q0,3.91,2.74,3.91,4.11-.19,4.5-5.87V269.32q.39-3.52-4.11-3.32v-1.76l11.34-.2v18.19q-.59,3.72,3.91,3.32v1.76l-10.76.2v-2.74A9.51,9.51,0,0,1,623,287.7q-7.63,0-7.43-7V269.32q.19-3.52-3.52-3.32v-1.76Z"/><path class="cls-29" d="M659.38,287.51H644.52v-2q3.91.39,3.72-3.32V269.32q.19-3.52-3.72-3.32v-1.76l10.56-.2v3.52q3.52-4.11,7.82-4.11,6.65.2,6.84,7.24v11.54q-.39,3.72,3.52,3.32v2H662.51V268.93q-.2-2.93-2.15-2.93-4.31.78-4.89,8v8.21q-.59,3.72,3.91,3.32Z"/><path class="cls-29" d="M697.81,282.23V258.36q.19-3.52-4.69-3.32v-2h17.8q11.93.39,12.52,8.61-.2,6.45-7.82,7.43,9.58,1.76,9.78,8.61-.78,9.59-12.71,9.78H693.12v-2Q698,285.94,697.81,282.23Zm8-11.73v11q-.2,3.91,3.52,3.72,7.23,0,7.43-6.65-.2-7.82-7.43-8Zm0-11.74v9.58h1.56q7.43,0,7.43-6.26-.2-6.45-5.67-6.65Q705.83,255.63,705.83,258.75Z"/><path class="cls-29" d="M752.23,270.29v11.54q-.2,2.93,1.56,2.93,1.37.2,1.76-3.52h1.76v1q-.39,5.28-6.26,5.48-3.92,0-5.28-2.93a9.44,9.44,0,0,1-7.24,2.93q-7.83-.2-7.82-5.48,0-5.47,12.32-9a6.83,6.83,0,0,0,1.76-.59V269.9q0-4.3-4.5-4.3a11.33,11.33,0,0,0-3.32.78v.2a3.32,3.32,0,0,1,2.74,3.33,3.42,3.42,0,0,1-3.52,3.32q-3.72,0-3.72-3.72.59-5.67,10.37-6.06Q752.23,263.45,752.23,270.29Zm-7.43,10.37V275q-6.26,2.15-6.45,6.65,0,3.72,3.13,3.72T744.8,280.66Z"/><path class="cls-29" d="M761.08,287.51V278.9h1.76q2.35,7,8.21,7.24,4.3-.19,4.89-3.13,0-2.54-6.26-3.72-8.8-1.76-8.8-7.82.59-7.23,9.78-8a11.2,11.2,0,0,1,4.89,1.37,4.4,4.4,0,0,0,1.37.39c.26,0,.52-.2.78-.59a2.28,2.28,0,0,0,.39-.59h2v7.63h-2q-2.54-6.26-7.43-6.26-3.72.39-3.91,3.33,0,2.15,5.48,3.32,9.58,1.76,9.58,7.82-.59,7.44-10.17,7.82a21.44,21.44,0,0,1-6.46-1,3.51,3.51,0,0,0-1-.39,1.75,1.75,0,0,0-1.17,1.17Z"/><path class="cls-29" d="M811,275.77H795.16q0,10,6.45,10,3.91,0,7.63-4.89l1.56,1q-3.13,5.87-10.56,5.87-11.93-.39-13.1-11.93,1.17-11.54,13.1-12.32Q810.41,264.23,811,275.77Zm-15.84-2.15H803q0-8.6-3.52-8.41Q795.54,265.41,795.16,273.62Z"/><path class="cls-29" d="M850.4,264v2.15h-6.26v16q-.78,3.72,5.09,3.32v2h-17v-2q5.08.39,4.5-3.32v-16h-4.5V264h4.5v-1.37q0-8.8,10.37-9.19,7.43.2,7.82,4.5-.2,3.33-3.72,3.32-3.52-.19-3.52-3.13a3.13,3.13,0,0,1,1.56-2.54h-.39a1.56,1.56,0,0,0-.59-.2q-4.5-.19-4.11,4.89V264Z"/><path class="cls-29" d="M880.77,275.77q-1.37,11.54-13.1,11.93-11.93-.39-13.1-11.93,1.17-11.54,13.1-12.32Q879.4,264.43,880.77,275.77Zm-8.41,0q-.2-10.36-4.69-10.56-4.69.2-4.69,10.56t4.69,10.56Q872.16,286.14,872.36,275.77Z"/><path class="cls-29" d="M900.76,287.51H885.12v-2q4.11.39,3.91-3.32V269.32q.19-3.52-3.91-3.32v-1.76l10.56-.2v5.28h.2q2.35-5.67,6.65-5.87,4.3.39,4.69,4.3-.4,3.72-3.52,3.91-3.33,0-3.52-3.72c-.13-.13-.13-.39,0-.78a3.28,3.28,0,0,0,.2-1q-4.31,3.33-4.3,14.67-.78,5.48,4.69,4.69Z"/><path class="cls-29" d="M939.39,287.51H925.7v-2q4.11-.39,6.26-6.45l11.15-26.6h2.54l12.91,29.73q1,3.33,4.69,3.32v2h-18v-2h2q3.13.2,2.93-1.76a4.54,4.54,0,0,0-.39-1.37v-.59l-2.54-5.67h-11l-1.56,3.91a5,5,0,0,0-.78,3.13q0,2.35,2.93,2.35h2.54ZM946,273.42l-4.5-10.56-4.3,10.56Z"/><path class="cls-29" d="M984.42,287.51H966.23v-2q5.08.39,4.89-3.32V258.36q.19-3.52-4.89-3.32v-2h18.19v2q-5.28-.19-4.89,3.32v23.86q-.39,3.72,4.89,3.32Z"/><path class="cls-29" d="M1024,287.51h-18.19v-2q5.08.39,4.89-3.32V258.36q.19-3.52-4.89-3.32v-2H1024v2q-5.28-.19-4.89,3.32v23.86q-.39,3.72,4.89,3.32Z"/><path class="cls-29" d="M1043.43,287.51h-14.87v-2q3.91.39,3.72-3.32V269.32q.19-3.52-3.72-3.32v-1.76l10.56-.2v3.52q3.52-4.11,7.82-4.11,6.65.2,6.84,7.24v11.54q-.39,3.72,3.52,3.32v2h-10.76V268.93q-.2-2.93-2.15-2.93-4.31.78-4.89,8v8.21q-.59,3.72,3.91,3.32Z"/><path class="cls-29" d="M1075.94,287.51h-14.87v-2q3.91.39,3.72-3.32V269.32q.19-3.52-3.72-3.32v-1.76l10.56-.2v3.52q3.52-4.11,7.82-4.11,6.65.2,6.84,7.24v11.54q-.39,3.72,3.52,3.32v2h-10.76V268.93q-.2-2.93-2.15-2.93-4.31.78-4.89,8v8.21q-.59,3.72,3.91,3.32Z"/><path class="cls-29" d="M1120.58,275.77q-1.37,11.54-13.1,11.93-11.93-.39-13.1-11.93,1.17-11.54,13.1-12.32Q1119.21,264.43,1120.58,275.77Zm-8.41,0q-.2-10.36-4.69-10.56-4.69.2-4.69,10.56t4.69,10.56Q1112,286.14,1112.17,275.77Z"/><path class="cls-29" d="M1124.15,264h14.28v2q-3.52,0-3.32,1.56a25,25,0,0,0,1.56,4.5q1.76,4.5,3.52,8.41h.2q6.06-14.27,5.08-12.91.19-1.56-3.52-1.56v-2h9.78v2q-3.13-.19-4.11,3.13l-7.82,18.38h-4.11l-8.21-19a3.28,3.28,0,0,0-3.33-2.54Z"/><path class="cls-29" d="M1175.64,270.29v11.54q-.2,2.93,1.56,2.93,1.37.2,1.76-3.52h1.76v1q-.39,5.28-6.26,5.48-3.92,0-5.28-2.93a9.44,9.44,0,0,1-7.24,2.93q-7.83-.2-7.82-5.48,0-5.47,12.32-9a6.83,6.83,0,0,0,1.76-.59V269.9q0-4.3-4.5-4.3a11.33,11.33,0,0,0-3.32.78v.2a3.32,3.32,0,0,1,2.74,3.33,3.42,3.42,0,0,1-3.52,3.32q-3.72,0-3.72-3.72.59-5.67,10.37-6.06Q1175.64,263.45,1175.64,270.29Zm-7.43,10.37V275q-6.26,2.15-6.45,6.65,0,3.72,3.13,3.72T1168.21,280.66Z"/><path class="cls-29" d="M1194.85,256.21V264h8v2.15h-8v15.26q-.2,4.3,2.93,4.11,3.32.2,3.33-6.06h2.35q.19,8.8-8.21,8.21-7.63-.2-7.63-6.26V266.19h-4.11v-1.76a11.66,11.66,0,0,0,9.19-8.21Z"/><path class="cls-29" d="M1222.08,287.51h-15.26v-2q4.5.39,4.11-3.32V269.32q.39-3.52-4.11-3.32v-1.76l11.34-.2v18.19q-.39,3.72,3.91,3.32ZM1210,256.6q.19-3.71,4.11-4.11a4.18,4.18,0,0,1,4.11,4.11q-.39,3.91-4.11,4.11Q1210.15,260.52,1210,256.6Z"/><path class="cls-29" d="M1252.64,275.77q-1.37,11.54-13.1,11.93-11.93-.39-13.1-11.93,1.17-11.54,13.1-12.32Q1251.27,264.43,1252.64,275.77Zm-8.41,0q-.2-10.36-4.69-10.56-4.69.2-4.69,10.56t4.69,10.56Q1244,286.14,1244.23,275.77Z"/><path class="cls-29" d="M1272.05,287.51h-14.87v-2q3.91.39,3.72-3.32V269.32q.19-3.52-3.72-3.32v-1.76l10.56-.2v3.52q3.52-4.11,7.82-4.11,6.65.2,6.84,7.24v11.54q-.39,3.72,3.52,3.32v2h-10.76V268.93Q1275,266,1273,266q-4.31.78-4.89,8v8.21q-.59,3.72,3.91,3.32Z"/><path class="cls-29" d="M1327.69,270.29v11.54q-.2,2.93,1.56,2.93,1.37.2,1.76-3.52h1.76v1q-.39,5.28-6.26,5.48-3.92,0-5.28-2.93a9.44,9.44,0,0,1-7.24,2.93q-7.83-.2-7.82-5.48,0-5.47,12.32-9a6.83,6.83,0,0,0,1.76-.59V269.9q0-4.3-4.5-4.3a11.33,11.33,0,0,0-3.32.78v.2a3.32,3.32,0,0,1,2.74,3.33,3.42,3.42,0,0,1-3.52,3.32q-3.72,0-3.72-3.72.59-5.67,10.37-6.06Q1327.69,263.45,1327.69,270.29Zm-7.43,10.37V275q-6.26,2.15-6.45,6.65,0,3.72,3.13,3.72T1320.26,280.66Z"/><path class="cls-29" d="M1350.62,287.51h-14.87v-2q3.91.39,3.72-3.32V269.32q.19-3.52-3.72-3.32v-1.76l10.56-.2v3.52q3.52-4.11,7.82-4.11,6.65.2,6.84,7.24v11.54q-.39,3.72,3.52,3.32v2h-10.76V268.93q-.2-2.93-2.15-2.93-4.31.78-4.89,8v8.21q-.59,3.72,3.91,3.32Z"/><path class="cls-29" d="M1392.52,253.28v29.14q-.39,3.72,3.33,3.32v1.76h-10.37v-2.15a7.64,7.64,0,0,1-6.06,2.35q-10-.59-10.56-12.13.78-11,10.76-12.13a8.9,8.9,0,0,1,5.67,2.15v-6.85q.19-3.52-3.91-3.32v-2Zm-15.65,21.91q-.2,10.76,3.91,10.56,4.3-.19,4.5-9.58-.2-10.36-4.3-10.56Q1376.68,265.6,1376.88,275.18Z"/><path class="cls-29" d="M1447,253.08l.39,12.32h-2.15q-2.74-9.78-11.74-10-4.5-.19-4.11,3.13v9.78q6.45.59,7.82-5.87h2v13.89h-2q-1.37-6.26-7.82-5.87V282q-.39,3.52,4.11,3.13,9.58-.19,12.52-10.76h2.15l-.39,13.1h-31.68v-2q5.08.39,4.89-3.32V258.36q.19-3.52-4.89-3.32v-2Z"/><path class="cls-29" d="M1468.94,287.51h-14.87v-2q3.91.39,3.72-3.32V269.32q.19-3.52-3.72-3.32v-1.76l10.56-.2v3.52q3.52-4.11,7.82-4.11,6.65.2,6.84,7.24v11.54q-.39,3.72,3.52,3.32v2h-10.76V268.93q-.2-2.93-2.15-2.93-4.31.78-4.89,8v8.21q-.59,3.72,3.91,3.32Z"/><path class="cls-29" d="M1497.74,256.21V264h8v2.15h-8v15.26q-.2,4.3,2.93,4.11,3.32.2,3.33-6.06h2.35q.19,8.8-8.21,8.21-7.63-.2-7.63-6.26V266.19h-4.11v-1.76a11.66,11.66,0,0,0,9.19-8.21Z"/><path class="cls-29" d="M1525.36,287.51h-15.65v-2q4.11.39,3.91-3.32V269.32q.19-3.52-3.91-3.32v-1.76l10.56-.2v5.28h.2q2.35-5.67,6.65-5.87,4.3.39,4.69,4.3-.4,3.72-3.52,3.91-3.33,0-3.52-3.72c-.13-.13-.13-.39,0-.78a3.28,3.28,0,0,0,.2-1q-4.31,3.33-4.3,14.67-.78,5.48,4.69,4.69Z"/><path class="cls-29" d="M1559.64,275.77H1543.8q0,10,6.45,10,3.91,0,7.63-4.89l1.56,1q-3.13,5.87-10.56,5.87-11.93-.39-13.1-11.93,1.17-11.54,13.1-12.32Q1559,264.23,1559.64,275.77Zm-15.84-2.15h7.82q0-8.6-3.52-8.41Q1544.18,265.41,1543.8,273.62Z"/><path class="cls-29" d="M1564.58,266v-1.76l10.76-.2v2.74a7.08,7.08,0,0,1,6.06-3.32q9.78,1.17,10.56,12.32-1.57,11.15-11.15,11.93a7.61,7.61,0,0,1-5.28-2.15v4.89q-.59,3.52,4.69,3.33v2.15H1564v-2.15q4.69.19,4.3-3.33V269.32Q1568.48,265.8,1564.58,266Zm11,9.78q0,10,4.11,10t4.3-10.17q-.2-9.78-3.91-10Q1575.52,266.38,1575.53,275.77Z"/><path class="cls-29" d="M1611.76,287.51h-15.65v-2q4.11.39,3.91-3.32V269.32q.19-3.52-3.91-3.32v-1.76l10.56-.2v5.28h.2q2.35-5.67,6.65-5.87,4.3.39,4.69,4.3-.4,3.72-3.52,3.91-3.33,0-3.52-3.72c-.13-.13-.13-.39,0-.78a3.28,3.28,0,0,0,.2-1q-4.31,3.33-4.3,14.67-.78,5.48,4.69,4.69Z"/><path class="cls-29" d="M1646,275.77h-15.84q0,10,6.45,10,3.91,0,7.63-4.89l1.56,1q-3.13,5.87-10.56,5.87-11.93-.39-13.1-11.93,1.17-11.54,13.1-12.32Q1645.44,264.23,1646,275.77Zm-15.84-2.15H1638q0-8.6-3.52-8.41Q1630.58,265.41,1630.19,273.62Z"/><path class="cls-29" d="M1666,287.51h-14.87v-2q3.91.39,3.72-3.32V269.32q.19-3.52-3.72-3.32v-1.76l10.56-.2v3.52q3.52-4.11,7.82-4.11,6.65.2,6.84,7.24v11.54q-.39,3.72,3.52,3.32v2h-10.76V268.93Q1669,266,1667,266q-4.31.78-4.89,8v8.21q-.59,3.72,3.91,3.32Z"/><path class="cls-29" d="M1708.32,275.77h-15.84q0,10,6.45,10,3.91,0,7.63-4.89l1.56,1q-3.13,5.87-10.56,5.87-11.93-.39-13.1-11.93,1.17-11.54,13.1-12.32Q1707.73,264.23,1708.32,275.77Zm-15.84-2.15h7.82q0-8.6-3.52-8.41Q1692.87,265.41,1692.48,273.62Z"/><path class="cls-29" d="M1724.21,264v17.41q0,3.91,2.74,3.91,4.11-.19,4.5-5.87V269.32q.39-3.52-4.11-3.32v-1.76l11.34-.2v18.19q-.59,3.72,3.91,3.32v1.76l-10.76.2v-2.74a9.51,9.51,0,0,1-7.43,2.93q-7.63,0-7.43-7V269.32q.19-3.52-3.52-3.32v-1.76Z"/><path class="cls-29" d="M1761.42,287.51h-15.65v-2q4.11.39,3.91-3.32V269.32q.19-3.52-3.91-3.32v-1.76l10.56-.2v5.28h.2q2.35-5.67,6.65-5.87,4.3.39,4.69,4.3-.4,3.72-3.52,3.91-3.33,0-3.52-3.72c-.13-.13-.13-.39,0-.78a3.28,3.28,0,0,0,.2-1q-4.31,3.33-4.3,14.67-.78,5.48,4.69,4.69Z"/><path class="cls-29" d="M1771.83,287.51V278.9h1.76q2.35,7,8.21,7.24,4.3-.19,4.89-3.13,0-2.54-6.26-3.72-8.8-1.76-8.8-7.82.59-7.23,9.78-8a11.2,11.2,0,0,1,4.89,1.37,4.4,4.4,0,0,0,1.37.39c.26,0,.52-.2.78-.59a2.28,2.28,0,0,0,.39-.59h2v7.63h-2q-2.54-6.26-7.43-6.26-3.72.39-3.91,3.33,0,2.15,5.48,3.32,9.58,1.76,9.58,7.82-.59,7.44-10.17,7.82a21.44,21.44,0,0,1-6.46-1,3.5,3.5,0,0,0-1-.39,1.75,1.75,0,0,0-1.17,1.17Z"/><path class="cls-29" d="M1814.13,287.51V269.32q0-3.32-2.15-3.32-3.92,1-4.11,7.63v8.61q-.39,3.72,3.32,3.32v2h-14.67v-2q4.5.39,4.11-3.32V258q.19-2.74-3.72-2.54v-2l11-.2v13.3a8.15,8.15,0,0,1,6.26-3.13q7.23.2,7.43,7v11.73q-.39,3.72,3.33,3.32v2Z"/><path class="cls-29" d="M1843.71,287.51h-15.26v-2q4.5.39,4.11-3.32V269.32q.39-3.52-4.11-3.32v-1.76l11.34-.2v18.19q-.39,3.72,3.91,3.32Zm-12.13-30.9q.19-3.71,4.11-4.11a4.18,4.18,0,0,1,4.11,4.11q-.39,3.91-4.11,4.11Q1831.77,260.52,1831.58,256.6Z"/><path class="cls-29" d="M1847.08,266v-1.76l10.76-.2v2.74a7.08,7.08,0,0,1,6.06-3.32q9.78,1.17,10.56,12.32-1.57,11.15-11.15,11.93a7.61,7.61,0,0,1-5.28-2.15v4.89q-.59,3.52,4.69,3.33v2.15h-16.23v-2.15q4.69.19,4.3-3.33V269.32Q1851,265.8,1847.08,266Zm11,9.78q0,10,4.11,10t4.3-10.17q-.2-9.78-3.91-10Q1858,266.38,1858,275.77Z"/></svg>