<svg id="图层_1" data-name="图层 1" xmlns="http://www.w3.org/2000/svg" xmlns:xlink="http://www.w3.org/1999/xlink" viewBox="0 0 687 303"><defs><style>.cls-1{fill:url(#未命名的渐变_156);}.cls-2{fill:url(#未命名的渐变_156-2);}.cls-3{fill:url(#未命名的渐变_195);}.cls-4{fill:url(#未命名的渐变_192);}.cls-5{fill:#ffd400;}</style><linearGradient id="未命名的渐变_156" x1="76.31" y1="217.1" x2="76.31" y2="84.78" gradientUnits="userSpaceOnUse"><stop offset="0" stop-color="#4ccc6f"/><stop offset="0.02" stop-color="#47c86a"/><stop offset="0.11" stop-color="#31b956"/><stop offset="0.21" stop-color="#21ae48"/><stop offset="0.32" stop-color="#18a740"/><stop offset="0.48" stop-color="#15a53d"/><stop offset="0.49" stop-color="#17a63e"/><stop offset="0.5" stop-color="#1ea944"/><stop offset="0.5" stop-color="#27ae4b"/><stop offset="0.54" stop-color="#2eb452"/><stop offset="0.66" stop-color="#3ec161"/><stop offset="0.8" stop-color="#47c96a"/><stop offset="1" stop-color="#4acb6d"/></linearGradient><linearGradient id="未命名的渐变_156-2" x1="1840.31" y1="217.1" x2="1840.31" y2="84.78" gradientTransform="matrix(-1, 0, 0, 1, 2050, 0)" xlink:href="#未命名的渐变_156"/><linearGradient id="未命名的渐变_195" x1="83.05" y1="223.08" x2="202.43" y2="223.08" gradientUnits="userSpaceOnUse"><stop offset="0" stop-color="#fdc607"/><stop offset="0.03" stop-color="#fdca12"/><stop offset="0.19" stop-color="#fddd48"/><stop offset="0.32" stop-color="#feea70"/><stop offset="0.43" stop-color="#fef388"/><stop offset="0.5" stop-color="#fef691"/><stop offset="0.51" stop-color="#ffe879"/><stop offset="0.51" stop-color="#ffde69"/><stop offset="0.52" stop-color="#ffdb63"/><stop offset="0.61" stop-color="#ffd95a"/><stop offset="0.75" stop-color="#ffd342"/><stop offset="0.92" stop-color="#feca1a"/><stop offset="1" stop-color="#fec506"/></linearGradient><linearGradient id="未命名的渐变_192" x1="83.05" y1="79.56" x2="202.43" y2="79.56" gradientUnits="userSpaceOnUse"><stop offset="0" stop-color="#007eb3"/><stop offset="0.01" stop-color="#0280b5"/><stop offset="0.23" stop-color="#1ca7dd"/><stop offset="0.4" stop-color="#2cbef5"/><stop offset="0.5" stop-color="#32c7fe"/><stop offset="0.5" stop-color="#25c4fe"/><stop offset="0.5" stop-color="#14bfff"/><stop offset="0.51" stop-color="#09bcff"/><stop offset="0.51" stop-color="#02baff"/><stop offset="0.52" stop-color="#00baff"/><stop offset="0.65" stop-color="#00b3f6"/><stop offset="0.87" stop-color="#00a0de"/><stop offset="1" stop-color="#0092cc"/></linearGradient></defs><title>ekt-logo</title><polygon class="cls-1" points="128.88 151.62 62.64 84.78 23.74 151.62 63.09 217.1 128.88 151.62"/><polygon class="cls-2" points="157.12 151.62 223.36 84.78 262.26 151.62 222.91 217.1 157.12 151.62"/><polygon class="cls-3" points="202.43 252.85 143.15 193.3 83.05 252.85 202.43 252.85"/><polygon class="cls-4" points="83.05 49.78 142.34 109.33 202.43 49.78 83.05 49.78"/><path class="cls-5" d="M289.08,79.34H383.6V99.09H314.29v41.75H373v20H314.29v48.47H386v20H289.08Z"/><path class="cls-5" d="M419.46,79.34h25.21v70.87h.65l60.84-70.87h28l-49.54,57.84,57.8,92.05h-28l-45.2-73.32L444.66,184v45.21H419.46Z"/><path class="cls-5" d="M591.12,99.09H544.19V79.34h119.3V99.09H616.33V229.23H591.12Z"/></svg>