<svg id="Layer_1" data-name="Layer 1" xmlns="http://www.w3.org/2000/svg" viewBox="0 0 574 100"><defs><style>.cls-1,.cls-2,.cls-5,.cls-7{fill-rule:evenodd;}.cls-2{fill:#fff;}.cls-3,.cls-4,.cls-6{fill:none;stroke-linecap:round;stroke-linejoin:round;}.cls-3,.cls-4{stroke:#fff;}.cls-3,.cls-6{stroke-width:0.71px;}.cls-4{stroke-width:1.42px;}.cls-5,.cls-8{fill:#e5692f;}.cls-6{stroke:#91673b;}.cls-7{fill:#f5cdbf;}.cls-9{fill:#e03838;}</style></defs><title>organizers</title><path class="cls-1" d="M81.32,57.42a23.75,23.75,0,0,0,4.08,0,8,8,0,0,0,3.5-.8c4-2.14,3.85-9-.06-11.16a14.71,14.71,0,0,0-7.48-1Zm-1.69,1.71c2.67.29,8.27.16,10.17-.89,5.07-2.79,5.33-11.34-.13-14.44-2-1.13-7.18-1.38-10-1Z"/><path class="cls-1" d="M159.13,48.43c-6.28,1.37-4.13,10.55,1.8,9.36,6.24-1.24,4.22-10.67-1.8-9.36m5.52,9,.07,1.82c2.35.11,1.7.29,1.7-6,0-1.8.16-4.46,0-6.16L164.74,47l-.09,1.87c-.6-.18-1.06-1.31-2.89-1.9A6.4,6.4,0,0,0,153.54,53a6.31,6.31,0,0,0,9.72,5.41A11.32,11.32,0,0,1,164.64,57.39Z"/><path class="cls-1" d="M125.87,48.45c-6.52,1.76-3.46,11,2.26,9.27,6.3-1.91,3.34-10.78-2.26-9.27m5.74,9,0,1.68,1.65,0V47h-1.68v1.74c-.87-.25-.87-1.23-3-1.84a7,7,0,0,0-4.31.26A6.45,6.45,0,0,0,124.43,59a6.6,6.6,0,0,0,4.15.16,5.47,5.47,0,0,0,1.64-.76C130.65,58.12,131.14,57.44,131.61,57.41Z"/><path class="cls-1" d="M137.78,43.71V59.06l1.75,0c.21-8.48-1.07-7.82,2-7.82,1.3,0,5.59-.09,6.29.06l0,7.81c2.16,0,1.74.57,1.74-4,0-3,.17-10.24,0-12.35l-1.74,0,0,6.79a78.86,78.86,0,0,1-8.28,0l0-6.75c-2.16-.07-1.75,0-1.75,1"/><path class="cls-1" d="M188,59.08c.35-.33.16-4.33.15-5A5.74,5.74,0,0,1,190,55.53l1.78,1.56c2.69,2.36,1.79,2.09,4.48,2.07-.16-1-6.18-5.17-6.8-6.4,1-1.18,6.39-5.14,6.47-5.8-2.52-.15-2.26,0-4.28,1.74a25.2,25.2,0,0,1-3.54,2.85V42.28l-1.78,0,0,16.51c.07.73,1.39.58,1.64.33"/><path class="cls-1" d="M182.54,56.66a2.57,2.57,0,0,0-1.3-.82A6.74,6.74,0,0,1,179,57.55c-2.78,1.12-7-.44-7.09-4.37-.12-5.29,6.87-6.47,9.32-2.88a2.46,2.46,0,0,0,1.35-.75c-.38-2.09-4.73-3.43-7.75-2.57a6.32,6.32,0,0,0-.09,12.18c2.85.87,7.13-.43,7.85-2.51"/><path class="cls-1" d="M198.65,56.6a2.48,2.48,0,0,0-.92,1c.61,1.58,3.69,2.3,5.47,1.35a3.48,3.48,0,0,0,1.17-5.13c-1.12-1.42-3.72-2-4.41-3.25-.84-1.48.94-3.07,2.86-2,.56.31.65.64,1.26.73a2.35,2.35,0,0,0,.92-1c-.42-.76-3.34-2.51-5.43-1a3.2,3.2,0,0,0-.18,5.16c1.28,1.12,4.07,1.71,4,3.54a2,2,0,0,1-2,1.84c-1.51.1-1.86-.9-2.78-1.21"/><path class="cls-1" d="M102.46,57.82l0-2.47,1.6,0v2.41c1.57,0,3.06-1.48,3.57-3,.89-2.6,0-1.88-4.54-1.88a37.55,37.55,0,0,0-4.77.06c-.27,2.58,2.44,5.13,4.11,4.81"/><path class="cls-1" d="M114.38,48.32c0-1.62.22-1.43-1.61-1.37-.31,1.25-.13,10.23-.08,12.13h1.69c0-2.79-.5-8,1.09-9.85.74-.88,1.34-.92,2.56-.76a2.34,2.34,0,0,0,.82-1.4c-2.58-1.25-3.8,1-4.46,1.26"/><path class="cls-1" d="M98.81,51.35h8.73c0-1.78-4.1-4.61-7.19-2.2-.47.36-1.58,1.3-1.53,2.19"/><path class="cls-2" d="M57,44.5h0a1.43,1.43,0,0,1,.41.58c.66,0,1-.26,1-.81C57.75,44.58,57.14,43.73,57,44.5Zm-5.8-.41h0a3.77,3.77,0,0,0-1.27.7c-.7,1.6,4,2.3,3.13.58-.33.05-.62.3-1,.29a1.39,1.39,0,0,1-1-.58c.24-.16.48.18.81.23a1.62,1.62,0,0,0,1.1-.23v-.41A1.2,1.2,0,0,1,51.18,44.09Zm-2.61.06h0c-.1.47.37.86,1,.75a4,4,0,0,1,.41-.64C49.71,43.77,49.15,44.43,48.57,44.15Zm7.54-1.8h0c-.17,0-.23.07-.35.12-.29.11-1.07.08-1.45.4A1.79,1.79,0,0,0,54,44.26c.1.4.75.55,1.1.41s.49-.7.81-1.1c0,.8,1.49.92,1.22-.17-.3-.47-1,0-1.28-.23.19-.18.31-.42.75-.35A.62.62,0,0,0,56.11,42.35Zm-4.64.12h0c-.23-.44-1.18-.17-1,.23.39,0,.78.16.64.46-.29-.14-1-.21-1.16.06-.08.62.12,1,.75.87.21-.14.28-.42.46-.58.25.13.17.47.35.7a1.21,1.21,0,0,0,.93.41c.32,0,.41-.28.64-.52Q53.1,42.43,51.47,42.47Zm6.61,0h0c.83.32.59,1.47.52,2.32,1-.49.75-2.66-.58-2.61C58,42.34,58.1,42.33,58.08,42.47Zm-9.68,2.2h0a10.79,10.79,0,0,1-.17-1.28c0-.68.59-.82.69-1.33C47.61,42,47.39,44.25,48.4,44.67Zm8.06-3.07h0a4.09,4.09,0,0,1-.23.52c.59.2.69.89,1.1,1.27-.07.36.19.39.23.64.87.35,1.15-.66.64-1.22-.29-.28-1,.09-1.22-.17a1.2,1.2,0,0,1,.81-.29C57.68,41.76,57.23,41.52,56.45,41.6Zm-7.3.64h0c.19.06.87-.07.81.41-.87-.21-1.61.05-1.45,1,.19.3.78.27,1,.06,0-.71.55-.88.69-1.45.1-.17.39-.15.46-.35s-.18-.28-.23-.47C49.71,41.4,49.28,41.67,49.15,42.24Zm5.16.41h0c0-.08.13-.07.17-.12-.05-.29-.27-.34-.29-.64s.1-.72-.17-.87C53.76,41.5,53.76,42.48,54.31,42.64Zm-1.56-.7h0c0,.21-.25.22-.29.41.63.62.88-1.18.41-1.51A2,2,0,0,0,52.74,41.95Zm3.42-.23h0c.15-.57-.57-1.22-.87-1.27-.62-.12-1,.2-.87.93.43-.05.81-.09.87.35-.17.08-.6-.2-.81.06C54.58,42.69,56,42.22,56.16,41.71Zm-5.39-.29h0c.05.69,1.52,1.18,1.74.29-.18-.35-.65,0-.87-.12,0-.5.62-.34.87-.35.22-.44-.14-.78-.35-1C51.47,40.22,50.73,40.82,50.77,41.42Zm6.32,4.12h0a2.36,2.36,0,0,0-.06-.7,13.57,13.57,0,0,0-1.22-.64,1.24,1.24,0,0,1-1.8.58c-.06.63.59.71,1.1.64.34,0,.6-.4.81-.23-.31.68-1.34.61-2,.35-.22.24,0,.63.11.81A3,3,0,0,0,57.09,45.54Z"/><path class="cls-3" d="M57,44.5h0a1.43,1.43,0,0,1,.41.58c.66,0,1-.26,1-.81C57.75,44.58,57.14,43.73,57,44.5Zm-5.8-.41h0a3.77,3.77,0,0,0-1.27.7c-.7,1.6,4,2.3,3.13.58-.33.05-.62.3-1,.29a1.39,1.39,0,0,1-1-.58c.24-.16.48.18.81.23a1.62,1.62,0,0,0,1.1-.23v-.41A1.2,1.2,0,0,1,51.18,44.09Zm-2.61.06h0c-.1.47.37.86,1,.75a4,4,0,0,1,.41-.64C49.71,43.77,49.15,44.43,48.57,44.15Zm7.54-1.8h0c-.17,0-.23.07-.35.12-.29.11-1.07.08-1.45.4A1.79,1.79,0,0,0,54,44.26c.1.4.75.55,1.1.41s.49-.7.81-1.1c0,.8,1.49.92,1.22-.17-.3-.47-1,0-1.28-.23.19-.18.31-.42.75-.35A.62.62,0,0,0,56.11,42.35Zm-4.64.12h0c-.23-.44-1.18-.17-1,.23.39,0,.78.16.64.46-.29-.14-1-.21-1.16.06-.08.62.12,1,.75.87.21-.14.28-.42.46-.58.25.13.17.47.35.7a1.21,1.21,0,0,0,.93.41c.32,0,.41-.28.64-.52Q53.1,42.43,51.47,42.47Zm6.61,0h0c.83.32.59,1.47.52,2.32,1-.49.75-2.66-.58-2.61C58,42.34,58.1,42.33,58.08,42.47Zm-9.68,2.2h0a10.79,10.79,0,0,1-.17-1.28c0-.68.59-.82.69-1.33C47.61,42,47.39,44.25,48.4,44.67Zm8.06-3.07h0a4.09,4.09,0,0,1-.23.52c.59.2.69.89,1.1,1.27-.07.36.19.39.23.64.87.35,1.15-.66.64-1.22-.29-.28-1,.09-1.22-.17a1.2,1.2,0,0,1,.81-.29C57.68,41.76,57.23,41.52,56.45,41.6Zm-7.3.64h0c.19.06.87-.07.81.41-.87-.21-1.61.05-1.45,1,.19.3.78.27,1,.06,0-.71.55-.88.69-1.45.1-.17.39-.15.46-.35s-.18-.28-.23-.47C49.71,41.4,49.28,41.67,49.15,42.24Zm5.16.41h0c0-.08.13-.07.17-.12-.05-.29-.27-.34-.29-.64s.1-.72-.17-.87C53.76,41.5,53.76,42.48,54.31,42.64Zm-1.56-.7h0c0,.21-.25.22-.29.41.63.62.88-1.18.41-1.51A2,2,0,0,0,52.74,41.95Zm3.42-.23h0c.15-.57-.57-1.22-.87-1.27-.62-.12-1,.2-.87.93.43-.05.81-.09.87.35-.17.08-.6-.2-.81.06C54.58,42.69,56,42.22,56.16,41.71Zm-5.39-.29h0c.05.69,1.52,1.18,1.74.29-.18-.35-.65,0-.87-.12,0-.5.62-.34.87-.35.22-.44-.14-.78-.35-1C51.47,40.22,50.73,40.82,50.77,41.42Zm6.32,4.12h0a2.36,2.36,0,0,0-.06-.7,13.57,13.57,0,0,0-1.22-.64,1.24,1.24,0,0,1-1.8.58c-.06.63.59.71,1.1.64.34,0,.6-.4.81-.23-.31.68-1.34.61-2,.35-.22.24,0,.63.11.81A3,3,0,0,0,57.09,45.54Z"/><path class="cls-4" d="M55.73,51.39c6.58-.92,12.12.1,12.37,2.27s-4.89,4.68-11.47,5.6S44.5,59.15,44.26,57,49.15,52.3,55.73,51.39Z"/><path class="cls-5" d="M55.73,51.39c6.58-.92,12.12.1,12.37,2.27s-4.89,4.68-11.47,5.6S44.5,59.15,44.26,57s4.89-4.68,11.47-5.6"/><path class="cls-4" d="M45.27,37.25C46.5,37.3,48.34,39,49.73,40a10.4,10.4,0,0,1,5-.7,7.44,7.44,0,0,1,2.43.81c.73-.53,1.4-1.17,2.2-1.68a4.1,4.1,0,0,1,2.72-1A4.89,4.89,0,0,1,62.13,40c-.21,1.48-.57,3-.93,4.52a18.23,18.23,0,0,0-.58,2.14,8.87,8.87,0,0,0,.46,3A5.91,5.91,0,0,0,62,52.15c3.09,2.56,5.81,6.24,6.38,8.06A1.61,1.61,0,0,1,68,62a2.07,2.07,0,0,1-2.72-.06A15.94,15.94,0,0,1,63.47,60a18.56,18.56,0,0,0-1.39-1.39.84.84,0,0,0-.52-.27,4.22,4.22,0,0,0-1.16.29,25.94,25.94,0,0,1-3.43.68c.44.58,1.39,1.38,2,2.09a2.41,2.41,0,0,1,.81,1.74c-.05.39-.3.4-.46.75a3.06,3.06,0,0,1-2,.52,5.28,5.28,0,0,1-1.62-.52c-.25-.13-.57-.33-.87-.52-7.22-4.57-7.52-9-8.35-16.4-.23-2.06-1.1-4.64-1.45-6.9C44.89,39.14,44.55,37.57,45.27,37.25Z"/><path class="cls-1" d="M45.27,37.25C46.5,37.3,48.34,39,49.73,40a10.4,10.4,0,0,1,5-.7,7.44,7.44,0,0,1,2.43.81c.73-.53,1.4-1.17,2.2-1.68a4.1,4.1,0,0,1,2.72-1A4.89,4.89,0,0,1,62.13,40c-.21,1.48-.57,3-.93,4.52a18.23,18.23,0,0,0-.58,2.14,8.87,8.87,0,0,0,.46,3A5.91,5.91,0,0,0,62,52.15c3.09,2.56,5.81,6.24,6.38,8.06A1.61,1.61,0,0,1,68,62a2.07,2.07,0,0,1-2.72-.06A15.94,15.94,0,0,1,63.47,60a18.56,18.56,0,0,0-1.39-1.39.84.84,0,0,0-.52-.27,4.22,4.22,0,0,0-1.16.29,25.94,25.94,0,0,1-3.43.68c.44.58,1.39,1.38,2,2.09a2.41,2.41,0,0,1,.81,1.74c-.05.39-.3.4-.46.75a3.06,3.06,0,0,1-2,.52,5.28,5.28,0,0,1-1.62-.52c-.25-.13-.57-.33-.87-.52-7.22-4.57-7.52-9-8.35-16.4-.23-2.06-1.1-4.64-1.45-6.9-.14-1-.48-2.52.23-2.84"/><path class="cls-6" d="M57,44.5h0a1.43,1.43,0,0,1,.41.58c.66,0,1-.26,1-.81C57.75,44.58,57.14,43.73,57,44.5Zm-5.8-.41h0a3.77,3.77,0,0,0-1.27.7c-.7,1.6,4,2.3,3.13.58-.33.05-.62.3-1,.29a1.39,1.39,0,0,1-1-.58c.24-.16.48.18.81.23a1.62,1.62,0,0,0,1.1-.23v-.41A1.2,1.2,0,0,1,51.18,44.09Zm-2.61.06h0c-.1.47.37.86,1,.75a4,4,0,0,1,.41-.64C49.71,43.77,49.15,44.43,48.57,44.15Zm7.54-1.8h0c-.17,0-.23.07-.35.12-.29.11-1.07.08-1.45.4A1.79,1.79,0,0,0,54,44.26c.1.4.75.55,1.1.41s.49-.7.81-1.1c0,.8,1.49.92,1.22-.17-.3-.47-1,0-1.28-.23.19-.18.31-.42.75-.35A.62.62,0,0,0,56.11,42.35Zm-4.64.12h0c-.23-.44-1.18-.17-1,.23.39,0,.78.16.64.46-.29-.14-1-.21-1.16.06-.08.62.12,1,.75.87.21-.14.28-.42.46-.58.25.13.17.47.35.7a1.21,1.21,0,0,0,.93.41c.32,0,.41-.28.64-.52Q53.1,42.43,51.47,42.47Zm6.61,0h0c.83.32.59,1.47.52,2.32,1-.49.75-2.66-.58-2.61C58,42.34,58.1,42.33,58.08,42.47Zm-9.68,2.2h0a10.79,10.79,0,0,1-.17-1.28c0-.68.59-.82.69-1.33C47.61,42,47.39,44.25,48.4,44.67Zm8.06-3.07h0a4.09,4.09,0,0,1-.23.52c.59.2.69.89,1.1,1.27-.07.36.19.39.23.64.87.35,1.15-.66.64-1.22-.29-.28-1,.09-1.22-.17a1.2,1.2,0,0,1,.81-.29C57.68,41.76,57.23,41.52,56.45,41.6Zm-7.3.64h0c.19.06.87-.07.81.41-.87-.21-1.61.05-1.45,1,.19.3.78.27,1,.06,0-.71.55-.88.69-1.45.1-.17.39-.15.46-.35s-.18-.28-.23-.47C49.71,41.4,49.28,41.67,49.15,42.24Zm5.16.41h0c0-.08.13-.07.17-.12-.05-.29-.27-.34-.29-.64s.1-.72-.17-.87C53.76,41.5,53.76,42.48,54.31,42.64Zm-1.56-.7h0c0,.21-.25.22-.29.41.63.62.88-1.18.41-1.51A2,2,0,0,0,52.74,41.95Zm3.42-.23h0c.15-.57-.57-1.22-.87-1.27-.62-.12-1,.2-.87.93.43-.05.81-.09.87.35-.17.08-.6-.2-.81.06C54.58,42.69,56,42.22,56.16,41.71Zm-5.39-.29h0c.05.69,1.52,1.18,1.74.29-.18-.35-.65,0-.87-.12,0-.5.62-.34.87-.35.22-.44-.14-.78-.35-1C51.47,40.22,50.73,40.82,50.77,41.42Zm6.32,4.12h0a2.36,2.36,0,0,0-.06-.7,13.57,13.57,0,0,0-1.22-.64,1.24,1.24,0,0,1-1.8.58c-.06.63.59.71,1.1.64.34,0,.6-.4.81-.23-.31.68-1.34.61-2,.35-.22.24,0,.63.11.81A3,3,0,0,0,57.09,45.54Z"/><path class="cls-6" d="M57,44.5h0a1.43,1.43,0,0,1,.41.58c.66,0,1-.26,1-.81C57.75,44.58,57.14,43.73,57,44.5Zm-5.8-.41h0a3.77,3.77,0,0,0-1.27.7c-.7,1.6,4,2.3,3.13.58-.33.05-.62.3-1,.29a1.39,1.39,0,0,1-1-.58c.24-.16.48.18.81.23a1.62,1.62,0,0,0,1.1-.23v-.41A1.2,1.2,0,0,1,51.18,44.09Zm-2.61.06h0c-.1.47.37.86,1,.75a4,4,0,0,1,.41-.64C49.71,43.77,49.15,44.43,48.57,44.15Zm7.54-1.8h0c-.17,0-.23.07-.35.12-.29.11-1.07.08-1.45.4A1.79,1.79,0,0,0,54,44.26c.1.4.75.55,1.1.41s.49-.7.81-1.1c0,.8,1.49.92,1.22-.17-.3-.47-1,0-1.28-.23.19-.18.31-.42.75-.35A.62.62,0,0,0,56.11,42.35Zm-4.64.12h0c-.23-.44-1.18-.17-1,.23.39,0,.78.16.64.46-.29-.14-1-.21-1.16.06-.08.62.12,1,.75.87.21-.14.28-.42.46-.58.25.13.17.47.35.7a1.21,1.21,0,0,0,.93.41c.32,0,.41-.28.64-.52Q53.1,42.43,51.47,42.47Zm6.61,0h0c.83.32.59,1.47.52,2.32,1-.49.75-2.66-.58-2.61C58,42.34,58.1,42.33,58.08,42.47Zm-9.68,2.2h0a10.79,10.79,0,0,1-.17-1.28c0-.68.59-.82.69-1.33C47.61,42,47.39,44.25,48.4,44.67Zm8.06-3.07h0a4.09,4.09,0,0,1-.23.52c.59.2.69.89,1.1,1.27-.07.36.19.39.23.64.87.35,1.15-.66.64-1.22-.29-.28-1,.09-1.22-.17a1.2,1.2,0,0,1,.81-.29C57.68,41.76,57.23,41.52,56.45,41.6Zm-7.3.64h0c.19.06.87-.07.81.41-.87-.21-1.61.05-1.45,1,.19.3.78.27,1,.06,0-.71.55-.88.69-1.45.1-.17.39-.15.46-.35s-.18-.28-.23-.47C49.71,41.4,49.28,41.67,49.15,42.24Zm5.16.41h0c0-.08.13-.07.17-.12-.05-.29-.27-.34-.29-.64s.1-.72-.17-.87C53.76,41.5,53.76,42.48,54.31,42.64Zm-1.56-.7h0c0,.21-.25.22-.29.41.63.62.88-1.18.41-1.51A2,2,0,0,0,52.74,41.95Zm3.42-.23h0c.15-.57-.57-1.22-.87-1.27-.62-.12-1,.2-.87.93.43-.05.81-.09.87.35-.17.08-.6-.2-.81.06C54.58,42.69,56,42.22,56.16,41.71Zm-5.39-.29h0c.05.69,1.52,1.18,1.74.29-.18-.35-.65,0-.87-.12,0-.5.62-.34.87-.35.22-.44-.14-.78-.35-1C51.47,40.22,50.73,40.82,50.77,41.42Zm6.32,4.12h0a2.36,2.36,0,0,0-.06-.7,13.57,13.57,0,0,0-1.22-.64,1.24,1.24,0,0,1-1.8.58c-.06.63.59.71,1.1.64.34,0,.6-.4.81-.23-.31.68-1.34.61-2,.35-.22.24,0,.63.11.81A3,3,0,0,0,57.09,45.54Z"/><path class="cls-7" d="M57,44.5h0a1.43,1.43,0,0,1,.41.58c.66,0,1-.26,1-.81-.67.32-1.28-.53-1.45.23m-5.8-.41h0a3.77,3.77,0,0,0-1.27.7c-.7,1.6,4,2.3,3.13.58-.33.05-.62.3-1,.29a1.39,1.39,0,0,1-1-.58c.24-.16.48.18.81.23a1.62,1.62,0,0,0,1.1-.23v-.41A1.2,1.2,0,0,1,51.18,44.09Zm-2.61.06h0c-.1.47.37.86,1,.75a4,4,0,0,1,.41-.64C49.71,43.77,49.15,44.43,48.57,44.15Zm7.54-1.8h0c-.17,0-.23.07-.35.12-.29.11-1.07.08-1.45.4A1.79,1.79,0,0,0,54,44.26c.1.4.75.55,1.1.41s.49-.7.81-1.1c0,.8,1.49.92,1.22-.17-.3-.47-1,0-1.28-.23.19-.18.31-.42.75-.35A.62.62,0,0,0,56.11,42.35Zm-4.64.12h0c-.23-.44-1.18-.17-1,.23.39,0,.78.16.64.46-.29-.14-1-.21-1.16.06-.08.62.12,1,.75.87.21-.14.28-.42.46-.58.25.13.17.47.35.7a1.21,1.21,0,0,0,.93.41c.32,0,.41-.28.64-.52Q53.1,42.43,51.47,42.47Zm6.61,0h0c.83.32.59,1.47.52,2.32,1-.49.75-2.66-.58-2.61C58,42.34,58.1,42.33,58.08,42.47Zm-9.68,2.2h0a10.79,10.79,0,0,1-.17-1.28c0-.68.59-.82.69-1.33C47.61,42,47.39,44.25,48.4,44.67Zm8.06-3.07h0a4.09,4.09,0,0,1-.23.52c.59.2.69.89,1.1,1.27-.07.36.19.39.23.64.87.35,1.15-.66.64-1.22-.29-.28-1,.09-1.22-.17a1.2,1.2,0,0,1,.81-.29C57.68,41.76,57.23,41.52,56.45,41.6Zm-7.3.64h0c.19.06.87-.07.81.41-.87-.21-1.61.05-1.45,1,.19.3.78.27,1,.06,0-.71.55-.88.69-1.45.1-.17.39-.15.46-.35s-.18-.28-.23-.47C49.71,41.4,49.28,41.67,49.15,42.24Zm5.16.41h0c0-.08.13-.07.17-.12-.05-.29-.27-.34-.29-.64s.1-.72-.17-.87C53.76,41.5,53.76,42.48,54.31,42.64Zm-1.56-.7h0c0,.21-.25.22-.29.41.63.62.88-1.18.41-1.51A2,2,0,0,0,52.74,41.95Zm3.42-.23h0c.15-.57-.57-1.22-.87-1.27-.62-.12-1,.2-.87.93.43-.05.81-.09.87.35-.17.08-.6-.2-.81.06C54.58,42.69,56,42.22,56.16,41.71Zm-5.39-.29h0c.05.69,1.52,1.18,1.74.29-.18-.35-.65,0-.87-.12,0-.5.62-.34.87-.35.22-.44-.14-.78-.35-1C51.47,40.22,50.73,40.82,50.77,41.42Zm6.32,4.12h0a2.36,2.36,0,0,0-.06-.7,13.57,13.57,0,0,0-1.22-.64,1.24,1.24,0,0,1-1.8.58c-.06.63.59.71,1.1.64.34,0,.6-.4.81-.23-.31.68-1.34.61-2,.35-.22.24,0,.63.11.81A3,3,0,0,0,57.09,45.54Z"/><path class="cls-8" d="M243.64,45.79a2.59,2.59,0,0,0-1-.47,5.93,5.93,0,0,0-1.26-.17H238.2l-1,5.75h3.35a5.5,5.5,0,0,0,1.37-.19,3.64,3.64,0,0,0,1.18-.55,3.07,3.07,0,0,0,1.29-2.25,2.81,2.81,0,0,0-.13-1.28A2,2,0,0,0,243.64,45.79Z"/><path class="cls-8" d="M240.93,52H237l-1.09,6.26h3.67a5.14,5.14,0,0,0,1.48-.21,4,4,0,0,0,1.25-.62,3.37,3.37,0,0,0,.91-1,3.66,3.66,0,0,0,.45-1.43,3.1,3.1,0,0,0-.09-1.24,2.25,2.25,0,0,0-.54-.92,2.46,2.46,0,0,0-.91-.58A3.8,3.8,0,0,0,240.93,52Z"/><path class="cls-8" d="M226.12,50a3,3,0,0,0-.79-.14,2.81,2.81,0,0,0-1.18.2,3.39,3.39,0,0,0-1,.61,4.63,4.63,0,0,0-.78.9,7.7,7.7,0,0,0-.6,1.08,8.94,8.94,0,0,0-.43,1.15q-.17.58-.28,1.1-.05.28-.11.65a7.47,7.47,0,0,0-.07.76,4.41,4.41,0,0,0,0,.78,2.28,2.28,0,0,0,.2.69,1.39,1.39,0,0,0,.41.51,1.22,1.22,0,0,0,.7.23,2.21,2.21,0,0,0,1.06-.2,3.42,3.42,0,0,0,.92-.62,4.41,4.41,0,0,0,.72-.88,4.81,4.81,0,0,0,.48-1l1.36-5.46A2.44,2.44,0,0,0,226.12,50Z"/><path class="cls-8" d="M213.44,35.54,208,63.61h11.29a5.52,5.52,0,0,1-3-2.61,7.77,7.77,0,0,1-.74-2,10.27,10.27,0,0,1-.24-2.26,13.29,13.29,0,0,1,.22-2.39,14.1,14.1,0,0,1,.7-2.54,13.56,13.56,0,0,1,1.17-2.36,12.59,12.59,0,0,1,1.59-2,10.06,10.06,0,0,1,2-1.61,9.57,9.57,0,0,1,2.34-1,8.84,8.84,0,0,1,2.66-.35,7.89,7.89,0,0,1,2.45.39,5.7,5.7,0,0,1,1.84,1,5.43,5.43,0,0,1,1.26,1.53,7.4,7.4,0,0,1,.73,1.93,9.84,9.84,0,0,1,.24,2.21,14,14,0,0,1-.21,2.38,11.1,11.1,0,0,1-.3,1.28,9.84,9.84,0,0,1-.48,1.3,7.64,7.64,0,0,1-.68,1.2,5.07,5.07,0,0,1-.89,1,4,4,0,0,1-1.12.66,3.43,3.43,0,0,1-1.35.22,2.48,2.48,0,0,1-.84-.16,2.09,2.09,0,0,1-.67-.4,1.81,1.81,0,0,1-.45-.63,2.48,2.48,0,0,1-.19-.84,10,10,0,0,1-.65.79,4.45,4.45,0,0,1-.76.66,3.55,3.55,0,0,1-.89.45,2.81,2.81,0,0,1-1,.14,2.1,2.1,0,0,1-1-.25,2,2,0,0,1-.65-.6,2.6,2.6,0,0,1-.37-.84,5.24,5.24,0,0,1-.14-1,7.52,7.52,0,0,1,0-1,8.66,8.66,0,0,1,.13-.93,9.91,9.91,0,0,1,.35-1.34,10,10,0,0,1,.57-1.36,9.05,9.05,0,0,1,.78-1.27,5.56,5.56,0,0,1,1-1,4.54,4.54,0,0,1,1.21-.7,3.72,3.72,0,0,1,1.42-.25,3.48,3.48,0,0,1,1.42.32,5.52,5.52,0,0,1,1.21.81l-1.42,6a7.77,7.77,0,0,0-.09.81,2.48,2.48,0,0,0,.08.81,1.4,1.4,0,0,0,.37.64,1.13,1.13,0,0,0,.77.28,2.35,2.35,0,0,0,1.07-.19,2.86,2.86,0,0,0,.86-.59,4.31,4.31,0,0,0,.67-.87,7.4,7.4,0,0,0,.5-1,9.15,9.15,0,0,0,.35-1.07c.09-.36.16-.69.22-1a15.81,15.81,0,0,0,.23-2.14,9.24,9.24,0,0,0-.14-2A6.44,6.44,0,0,0,230.8,48a4.46,4.46,0,0,0-1.06-1.37,4.83,4.83,0,0,0-1.61-.91,7.15,7.15,0,0,0-2.23-.35,7.66,7.66,0,0,0-2.38.32,8.27,8.27,0,0,0-2.08,1,9.22,9.22,0,0,0-1.75,1.47A11.59,11.59,0,0,0,218.28,50a12.75,12.75,0,0,0-1,2.12,13.48,13.48,0,0,0-.65,2.26,12.61,12.61,0,0,0-.23,2.08,9.73,9.73,0,0,0,.15,2,7.21,7.21,0,0,0,.58,1.81,5,5,0,0,0,1.06,1.48,4.82,4.82,0,0,0,1.58,1,6,6,0,0,0,2.17.38,6.88,6.88,0,0,0,1.82-.2,8.92,8.92,0,0,0,1.72-.62l.24.86a5.9,5.9,0,0,1-.94.45h37.79L268,35.54ZM245.66,48a3.75,3.75,0,0,1-.3,1.19,3.79,3.79,0,0,1-.62,1,4.12,4.12,0,0,1-.89.75,5.57,5.57,0,0,1-1.1.53,3,3,0,0,1,1,.53,3.11,3.11,0,0,1,.72.82,3.38,3.38,0,0,1,.4,1,4.06,4.06,0,0,1,.08,1.15,4.58,4.58,0,0,1-.55,1.92,4.44,4.44,0,0,1-1.2,1.38,5.11,5.11,0,0,1-1.67.82,6.83,6.83,0,0,1-2,.26h-5.11L237.11,44h4.3a7.12,7.12,0,0,1,1.75.25,3.87,3.87,0,0,1,1.4.7,3,3,0,0,1,.89,1.21A3.7,3.7,0,0,1,245.66,48Zm12.68,11.36h-1.29L258.34,52h-8.44l-1.28,7.33h-1.28L250,44h1.28l-1.2,6.87h8.44l1.2-6.87H261Z"/><polygon class="cls-8" points="26.98 63.61 19 63.61 24.45 35.54 32.44 35.54 26.98 63.61"/><rect x="335" y="43.18" width="48.1" height="7.78"/><rect x="338.89" y="33.99" width="26.17" height="7.78" transform="translate(389.85 -314.1) rotate(90)"/><rect x="335" y="63.34" width="38.19" height="7.78" transform="translate(708.19 134.46) rotate(180)"/><circle class="cls-9" cx="351.97" cy="57.15" r="3.89"/><circle class="cls-9" cx="369.3" cy="56.98" r="3.89"/><path d="M401.59,50.57a1.6,1.6,0,0,0-.09-.57,1.13,1.13,0,0,0-.34-.46,2.87,2.87,0,0,0-.69-.4,10.58,10.58,0,0,0-1.13-.4,10.86,10.86,0,0,1-1.4-.52,4.81,4.81,0,0,1-1.1-.68,2.9,2.9,0,0,1-.72-.89,2.44,2.44,0,0,1-.26-1.15,2.57,2.57,0,0,1,.27-1.18,2.79,2.79,0,0,1,.77-.93,3.65,3.65,0,0,1,1.18-.61,5.05,5.05,0,0,1,1.53-.22,4.69,4.69,0,0,1,1.61.26,3.61,3.61,0,0,1,1.2.7,3.05,3.05,0,0,1,.75,1,3,3,0,0,1,.26,1.25h-1.83a2,2,0,0,0-.12-.71,1.47,1.47,0,0,0-.37-.56,1.68,1.68,0,0,0-.62-.37,2.74,2.74,0,0,0-.89-.13,2.9,2.9,0,0,0-.84.11,1.69,1.69,0,0,0-.59.31,1.2,1.2,0,0,0-.35.47,1.49,1.49,0,0,0-.11.58,1.17,1.17,0,0,0,.56,1,5.93,5.93,0,0,0,1.7.73,9.94,9.94,0,0,1,1.55.58,4.43,4.43,0,0,1,1.09.72,2.62,2.62,0,0,1,.64.91,2.93,2.93,0,0,1,.21,1.14,2.67,2.67,0,0,1-.27,1.2,2.57,2.57,0,0,1-.76.91,3.53,3.53,0,0,1-1.19.57,5.85,5.85,0,0,1-3.06,0,4.25,4.25,0,0,1-1.33-.63,3.24,3.24,0,0,1-.95-1,2.89,2.89,0,0,1-.36-1.47h1.84a1.92,1.92,0,0,0,.18.86,1.61,1.61,0,0,0,.49.59,2,2,0,0,0,.73.33,3.74,3.74,0,0,0,.91.11,2.27,2.27,0,0,0,1.44-.39A1.25,1.25,0,0,0,401.59,50.57Z"/><path d="M413.45,53.3h-1.83V48.6h-4.73v4.7H405V42.71h1.84v4.41h4.73V42.71h1.83Z"/><path d="M417.56,53.3h-1.83V42.71h1.83Z"/><path d="M423.59,46.54l2.23-3.82h2.12L424.74,48,428,53.3h-2.14l-2.28-3.88-2.28,3.88h-2.14L422.45,48l-3.21-5.25h2.12Z"/><path d="M431.31,53.3h-1.83V42.71h1.83Z"/><path d="M442,53.3h-1.84l-4.72-7.51V53.3h-1.84V42.71h1.84l4.73,7.54V42.71H442Z"/><path d="M453.39,50.57a1.6,1.6,0,0,0-.09-.57,1.13,1.13,0,0,0-.34-.46,2.87,2.87,0,0,0-.69-.4,10.58,10.58,0,0,0-1.13-.4,10.86,10.86,0,0,1-1.4-.52,4.81,4.81,0,0,1-1.1-.68,2.9,2.9,0,0,1-.72-.89,2.44,2.44,0,0,1-.26-1.15,2.57,2.57,0,0,1,.27-1.18,2.79,2.79,0,0,1,.77-.93,3.65,3.65,0,0,1,1.18-.61,5.05,5.05,0,0,1,1.53-.22,4.69,4.69,0,0,1,1.61.26,3.61,3.61,0,0,1,1.2.7,3.05,3.05,0,0,1,.75,1,3,3,0,0,1,.26,1.25h-1.83a2,2,0,0,0-.12-.71,1.47,1.47,0,0,0-.37-.56,1.68,1.68,0,0,0-.62-.37,2.74,2.74,0,0,0-.89-.13,2.9,2.9,0,0,0-.84.11,1.69,1.69,0,0,0-.59.31,1.2,1.2,0,0,0-.35.47,1.49,1.49,0,0,0-.11.58,1.17,1.17,0,0,0,.56,1,5.93,5.93,0,0,0,1.7.73,9.94,9.94,0,0,1,1.55.58,4.43,4.43,0,0,1,1.09.72,2.62,2.62,0,0,1,.64.91,2.93,2.93,0,0,1,.21,1.14,2.67,2.67,0,0,1-.27,1.2,2.57,2.57,0,0,1-.76.91,3.53,3.53,0,0,1-1.19.57,5.85,5.85,0,0,1-3.06,0,4.25,4.25,0,0,1-1.33-.63,3.24,3.24,0,0,1-.95-1,2.89,2.89,0,0,1-.36-1.47h1.84a1.92,1.92,0,0,0,.18.86,1.61,1.61,0,0,0,.49.59,2,2,0,0,0,.73.33,3.74,3.74,0,0,0,.91.11,2.27,2.27,0,0,0,1.44-.39A1.25,1.25,0,0,0,453.39,50.57Z"/><path d="M458.88,43.52v1.91h1.39v1.31h-1.39v4.39a1.35,1.35,0,0,0,.06.44.57.57,0,0,0,.17.26.6.6,0,0,0,.26.12,1.57,1.57,0,0,0,.33,0l.35,0,.27,0v1.37l-.49.11a3.58,3.58,0,0,1-.67.05,2.74,2.74,0,0,1-.81-.12,1.62,1.62,0,0,1-.65-.38,1.76,1.76,0,0,1-.43-.68,3.06,3.06,0,0,1-.15-1V46.74h-1.29V45.43h1.29V43.52Z"/><path d="M466.39,52.53a2.51,2.51,0,0,1-.92.68,3.19,3.19,0,0,1-1.29.24,3.23,3.23,0,0,1-1.06-.16,2,2,0,0,1-.82-.52,2.39,2.39,0,0,1-.53-.91,4.14,4.14,0,0,1-.19-1.33V45.43h1.77v5.1a2.08,2.08,0,0,0,.1.71,1.19,1.19,0,0,0,.27.45.94.94,0,0,0,.4.24,1.6,1.6,0,0,0,.47.07,2.18,2.18,0,0,0,1.1-.25,1.58,1.58,0,0,0,.63-.68V45.43h1.77V53.3h-1.67Z"/><path d="M469.57,49.31a5.86,5.86,0,0,1,.21-1.64,3.83,3.83,0,0,1,.62-1.27,2.75,2.75,0,0,1,2.27-1.11,2.78,2.78,0,0,1,1.15.23,2.54,2.54,0,0,1,.87.65v-4h1.77V53.3h-1.6l-.09-.81a2.63,2.63,0,0,1-.9.71,2.78,2.78,0,0,1-1.22.25,2.71,2.71,0,0,1-1.28-.3,2.9,2.9,0,0,1-1-.83,3.94,3.94,0,0,1-.62-1.26,5.54,5.54,0,0,1-.22-1.59Zm1.77.15a4.73,4.73,0,0,0,.1,1,2.55,2.55,0,0,0,.31.81,1.62,1.62,0,0,0,.55.55,1.56,1.56,0,0,0,.81.2,1.68,1.68,0,0,0,1-.27,1.9,1.9,0,0,0,.61-.7V47.68a1.8,1.8,0,0,0-.61-.69,1.71,1.71,0,0,0-1-.25,1.56,1.56,0,0,0-.82.2,1.63,1.63,0,0,0-.55.55,2.58,2.58,0,0,0-.32.82,4.67,4.67,0,0,0-.1,1Z"/><path d="M478.31,43.39a.94.94,0,0,1,.26-.68,1,1,0,0,1,.74-.27,1,1,0,0,1,.74.27.93.93,0,0,1,.26.68.91.91,0,0,1-.26.67,1,1,0,0,1-.74.27,1,1,0,0,1-.74-.27A.92.92,0,0,1,478.31,43.39Zm1.88,9.91h-1.77V45.43h1.77Z"/><path d="M481.77,49.29a4.87,4.87,0,0,1,.25-1.59,3.76,3.76,0,0,1,.72-1.27,3.29,3.29,0,0,1,1.15-.84,3.69,3.69,0,0,1,1.53-.31,3.76,3.76,0,0,1,1.55.31,3.28,3.28,0,0,1,1.15.84,3.71,3.71,0,0,1,.72,1.27,4.92,4.92,0,0,1,.25,1.59v.15a5,5,0,0,1-.25,1.59,3.67,3.67,0,0,1-.72,1.27,3.27,3.27,0,0,1-1.15.84,4.09,4.09,0,0,1-3.08,0,3.26,3.26,0,0,1-1.15-.84A3.72,3.72,0,0,1,482,51a4.9,4.9,0,0,1-.25-1.59Zm1.77.15a4.48,4.48,0,0,0,.11,1,2.51,2.51,0,0,0,.34.82,1.64,1.64,0,0,0,1.45.76,1.63,1.63,0,0,0,1.44-.76,2.59,2.59,0,0,0,.34-.82,4.32,4.32,0,0,0,.11-1v-.15a4.24,4.24,0,0,0-.11-1,2.58,2.58,0,0,0-.34-.82,1.79,1.79,0,0,0-.59-.56,1.67,1.67,0,0,0-.85-.21,1.63,1.63,0,0,0-.85.21,1.82,1.82,0,0,0-.58.56,2.52,2.52,0,0,0-.34.82,4.4,4.4,0,0,0-.11,1Z"/><path d="M404.2,71.17h-.89l-6.09-9.06v9.06h-.9V60.58h.9l6.09,9.07V60.58h.89Z"/><path d="M409.73,71.32a3.46,3.46,0,0,1-1.42-.29,3.33,3.33,0,0,1-1.12-.8,3.69,3.69,0,0,1-.73-1.22,4.41,4.41,0,0,1-.26-1.55v-.31a4.73,4.73,0,0,1,.27-1.65,3.87,3.87,0,0,1,.74-1.26,3.32,3.32,0,0,1,1.07-.8,3,3,0,0,1,1.28-.28,3.15,3.15,0,0,1,1.33.27,2.75,2.75,0,0,1,1,.75,3.29,3.29,0,0,1,.6,1.14,4.9,4.9,0,0,1,.2,1.45v.53h-5.61v.17a3.72,3.72,0,0,0,.2,1.22,3.06,3.06,0,0,0,.55,1,2.61,2.61,0,0,0,.85.67,2.44,2.44,0,0,0,1.1.24,2.83,2.83,0,0,0,1.23-.25,2.71,2.71,0,0,0,1-.81l.55.42a3.82,3.82,0,0,1-.45.54,2.73,2.73,0,0,1-.6.44,3.2,3.2,0,0,1-.77.3A3.87,3.87,0,0,1,409.73,71.32Zm-.16-7.42a2.22,2.22,0,0,0-.92.19,2.28,2.28,0,0,0-.75.54,2.84,2.84,0,0,0-.53.84,4,4,0,0,0-.28,1.09h4.72v-.09a3.49,3.49,0,0,0-.16-1,2.56,2.56,0,0,0-.42-.82,2,2,0,0,0-1.66-.79Z"/><path d="M415.73,61.29v2h1.63V64h-1.63v5.24a2.16,2.16,0,0,0,.08.67,1,1,0,0,0,.23.39.71.71,0,0,0,.33.19,1.58,1.58,0,0,0,.39,0l.38,0,.33,0,0,.71a2,2,0,0,1-.42.09,4,4,0,0,1-.51,0,2.31,2.31,0,0,1-.69-.1,1.23,1.23,0,0,1-.54-.34,1.65,1.65,0,0,1-.35-.64,3.26,3.26,0,0,1-.13-1V64h-1.45V63.3h1.45v-2Z"/><path d="M421,69.36l.13.68.17-.71,1.89-6H424l1.87,6,.2.83.17-.76,1.61-6h.9l-2.29,7.87h-.74l-2-6.24-.09-.43-.09.44-2,6.23h-.74l-2.28-7.87h.89Z"/><path d="M429.91,67.12a4.83,4.83,0,0,1,.25-1.58,3.74,3.74,0,0,1,.71-1.25,3.25,3.25,0,0,1,1.11-.83,3.4,3.4,0,0,1,1.44-.3,3.47,3.47,0,0,1,1.46.3,3.24,3.24,0,0,1,1.11.83,3.69,3.69,0,0,1,.71,1.25,4.89,4.89,0,0,1,.25,1.58v.24a4.9,4.9,0,0,1-.25,1.59A3.69,3.69,0,0,1,436,70.2a3.2,3.2,0,0,1-1.11.82A3.7,3.7,0,0,1,432,71a3.23,3.23,0,0,1-1.11-.82,3.71,3.71,0,0,1-.71-1.25,4.84,4.84,0,0,1-.25-1.59Zm.87.24a4.3,4.3,0,0,0,.17,1.23,3.18,3.18,0,0,0,.51,1,2.5,2.5,0,0,0,.83.7,2.39,2.39,0,0,0,1.13.26,2.36,2.36,0,0,0,1.13-.26,2.51,2.51,0,0,0,.83-.7,3.18,3.18,0,0,0,.51-1,4.3,4.3,0,0,0,.17-1.23v-.24a4.24,4.24,0,0,0-.17-1.22,3.22,3.22,0,0,0-.51-1,2.51,2.51,0,0,0-.83-.71,2.38,2.38,0,0,0-1.14-.27,2.32,2.32,0,0,0-1.12.27,2.52,2.52,0,0,0-.83.71,3.22,3.22,0,0,0-.51,1,4.24,4.24,0,0,0-.17,1.22Z"/><path d="M442.36,64a3.31,3.31,0,0,0-.59-.05,2.31,2.31,0,0,0-.8.13,2,2,0,0,0-.63.37,2.17,2.17,0,0,0-.46.56,3.09,3.09,0,0,0-.29.72v5.4h-.87V63.3h.85v1.25a2.6,2.6,0,0,1,.87-1,2.34,2.34,0,0,1,1.35-.37l.33,0a1.09,1.09,0,0,1,.25.07Z"/><path d="M445.61,67.21l-1,1v3h-.87V60h.87v7.15l.82-.89,3-3h1.1l-3.34,3.32,3.63,4.55h-1Z"/><path d="M456,60.58l3.9,9.34,3.92-9.34h1.19V71.17h-.89V66.55l.07-4.71-3.94,9.34h-.69l-3.93-9.3.07,4.68v4.62h-.89V60.58Z"/><path d="M470.58,71.32a3.46,3.46,0,0,1-1.42-.29,3.33,3.33,0,0,1-1.12-.8,3.69,3.69,0,0,1-.73-1.22,4.41,4.41,0,0,1-.26-1.55v-.31a4.73,4.73,0,0,1,.27-1.65,3.87,3.87,0,0,1,.74-1.26,3.32,3.32,0,0,1,1.07-.8,3,3,0,0,1,1.28-.28,3.15,3.15,0,0,1,1.33.27,2.75,2.75,0,0,1,1,.75,3.29,3.29,0,0,1,.6,1.14,4.9,4.9,0,0,1,.2,1.45v.53h-5.61v.17a3.72,3.72,0,0,0,.2,1.22,3.06,3.06,0,0,0,.55,1,2.61,2.61,0,0,0,.85.67,2.44,2.44,0,0,0,1.1.24,2.83,2.83,0,0,0,1.23-.25,2.71,2.71,0,0,0,1-.81l.55.42a3.82,3.82,0,0,1-.45.54,2.73,2.73,0,0,1-.6.44,3.2,3.2,0,0,1-.77.3A3.87,3.87,0,0,1,470.58,71.32Zm-.16-7.42a2.22,2.22,0,0,0-.92.19,2.28,2.28,0,0,0-.75.54,2.84,2.84,0,0,0-.53.84,4,4,0,0,0-.28,1.09h4.72v-.09a3.49,3.49,0,0,0-.16-1,2.56,2.56,0,0,0-.42-.82,2,2,0,0,0-1.66-.79Z"/><path d="M474.88,67.16a6,6,0,0,1,.21-1.65,3.83,3.83,0,0,1,.6-1.26,2.7,2.7,0,0,1,1-.81,2.79,2.79,0,0,1,1.27-.28,2.91,2.91,0,0,1,1.44.33,2.86,2.86,0,0,1,1,.92V60h.87V71.17h-.81l0-1a2.76,2.76,0,0,1-1,.88,3.12,3.12,0,0,1-1.46.32,2.67,2.67,0,0,1-1.26-.29,2.81,2.81,0,0,1-1-.82,3.88,3.88,0,0,1-.6-1.26,5.86,5.86,0,0,1-.21-1.62Zm.88.15a5.61,5.61,0,0,0,.14,1.28,3.21,3.21,0,0,0,.42,1,2.07,2.07,0,0,0,.72.68,2,2,0,0,0,1,.25,2.86,2.86,0,0,0,.8-.11,2.28,2.28,0,0,0,.64-.29,2.14,2.14,0,0,0,.49-.45,2.91,2.91,0,0,0,.35-.57V65.45a3.54,3.54,0,0,0-.32-.57,2.19,2.19,0,0,0-.47-.49,2.21,2.21,0,0,0-.64-.34,2.55,2.55,0,0,0-.84-.13,2.06,2.06,0,0,0-1,.25,2.1,2.1,0,0,0-.72.69,3.21,3.21,0,0,0-.42,1,5.62,5.62,0,0,0-.14,1.28Z"/><path d="M483.45,61a.59.59,0,0,1,.16-.42.57.57,0,0,1,.44-.17.57.57,0,0,1,.6.59.57.57,0,0,1-.16.42.59.59,0,0,1-.44.17.56.56,0,0,1-.6-.58Zm1,10.14h-.87V63.3h.87Z"/><path d="M491.81,71.17a2.52,2.52,0,0,1-.11-.5q0-.29-.05-.6a3.12,3.12,0,0,1-1.07.87,3.68,3.68,0,0,1-.73.27,3.52,3.52,0,0,1-.87.1,3.09,3.09,0,0,1-1-.17,2.32,2.32,0,0,1-.8-.47,2.1,2.1,0,0,1-.51-.71,2.28,2.28,0,0,1,.07-1.92,2.24,2.24,0,0,1,.71-.79,3.47,3.47,0,0,1,1.13-.49A6,6,0,0,1,490,66.6h1.61V65.7a1.72,1.72,0,0,0-.52-1.33,2.15,2.15,0,0,0-1.52-.48,2.73,2.73,0,0,0-.84.12,2.14,2.14,0,0,0-.67.34,1.62,1.62,0,0,0-.44.51,1.26,1.26,0,0,0-.16.61h-.87a1.82,1.82,0,0,1,.22-.86,2.37,2.37,0,0,1,.61-.74,3.15,3.15,0,0,1,1-.52,3.68,3.68,0,0,1,1.23-.2,4,4,0,0,1,1.15.16,2.51,2.51,0,0,1,.91.48,2.19,2.19,0,0,1,.59.8,2.77,2.77,0,0,1,.21,1.12v3.81q0,.2,0,.42c0,.15,0,.29,0,.42s0,.27.08.39a2,2,0,0,0,.1.32v.09Zm-2.73-.62a3.07,3.07,0,0,0,.88-.12,2.85,2.85,0,0,0,.73-.33,2.58,2.58,0,0,0,.57-.49,2.49,2.49,0,0,0,.38-.61V67.27h-1.49a5.41,5.41,0,0,0-1.2.12,2.88,2.88,0,0,0-.89.34,1.65,1.65,0,0,0-.56.55,1.41,1.41,0,0,0-.19.73,1.46,1.46,0,0,0,.12.6,1.42,1.42,0,0,0,.35.49,1.69,1.69,0,0,0,.56.33A2.12,2.12,0,0,0,489.07,70.54Z"/><path d="M499.54,70.41h5.23v.76h-6.13V60.58h.9Z"/><path d="M511.25,71.17a2.52,2.52,0,0,1-.11-.5q0-.29-.05-.6a3.12,3.12,0,0,1-1.07.87,3.68,3.68,0,0,1-.73.27,3.52,3.52,0,0,1-.87.1,3.09,3.09,0,0,1-1-.17,2.32,2.32,0,0,1-.8-.47,2.1,2.1,0,0,1-.51-.71,2.28,2.28,0,0,1,.07-1.92,2.24,2.24,0,0,1,.71-.79,3.47,3.47,0,0,1,1.13-.49,6,6,0,0,1,1.49-.17h1.61V65.7a1.72,1.72,0,0,0-.52-1.33,2.15,2.15,0,0,0-1.52-.48,2.73,2.73,0,0,0-.84.12,2.14,2.14,0,0,0-.67.34,1.62,1.62,0,0,0-.44.51,1.26,1.26,0,0,0-.16.61h-.87a1.82,1.82,0,0,1,.22-.86,2.37,2.37,0,0,1,.61-.74,3.15,3.15,0,0,1,1-.52,3.68,3.68,0,0,1,1.23-.2,4,4,0,0,1,1.15.16,2.51,2.51,0,0,1,.91.48,2.19,2.19,0,0,1,.59.8,2.77,2.77,0,0,1,.21,1.12v3.81q0,.2,0,.42c0,.15,0,.29,0,.42s0,.27.08.39a2,2,0,0,0,.1.32v.09Zm-2.73-.62a3.07,3.07,0,0,0,.88-.12,2.85,2.85,0,0,0,.73-.33,2.58,2.58,0,0,0,.57-.49,2.49,2.49,0,0,0,.38-.61V67.27h-1.49a5.41,5.41,0,0,0-1.2.12,2.88,2.88,0,0,0-.89.34,1.65,1.65,0,0,0-.56.55,1.41,1.41,0,0,0-.19.73,1.46,1.46,0,0,0,.12.6,1.42,1.42,0,0,0,.35.49,1.69,1.69,0,0,0,.56.33A2.12,2.12,0,0,0,508.52,70.54Z"/><path d="M520.59,67.32a6.18,6.18,0,0,1-.2,1.62,3.82,3.82,0,0,1-.58,1.26,2.75,2.75,0,0,1-.95.82,2.7,2.7,0,0,1-1.27.29,3.12,3.12,0,0,1-1.48-.33,2.83,2.83,0,0,1-1-.89l0,1.08h-.81V60h.87v4.44a2.8,2.8,0,0,1,1-.95,3,3,0,0,1,1.46-.34,2.8,2.8,0,0,1,1.28.28,2.69,2.69,0,0,1,.95.81,3.74,3.74,0,0,1,.59,1.26,6.34,6.34,0,0,1,.2,1.65Zm-.87-.15a5.92,5.92,0,0,0-.13-1.28,3.12,3.12,0,0,0-.41-1,2,2,0,0,0-1.76-.94,2.59,2.59,0,0,0-.87.13,2.19,2.19,0,0,0-.65.36,2.24,2.24,0,0,0-.46.52,3.08,3.08,0,0,0-.31.6v3.55a2.87,2.87,0,0,0,.35.58,2.21,2.21,0,0,0,.49.47,2.28,2.28,0,0,0,.65.31,2.8,2.8,0,0,0,.83.11,2,2,0,0,0,1-.25,2.07,2.07,0,0,0,.72-.68,3.12,3.12,0,0,0,.42-1,5.79,5.79,0,0,0,.13-1.28Z"/></svg>