<svg id="Layer_1" data-name="Layer 1" xmlns="http://www.w3.org/2000/svg" xmlns:xlink="http://www.w3.org/1999/xlink" viewBox="0 0 550 600"><defs><style>.cls-1,.cls-3,.cls-4,.cls-7{fill:none;}.cls-10,.cls-2{fill:#fff;}.cls-2,.cls-5,.cls-6,.cls-8{fill-rule:evenodd;}.cls-3,.cls-4{stroke:#fff;}.cls-3,.cls-4,.cls-7{stroke-linecap:round;stroke-linejoin:round;}.cls-3,.cls-7{stroke-width:0.71px;}.cls-4{stroke-width:3px;}.cls-5,.cls-9{fill:#e5692f;}.cls-7{stroke:#91673b;}.cls-8{fill:#f5cdbf;}.cls-11{clip-path:url(#clip-path);}.cls-12{fill:#ef9c2e;}</style><clipPath id="clip-path"><rect class="cls-1" x="21" y="133.75" width="511" height="83.5"/></clipPath></defs><title>web-title</title><path class="cls-2" d="M167.31,80.81a41.12,41.12,0,0,0,7.06,0c2.61-.24,4.07-.33,6.06-1.39,6.89-3.71,6.66-15.57-.11-19.33-2.59-1.44-9.32-2.41-12.95-1.7Zm-2.93,3c4.63.5,14.32.28,17.62-1.53,8.79-4.84,9.22-19.63-.23-25-3.44-2-12.44-2.39-17.36-1.81Z"/><path class="cls-2" d="M302.07,65.24c-10.88,2.37-7.16,18.27,3.12,16.22,10.8-2.14,7.31-18.47-3.12-16.22m9.55,15.53.11,3.14c4.07.19,2.95.5,2.95-10.45,0-3.12.27-7.72-.05-10.67l-2.84-.1-.16,3.25c-1-.31-1.83-2.27-5-3.29a11.08,11.08,0,0,0-14.24,10.58,10.93,10.93,0,0,0,16.84,9.37A19.6,19.6,0,0,1,311.62,80.77Z"/><path class="cls-2" d="M244.47,65.29c-11.29,3.06-6,19.05,3.92,16,10.91-3.31,5.78-18.67-3.92-16m9.95,15.5,0,2.91,2.86,0V62.81h-2.91v3c-1.5-.44-1.51-2.13-5.17-3.19a12,12,0,0,0-7.47.44c-9.45,4.34-8.21,17.26.3,20.5a11.44,11.44,0,0,0,7.19.27A9.47,9.47,0,0,0,252,82.53C252.75,82,253.6,80.85,254.41,80.79Z"/><path class="cls-2" d="M265.09,57.07V83.66l3,.06c.36-14.69-1.86-13.55,3.52-13.54,2.25,0,9.69-.16,10.9.11l.05,13.53c3.74.06,3,1,3-7,0-5.21.3-17.73,0-21.39l-3-.07-.06,11.77c-1.58.2-13.17.23-14.33-.07l0-11.7c-3.74-.13-3-.06-3,1.69"/><path class="cls-2" d="M352,83.69c.61-.57.28-7.5.25-8.7,1.32.37,2.4,1.76,3.31,2.56l3.08,2.7c4.65,4.09,3.09,3.62,7.76,3.59-.27-1.74-10.7-9-11.78-11.09,1.66-2,11.07-8.89,11.2-10-4.36-.26-3.92,0-7.41,3-1.12,1-5,4.59-6.13,4.94V54.59l-3.08-.07,0,28.59c.13,1.27,2.4,1,2.84.57"/><path class="cls-2" d="M342.61,79.5a4.45,4.45,0,0,0-2.25-1.42,11.67,11.67,0,0,1-4,3c-4.81,1.93-12.14-.76-12.29-7.56-.2-9.16,11.89-11.21,16.14-5a4.26,4.26,0,0,0,2.33-1.3c-.66-3.61-8.19-5.95-13.41-4.44A10.94,10.94,0,0,0,329,83.84c4.94,1.51,12.34-.74,13.6-4.35"/><path class="cls-2" d="M370.52,79.4a4.3,4.3,0,0,0-1.59,1.79c1.05,2.74,6.4,4,9.47,2.34,2.78-1.49,4.55-5.68,2-8.89C378.5,72.19,374,71.11,372.8,69c-1.46-2.56,1.62-5.31,4.95-3.48,1,.53,1.12,1.1,2.19,1.26a4.07,4.07,0,0,0,1.6-1.77c-.73-1.32-5.78-4.35-9.41-1.79a5.54,5.54,0,0,0-.32,8.94c2.22,1.95,7.05,3,7,6.12a3.51,3.51,0,0,1-3.43,3.19c-2.61.17-3.23-1.56-4.82-2.09"/><path class="cls-2" d="M203.92,81.5l0-4.28,2.77,0v4.18c2.73,0,5.3-2.56,6.19-5.14,1.54-4.51.05-3.25-7.86-3.25-1.86,0-6.76-.23-8.25.11-.47,4.47,4.23,8.88,7.11,8.34"/><path class="cls-2" d="M224.57,65.06c-.08-2.8.38-2.48-2.79-2.37-.55,2.16-.23,17.73-.14,21l2.93,0c.07-4.84-.87-13.83,1.88-17.06,1.29-1.52,2.33-1.59,4.43-1.32a4.06,4.06,0,0,0,1.41-2.42c-4.47-2.16-6.59,1.74-7.72,2.18"/><path class="cls-2" d="M197.61,70.3h15.11c0-3.08-7.1-8-12.46-3.8-.81.62-2.74,2.25-2.66,3.79"/><path class="cls-2" d="M125.15,58.43h0a2.47,2.47,0,0,1,.7,1c1.15.08,1.7-.44,1.81-1.41C126.49,58.58,125.44,57.11,125.15,58.43Zm-10-.7h0a6.54,6.54,0,0,0-2.21,1.21c-1.21,2.77,6.91,4,5.42,1-.57.09-1.07.51-1.71.5a2.4,2.4,0,0,1-1.81-1c.41-.27.83.32,1.4.4a2.81,2.81,0,0,0,1.91-.4v-.7A2.08,2.08,0,0,1,115.11,57.73Zm-4.52.1h0c-.17.82.64,1.49,1.81,1.31a6.83,6.83,0,0,1,.7-1.11C112.57,57.18,111.6,58.32,110.59,57.83Zm13-3.11h0c-.3,0-.4.12-.6.2-.5.19-1.85.14-2.51.7a3.09,3.09,0,0,0-.6,2.41c.18.68,1.29.95,1.91.7s.86-1.22,1.4-1.91c-.07,1.39,2.59,1.59,2.11-.3-.52-.82-1.75-.08-2.21-.4.32-.31.54-.73,1.31-.6A1.08,1.08,0,0,0,123.64,54.72Zm-8,.2h0c-.39-.76-2.05-.29-1.81.4.67-.07,1.36.28,1.11.8-.51-.24-1.65-.36-2,.1-.13,1.07.21,1.67,1.3,1.51.36-.24.48-.72.8-1,.44.22.29.81.6,1.2a2.09,2.09,0,0,0,1.6.7c.55-.07.7-.48,1.1-.9Q118.43,54.86,115.61,54.92Zm11.44,0h0c1.44.55,1,2.54.9,4,1.67-.85,1.3-4.6-1-4.52C126.87,54.7,127.1,54.68,127.05,54.92Zm-16.76,3.81h0a18.69,18.69,0,0,1-.3-2.21c.06-1.18,1-1.42,1.2-2.31C108.93,54.07,108.56,58,110.29,58.73Zm14-5.32h0a7.08,7.08,0,0,1-.4.9c1,.35,1.2,1.55,1.91,2.21-.13.63.32.68.4,1.11,1.51.6,2-1.14,1.1-2.11-.5-.49-1.73.15-2.11-.3a2.07,2.07,0,0,1,1.41-.5C126.37,53.7,125.59,53.28,124.25,53.41ZM111.6,54.52h0c.33.11,1.51-.13,1.41.7-1.5-.37-2.79.09-2.51,1.81.32.52,1.35.47,1.81.1,0-1.22.95-1.53,1.2-2.51.18-.29.67-.27.8-.6-.07-.34-.31-.49-.4-.81C112.57,53.08,111.83,53.54,111.6,54.52Zm8.93.7h0c0-.14.22-.12.3-.2-.09-.5-.47-.58-.5-1.11s.17-1.24-.3-1.51C119.59,53.24,119.58,54.95,120.53,55.22ZM117.82,54h0c0,.36-.43.37-.5.7,1.09,1.08,1.52-2,.7-2.61A3.55,3.55,0,0,0,117.82,54Zm5.92-.4h0c.25-1-1-2.11-1.51-2.21-1.07-.2-1.75.34-1.5,1.61.74-.09,1.41-.16,1.5.6-.29.14-1-.35-1.4.1C121,55.31,123.51,54.5,123.74,53.61Zm-9.34-.5h0c.09,1.2,2.62,2,3,.5-.31-.61-1.13,0-1.51-.2.06-.86,1.07-.58,1.51-.6.38-.77-.23-1.36-.6-1.71C115.61,51,114.33,52.07,114.41,53.11Zm10.94,7.13h0a4.08,4.08,0,0,0-.1-1.21,23.51,23.51,0,0,0-2.11-1.1,2.15,2.15,0,0,1-3.11,1c-.1,1.08,1,1.23,1.91,1.11.58-.08,1-.7,1.4-.4-.54,1.18-2.31,1.06-3.51.6-.39.41-.08,1.08.2,1.41C121.83,62.17,124.51,61.61,125.35,60.24Z"/><path class="cls-3" d="M125.15,58.43h0a2.47,2.47,0,0,1,.7,1c1.15.08,1.7-.44,1.81-1.41C126.49,58.58,125.44,57.11,125.15,58.43Zm-10-.7h0a6.54,6.54,0,0,0-2.21,1.21c-1.21,2.77,6.91,4,5.42,1-.57.09-1.07.51-1.71.5a2.4,2.4,0,0,1-1.81-1c.41-.27.83.32,1.4.4a2.81,2.81,0,0,0,1.91-.4v-.7A2.08,2.08,0,0,1,115.11,57.73Zm-4.52.1h0c-.17.82.64,1.49,1.81,1.31a6.83,6.83,0,0,1,.7-1.11C112.57,57.18,111.6,58.32,110.59,57.83Zm13-3.11h0c-.3,0-.4.12-.6.2-.5.19-1.85.14-2.51.7a3.09,3.09,0,0,0-.6,2.41c.18.68,1.29.95,1.91.7s.86-1.22,1.4-1.91c-.07,1.39,2.59,1.59,2.11-.3-.52-.82-1.75-.08-2.21-.4.32-.31.54-.73,1.31-.6A1.08,1.08,0,0,0,123.64,54.72Zm-8,.2h0c-.39-.76-2.05-.29-1.81.4.67-.07,1.36.28,1.11.8-.51-.24-1.65-.36-2,.1-.13,1.07.21,1.67,1.3,1.51.36-.24.48-.72.8-1,.44.22.29.81.6,1.2a2.09,2.09,0,0,0,1.6.7c.55-.07.7-.48,1.1-.9Q118.43,54.86,115.61,54.92Zm11.44,0h0c1.44.55,1,2.54.9,4,1.67-.85,1.3-4.6-1-4.52C126.87,54.7,127.1,54.68,127.05,54.92Zm-16.76,3.81h0a18.69,18.69,0,0,1-.3-2.21c.06-1.18,1-1.42,1.2-2.31C108.93,54.07,108.56,58,110.29,58.73Zm14-5.32h0a7.08,7.08,0,0,1-.4.9c1,.35,1.2,1.55,1.91,2.21-.13.63.32.68.4,1.11,1.51.6,2-1.14,1.1-2.11-.5-.49-1.73.15-2.11-.3a2.07,2.07,0,0,1,1.41-.5C126.37,53.7,125.59,53.28,124.25,53.41ZM111.6,54.52h0c.33.11,1.51-.13,1.41.7-1.5-.37-2.79.09-2.51,1.81.32.52,1.35.47,1.81.1,0-1.22.95-1.53,1.2-2.51.18-.29.67-.27.8-.6-.07-.34-.31-.49-.4-.81C112.57,53.08,111.83,53.54,111.6,54.52Zm8.93.7h0c0-.14.22-.12.3-.2-.09-.5-.47-.58-.5-1.11s.17-1.24-.3-1.51C119.59,53.24,119.58,54.95,120.53,55.22ZM117.82,54h0c0,.36-.43.37-.5.7,1.09,1.08,1.52-2,.7-2.61A3.55,3.55,0,0,0,117.82,54Zm5.92-.4h0c.25-1-1-2.11-1.51-2.21-1.07-.2-1.75.34-1.5,1.61.74-.09,1.41-.16,1.5.6-.29.14-1-.35-1.4.1C121,55.31,123.51,54.5,123.74,53.61Zm-9.34-.5h0c.09,1.2,2.62,2,3,.5-.31-.61-1.13,0-1.51-.2.06-.86,1.07-.58,1.51-.6.38-.77-.23-1.36-.6-1.71C115.61,51,114.33,52.07,114.41,53.11Zm10.94,7.13h0a4.08,4.08,0,0,0-.1-1.21,23.51,23.51,0,0,0-2.11-1.1,2.15,2.15,0,0,1-3.11,1c-.1,1.08,1,1.23,1.91,1.11.58-.08,1-.7,1.4-.4-.54,1.18-2.31,1.06-3.51.6-.39.41-.08,1.08.2,1.41C121.83,62.17,124.51,61.61,125.35,60.24Z"/><path class="cls-4" d="M123,70.37c11.4-1.59,21,.17,21.42,3.93S136,82.4,124.54,84s-21-.17-21.42-3.93S111.6,72,123,70.37Z"/><path class="cls-5" d="M123,70.37c11.4-1.59,21,.17,21.42,3.93S136,82.4,124.54,84s-21-.17-21.42-3.93S111.6,72,123,70.37"/><path class="cls-4" d="M104.87,45.88c2.13.09,5.33,3,7.73,4.82a18,18,0,0,1,8.63-1.2,12.89,12.89,0,0,1,4.22,1.4c1.26-.92,2.42-2,3.82-2.91S132,46,134,46.28a8.47,8.47,0,0,1,.1,4.32c-.36,2.57-1,5.21-1.61,7.83a31.57,31.57,0,0,0-1,3.71,15.37,15.37,0,0,0,.8,5.22c.42,1.56.63,3.24,1.61,4.32,5.34,4.43,10.06,10.81,11,14a2.78,2.78,0,0,1-.6,3.11,3.59,3.59,0,0,1-4.72-.1,27.6,27.6,0,0,1-3.21-3.31A32.15,32.15,0,0,0,134,82.93a1.45,1.45,0,0,0-.89-.47,7.3,7.3,0,0,0-2,.5,44.92,44.92,0,0,1-5.93,1.17c.77,1,2.41,2.39,3.41,3.61.58.7,1.58,1.75,1.41,3-.09.68-.52.69-.8,1.3-1.1.47-1.68,1.09-3.41.9a9.15,9.15,0,0,1-2.81-.9c-.44-.23-1-.58-1.5-.9-12.5-7.92-13-15.53-14.46-28.41-.4-3.57-1.91-8-2.51-11.95C104.22,49.16,103.64,46.44,104.87,45.88Z"/><path class="cls-6" d="M104.87,45.88c2.13.09,5.33,3,7.73,4.82a18,18,0,0,1,8.63-1.2,12.89,12.89,0,0,1,4.22,1.4c1.26-.92,2.42-2,3.82-2.91S132,46,134,46.28a8.47,8.47,0,0,1,.1,4.32c-.36,2.57-1,5.21-1.61,7.83a31.57,31.57,0,0,0-1,3.71,15.37,15.37,0,0,0,.8,5.22c.42,1.56.63,3.24,1.61,4.32,5.34,4.43,10.06,10.81,11,14a2.78,2.78,0,0,1-.6,3.11,3.59,3.59,0,0,1-4.72-.1,27.6,27.6,0,0,1-3.21-3.31A32.15,32.15,0,0,0,134,82.93a1.45,1.45,0,0,0-.89-.47,7.3,7.3,0,0,0-2,.5,44.92,44.92,0,0,1-5.93,1.17c.77,1,2.41,2.39,3.41,3.61.58.7,1.58,1.75,1.41,3-.09.68-.52.69-.8,1.3-1.1.47-1.68,1.09-3.41.9a9.15,9.15,0,0,1-2.81-.9c-.44-.23-1-.58-1.5-.9-12.5-7.92-13-15.53-14.46-28.41-.4-3.57-1.91-8-2.51-11.95-.25-1.65-.83-4.37.4-4.92"/><path class="cls-7" d="M125.15,58.43h0a2.47,2.47,0,0,1,.7,1c1.15.08,1.7-.44,1.81-1.41C126.49,58.58,125.44,57.11,125.15,58.43Zm-10-.7h0a6.54,6.54,0,0,0-2.21,1.21c-1.21,2.77,6.91,4,5.42,1-.57.09-1.07.51-1.71.5a2.4,2.4,0,0,1-1.81-1c.41-.27.83.32,1.4.4a2.81,2.81,0,0,0,1.91-.4v-.7A2.08,2.08,0,0,1,115.11,57.73Zm-4.52.1h0c-.17.82.64,1.49,1.81,1.31a6.83,6.83,0,0,1,.7-1.11C112.57,57.18,111.6,58.32,110.59,57.83Zm13-3.11h0c-.3,0-.4.12-.6.2-.5.19-1.85.14-2.51.7a3.09,3.09,0,0,0-.6,2.41c.18.68,1.29.95,1.91.7s.86-1.22,1.4-1.91c-.07,1.39,2.59,1.59,2.11-.3-.52-.82-1.75-.08-2.21-.4.32-.31.54-.73,1.31-.6A1.08,1.08,0,0,0,123.64,54.72Zm-8,.2h0c-.39-.76-2.05-.29-1.81.4.67-.07,1.36.28,1.11.8-.51-.24-1.65-.36-2,.1-.13,1.07.21,1.67,1.3,1.51.36-.24.48-.72.8-1,.44.22.29.81.6,1.2a2.09,2.09,0,0,0,1.6.7c.55-.07.7-.48,1.1-.9Q118.43,54.86,115.61,54.92Zm11.44,0h0c1.44.55,1,2.54.9,4,1.67-.85,1.3-4.6-1-4.52C126.87,54.7,127.1,54.68,127.05,54.92Zm-16.76,3.81h0a18.69,18.69,0,0,1-.3-2.21c.06-1.18,1-1.42,1.2-2.31C108.93,54.07,108.56,58,110.29,58.73Zm14-5.32h0a7.08,7.08,0,0,1-.4.9c1,.35,1.2,1.55,1.91,2.21-.13.63.32.68.4,1.11,1.51.6,2-1.14,1.1-2.11-.5-.49-1.73.15-2.11-.3a2.07,2.07,0,0,1,1.41-.5C126.37,53.7,125.59,53.28,124.25,53.41ZM111.6,54.52h0c.33.11,1.51-.13,1.41.7-1.5-.37-2.79.09-2.51,1.81.32.52,1.35.47,1.81.1,0-1.22.95-1.53,1.2-2.51.18-.29.67-.27.8-.6-.07-.34-.31-.49-.4-.81C112.57,53.08,111.83,53.54,111.6,54.52Zm8.93.7h0c0-.14.22-.12.3-.2-.09-.5-.47-.58-.5-1.11s.17-1.24-.3-1.51C119.59,53.24,119.58,54.95,120.53,55.22ZM117.82,54h0c0,.36-.43.37-.5.7,1.09,1.08,1.52-2,.7-2.61A3.55,3.55,0,0,0,117.82,54Zm5.92-.4h0c.25-1-1-2.11-1.51-2.21-1.07-.2-1.75.34-1.5,1.61.74-.09,1.41-.16,1.5.6-.29.14-1-.35-1.4.1C121,55.31,123.51,54.5,123.74,53.61Zm-9.34-.5h0c.09,1.2,2.62,2,3,.5-.31-.61-1.13,0-1.51-.2.06-.86,1.07-.58,1.51-.6.38-.77-.23-1.36-.6-1.71C115.61,51,114.33,52.07,114.41,53.11Zm10.94,7.13h0a4.08,4.08,0,0,0-.1-1.21,23.51,23.51,0,0,0-2.11-1.1,2.15,2.15,0,0,1-3.11,1c-.1,1.08,1,1.23,1.91,1.11.58-.08,1-.7,1.4-.4-.54,1.18-2.31,1.06-3.51.6-.39.41-.08,1.08.2,1.41C121.83,62.17,124.51,61.61,125.35,60.24Z"/><path class="cls-7" d="M125.15,58.43h0a2.47,2.47,0,0,1,.7,1c1.15.08,1.7-.44,1.81-1.41C126.49,58.58,125.44,57.11,125.15,58.43Zm-10-.7h0a6.54,6.54,0,0,0-2.21,1.21c-1.21,2.77,6.91,4,5.42,1-.57.09-1.07.51-1.71.5a2.4,2.4,0,0,1-1.81-1c.41-.27.83.32,1.4.4a2.81,2.81,0,0,0,1.91-.4v-.7A2.08,2.08,0,0,1,115.11,57.73Zm-4.52.1h0c-.17.82.64,1.49,1.81,1.31a6.83,6.83,0,0,1,.7-1.11C112.57,57.18,111.6,58.32,110.59,57.83Zm13-3.11h0c-.3,0-.4.12-.6.2-.5.19-1.85.14-2.51.7a3.09,3.09,0,0,0-.6,2.41c.18.68,1.29.95,1.91.7s.86-1.22,1.4-1.91c-.07,1.39,2.59,1.59,2.11-.3-.52-.82-1.75-.08-2.21-.4.32-.31.54-.73,1.31-.6A1.08,1.08,0,0,0,123.64,54.72Zm-8,.2h0c-.39-.76-2.05-.29-1.81.4.67-.07,1.36.28,1.11.8-.51-.24-1.65-.36-2,.1-.13,1.07.21,1.67,1.3,1.51.36-.24.48-.72.8-1,.44.22.29.81.6,1.2a2.09,2.09,0,0,0,1.6.7c.55-.07.7-.48,1.1-.9Q118.43,54.86,115.61,54.92Zm11.44,0h0c1.44.55,1,2.54.9,4,1.67-.85,1.3-4.6-1-4.52C126.87,54.7,127.1,54.68,127.05,54.92Zm-16.76,3.81h0a18.69,18.69,0,0,1-.3-2.21c.06-1.18,1-1.42,1.2-2.31C108.93,54.07,108.56,58,110.29,58.73Zm14-5.32h0a7.08,7.08,0,0,1-.4.9c1,.35,1.2,1.55,1.91,2.21-.13.63.32.68.4,1.11,1.51.6,2-1.14,1.1-2.11-.5-.49-1.73.15-2.11-.3a2.07,2.07,0,0,1,1.41-.5C126.37,53.7,125.59,53.28,124.25,53.41ZM111.6,54.52h0c.33.11,1.51-.13,1.41.7-1.5-.37-2.79.09-2.51,1.81.32.52,1.35.47,1.81.1,0-1.22.95-1.53,1.2-2.51.18-.29.67-.27.8-.6-.07-.34-.31-.49-.4-.81C112.57,53.08,111.83,53.54,111.6,54.52Zm8.93.7h0c0-.14.22-.12.3-.2-.09-.5-.47-.58-.5-1.11s.17-1.24-.3-1.51C119.59,53.24,119.58,54.95,120.53,55.22ZM117.82,54h0c0,.36-.43.37-.5.7,1.09,1.08,1.52-2,.7-2.61A3.55,3.55,0,0,0,117.82,54Zm5.92-.4h0c.25-1-1-2.11-1.51-2.21-1.07-.2-1.75.34-1.5,1.61.74-.09,1.41-.16,1.5.6-.29.14-1-.35-1.4.1C121,55.31,123.51,54.5,123.74,53.61Zm-9.34-.5h0c.09,1.2,2.62,2,3,.5-.31-.61-1.13,0-1.51-.2.06-.86,1.07-.58,1.51-.6.38-.77-.23-1.36-.6-1.71C115.61,51,114.33,52.07,114.41,53.11Zm10.94,7.13h0a4.08,4.08,0,0,0-.1-1.21,23.51,23.51,0,0,0-2.11-1.1,2.15,2.15,0,0,1-3.11,1c-.1,1.08,1,1.23,1.91,1.11.58-.08,1-.7,1.4-.4-.54,1.18-2.31,1.06-3.51.6-.39.41-.08,1.08.2,1.41C121.83,62.17,124.51,61.61,125.35,60.24Z"/><path class="cls-8" d="M125.15,58.43h0a2.47,2.47,0,0,1,.7,1c1.15.08,1.7-.44,1.81-1.41-1.16.55-2.22-.92-2.51.4m-10-.7h0a6.54,6.54,0,0,0-2.21,1.21c-1.21,2.77,6.91,4,5.42,1-.57.09-1.07.51-1.71.5a2.4,2.4,0,0,1-1.81-1c.41-.27.83.32,1.4.4a2.81,2.81,0,0,0,1.91-.4v-.7A2.08,2.08,0,0,1,115.11,57.73Zm-4.52.1h0c-.17.82.64,1.49,1.81,1.31a6.83,6.83,0,0,1,.7-1.11C112.57,57.18,111.6,58.32,110.59,57.83Zm13-3.11h0c-.3,0-.4.12-.6.2-.5.19-1.85.14-2.51.7a3.09,3.09,0,0,0-.6,2.41c.18.68,1.29.95,1.91.7s.86-1.22,1.4-1.91c-.07,1.39,2.59,1.59,2.11-.3-.52-.82-1.75-.08-2.21-.4.32-.31.54-.73,1.31-.6A1.08,1.08,0,0,0,123.64,54.72Zm-8,.2h0c-.39-.76-2.05-.29-1.81.4.67-.07,1.36.28,1.11.8-.51-.24-1.65-.36-2,.1-.13,1.07.21,1.67,1.3,1.51.36-.24.48-.72.8-1,.44.22.29.81.6,1.2a2.09,2.09,0,0,0,1.6.7c.55-.07.7-.48,1.1-.9Q118.43,54.86,115.61,54.92Zm11.44,0h0c1.44.55,1,2.54.9,4,1.67-.85,1.3-4.6-1-4.52C126.87,54.7,127.1,54.68,127.05,54.92Zm-16.76,3.81h0a18.69,18.69,0,0,1-.3-2.21c.06-1.18,1-1.42,1.2-2.31C108.93,54.07,108.56,58,110.29,58.73Zm14-5.32h0a7.08,7.08,0,0,1-.4.9c1,.35,1.2,1.55,1.91,2.21-.13.63.32.68.4,1.11,1.51.6,2-1.14,1.1-2.11-.5-.49-1.73.15-2.11-.3a2.07,2.07,0,0,1,1.41-.5C126.37,53.7,125.59,53.28,124.25,53.41ZM111.6,54.52h0c.33.11,1.51-.13,1.41.7-1.5-.37-2.79.09-2.51,1.81.32.52,1.35.47,1.81.1,0-1.22.95-1.53,1.2-2.51.18-.29.67-.27.8-.6-.07-.34-.31-.49-.4-.81C112.57,53.08,111.83,53.54,111.6,54.52Zm8.93.7h0c0-.14.22-.12.3-.2-.09-.5-.47-.58-.5-1.11s.17-1.24-.3-1.51C119.59,53.24,119.58,54.95,120.53,55.22ZM117.82,54h0c0,.36-.43.37-.5.7,1.09,1.08,1.52-2,.7-2.61A3.55,3.55,0,0,0,117.82,54Zm5.92-.4h0c.25-1-1-2.11-1.51-2.21-1.07-.2-1.75.34-1.5,1.61.74-.09,1.41-.16,1.5.6-.29.14-1-.35-1.4.1C121,55.31,123.51,54.5,123.74,53.61Zm-9.34-.5h0c.09,1.2,2.62,2,3,.5-.31-.61-1.13,0-1.51-.2.06-.86,1.07-.58,1.51-.6.38-.77-.23-1.36-.6-1.71C115.61,51,114.33,52.07,114.41,53.11Zm10.94,7.13h0a4.08,4.08,0,0,0-.1-1.21,23.51,23.51,0,0,0-2.11-1.1,2.15,2.15,0,0,1-3.11,1c-.1,1.08,1,1.23,1.91,1.11.58-.08,1-.7,1.4-.4-.54,1.18-2.31,1.06-3.51.6-.39.41-.08,1.08.2,1.41C121.83,62.17,124.51,61.61,125.35,60.24Z"/><path class="cls-9" d="M448.43,60.66a4.49,4.49,0,0,0-1.72-.82,10.28,10.28,0,0,0-2.19-.29l-5.51,0-1.75,10,5.8,0a9.53,9.53,0,0,0,2.37-.33,6.3,6.3,0,0,0,2-1,5.31,5.31,0,0,0,2.23-3.9,4.87,4.87,0,0,0-.22-2.21A3.38,3.38,0,0,0,448.43,60.66Z"/><path class="cls-9" d="M443.74,71.39l-6.78,0-1.89,10.84,6.36,0a8.9,8.9,0,0,0,2.56-.36,6.93,6.93,0,0,0,2.17-1.07A5.83,5.83,0,0,0,447.74,79a6.33,6.33,0,0,0,.78-2.48,5.37,5.37,0,0,0-.16-2.15,3.9,3.9,0,0,0-.93-1.6,4.26,4.26,0,0,0-1.58-1A6.58,6.58,0,0,0,443.74,71.39Z"/><path class="cls-9" d="M418.08,68a5.22,5.22,0,0,0-1.36-.25,4.87,4.87,0,0,0-2,.35A5.88,5.88,0,0,0,413,69.16a8,8,0,0,0-1.35,1.56,13.34,13.34,0,0,0-1,1.87,15.47,15.47,0,0,0-.75,2q-.3,1-.48,1.9-.09.49-.18,1.13a12.94,12.94,0,0,0-.12,1.32,7.64,7.64,0,0,0,.06,1.34,4,4,0,0,0,.35,1.19,2.41,2.41,0,0,0,.72.88,2.12,2.12,0,0,0,1.21.39,3.83,3.83,0,0,0,1.84-.35,5.93,5.93,0,0,0,1.59-1.07,7.64,7.64,0,0,0,1.25-1.53,8.33,8.33,0,0,0,.83-1.69l2.36-9.45A4.23,4.23,0,0,0,418.08,68Z"/><path class="cls-9" d="M396.12,42.93l-9.45,48.6h19.56A9.56,9.56,0,0,1,401.07,87a13.46,13.46,0,0,1-1.28-3.46,17.79,17.79,0,0,1-.42-3.91,23,23,0,0,1,.38-4.14A24.41,24.41,0,0,1,401,71.11,23.49,23.49,0,0,1,403,67a21.81,21.81,0,0,1,2.75-3.55,17.43,17.43,0,0,1,3.42-2.78,16.57,16.57,0,0,1,4-1.81,15.31,15.31,0,0,1,4.61-.61,13.66,13.66,0,0,1,4.25.67,9.87,9.87,0,0,1,3.18,1.76,9.4,9.4,0,0,1,2.18,2.65,12.82,12.82,0,0,1,1.26,3.35,17.05,17.05,0,0,1,.42,3.84,24.3,24.3,0,0,1-.36,4.13,19.22,19.22,0,0,1-.52,2.22,17,17,0,0,1-.84,2.25,13.23,13.23,0,0,1-1.18,2.08,8.78,8.78,0,0,1-1.55,1.71,6.87,6.87,0,0,1-1.94,1.15,5.93,5.93,0,0,1-2.35.38,4.3,4.3,0,0,1-1.46-.27,3.62,3.62,0,0,1-1.15-.7A3.13,3.13,0,0,1,417,82.4a4.29,4.29,0,0,1-.34-1.45,17.34,17.34,0,0,1-1.13,1.36,7.71,7.71,0,0,1-1.31,1.15,6.15,6.15,0,0,1-1.54.77,4.86,4.86,0,0,1-1.77.25,3.63,3.63,0,0,1-1.71-.44,3.39,3.39,0,0,1-1.13-1,4.49,4.49,0,0,1-.64-1.46,9.08,9.08,0,0,1-.25-1.7,13,13,0,0,1,0-1.75,15,15,0,0,1,.22-1.62,17.17,17.17,0,0,1,.6-2.32,17.35,17.35,0,0,1,1-2.36,15.68,15.68,0,0,1,1.34-2.2,9.62,9.62,0,0,1,1.72-1.82,7.86,7.86,0,0,1,2.09-1.22,6.44,6.44,0,0,1,2.46-.43,6,6,0,0,1,2.46.55,9.56,9.56,0,0,1,2.1,1.4L418.74,78.5a13.45,13.45,0,0,0-.16,1.41,4.29,4.29,0,0,0,.14,1.41,2.43,2.43,0,0,0,.65,1.11,2,2,0,0,0,1.34.49,4.07,4.07,0,0,0,1.85-.34,5,5,0,0,0,1.48-1A7.47,7.47,0,0,0,425.18,80a12.81,12.81,0,0,0,.86-1.78,15.85,15.85,0,0,0,.6-1.85c.16-.62.28-1.19.38-1.73a27.39,27.39,0,0,0,.39-3.71,16,16,0,0,0-.24-3.45,11.15,11.15,0,0,0-1-3,7.72,7.72,0,0,0-1.84-2.37,8.37,8.37,0,0,0-2.79-1.57A12.38,12.38,0,0,0,417.7,60a13.27,13.27,0,0,0-4.12.55,14.33,14.33,0,0,0-3.6,1.66,16,16,0,0,0-3,2.55,20.08,20.08,0,0,0-2.44,3.21,22.08,22.08,0,0,0-1.8,3.66,23.35,23.35,0,0,0-1.12,3.91,21.83,21.83,0,0,0-.39,3.6,16.86,16.86,0,0,0,.26,3.49,12.49,12.49,0,0,0,1,3.14,8.72,8.72,0,0,0,1.84,2.55A8.34,8.34,0,0,0,407.06,90a10.47,10.47,0,0,0,3.75.65,11.92,11.92,0,0,0,3.15-.35,15.45,15.45,0,0,0,3-1.07l.42,1.49a10.22,10.22,0,0,1-1.63.77h65.45l9.45-48.6Zm55.82,21.5a6.49,6.49,0,0,1-.53,2.05,6.56,6.56,0,0,1-1.08,1.67,7.14,7.14,0,0,1-1.55,1.3,9.65,9.65,0,0,1-1.9.92,5.23,5.23,0,0,1,1.75.92,5.39,5.39,0,0,1,1.24,1.43,5.85,5.85,0,0,1,.7,1.79,7,7,0,0,1,.14,2,7.94,7.94,0,0,1-1,3.33,7.69,7.69,0,0,1-2.07,2.39,8.85,8.85,0,0,1-2.89,1.43,11.82,11.82,0,0,1-3.43.45h-8.85l4.6-26.47,7.45,0a12.33,12.33,0,0,1,3,.43A6.69,6.69,0,0,1,450,59.28a5.17,5.17,0,0,1,1.55,2.09A6.41,6.41,0,0,1,451.94,64.43Zm22,19.67h-2.24l2.22-12.69H459.26L457,84.1h-2.22l4.6-26.47h2.22l-2.07,11.89h14.62l2.07-11.89h2.25Z"/><polygon class="cls-9" points="73.21 91.53 59.38 91.53 68.83 42.93 82.66 42.93 73.21 91.53"/><rect class="cls-10" x="22" y="133.75" width="511" height="83.5"/><g class="cls-11"><g id="Icon-Trophy"><path id="Fill-1" class="cls-12" d="M130.78,186.64c7.87-10.84,19.61-27.35,6.61-70.62l-1-3.4L60.78,135.33l1,3.4c13.07,43.51,31.89,50.57,44.43,55.28,7.22,2.87,10.87,4.42,12.47,9.77l3.14,10.45c-5.44,2.17-10.13,6-10.84,10.68l-7.78,2.34a7.09,7.09,0,0,0-4.76,8.85l61.73-18.55a7.09,7.09,0,0,0-8.85-4.76l-7.78,2.34c-3.19-3.55-9.12-3.89-14.93-2.94l-3.14-10.45c-1.44-5.66.75-9,5.27-15.1Zm-11.57,5.6c-3.06-2.26-6.64-3.57-10.21-4.88C97.58,182.84,81.78,177,69.88,140l61.73-18.55c10.44,37.41.72,50.92-6.56,61.06-2.26,3.06-4.52,6.13-5.83,9.7Z"/><path id="Fill-2" class="cls-12" d="M95,188.38c-.49.15-39.52,3.39-51.57-36.71l-1-3.4L66.47,141l2,6.81-17,5.11c11.44,31,42.43,28.33,42.74,28.5l.76,6.93"/><path id="Fill-3" class="cls-12" d="M137.29,175.68l-3.5-6.37c1.14-.61,27.51-15.15,20-47.33l-17,5.11-2-6.81L159,113l1,3.4c12.12,40.35-22.24,59.15-22.73,59.29"/></g></g><path d="M205.09,152.91h2.14V177.7h-2.14v-6.22c-2.5,1.1-5.06,2.14-7.09,3l-1-2.08c2.05-.67,5-1.83,8-3v-7.88h-7.2v-2.05h7.2Zm14.41,22.37c1.32,0,1.52-1.15,1.72-5.82a6.42,6.42,0,0,0,2,1c-.25,5.12-.84,6.89-3.57,6.89h-4.39c-2.65,0-3.4-.82-3.4-3.77V152.91H214v9.34a45.05,45.05,0,0,0,6.95-5.09l1.69,1.74a62.42,62.42,0,0,1-8.64,5.51v9.17c0,1.44.23,1.69,1.46,1.69Z"/><path d="M235.76,175.53c0,1-.23,1.58-.9,1.91a8.35,8.35,0,0,1-3.4.37,6.61,6.61,0,0,0-.59-1.83c1.21.06,2.25,0,2.56,0s.48-.14.48-.48v-9.31h-4.73c0,3.74-.31,8.78-2.39,12a5.48,5.48,0,0,0-1.58-1c1.94-3.09,2.11-7.48,2.11-11h-2V164.5h2v-8.81h2.45a31.6,31.6,0,0,0,.93-3.54l2.11.42c-.39,1-.79,2.2-1.15,3.12h4.11Zm-1.86-11v-7.12h-4.73v7.12Zm-2.11,7.68a30.7,30.7,0,0,0-2-4.33l1.32-.59a34.94,34.94,0,0,1,2.11,4.28Zm-.62-13.42a31.15,31.15,0,0,1,1.72,3.88l-1.41.65a25.67,25.67,0,0,0-1.66-4ZM248.93,176a.83.83,0,0,0,.56-.14,1.42,1.42,0,0,0,.28-.79c.06-.51.08-1.58.08-3a4.57,4.57,0,0,0,1.41.76,29.58,29.58,0,0,1-.23,3.43,2.08,2.08,0,0,1-.7,1.15,2.3,2.3,0,0,1-1.35.34h-1.24a2.25,2.25,0,0,1-1.52-.51c-.39-.37-.53-.84-.53-2.76v-11h-4.81v4.28c0,3.26-.51,7.54-3.38,10.41a7.81,7.81,0,0,0-1.63-1.18c2.73-2.65,3.07-6.36,3.07-9.29V161.6h8.72v13c0,.7,0,1.13.14,1.24a.58.58,0,0,0,.45.14Zm1.83-17.11H236.52V157h14.24Zm-8-6.78a33.27,33.27,0,0,1,2,4.22l-2,.7a29.69,29.69,0,0,0-1.91-4.33Z"/><path d="M274.59,167.51c1.94,4.47,5.66,7.43,11.23,8.58a9,9,0,0,0-1.35,1.86c-5.88-1.46-9.65-4.78-11.76-10-1.29,4-4.42,7.65-11.65,10a7.66,7.66,0,0,0-1.15-1.77c6.53-2.17,9.43-5.32,10.69-8.75H260.13v-2.05h3.1v-9.23h8.24v-3.91h2.08v3.91h8.75v9.23h2.9v2.05Zm-3.46-2.05a23.12,23.12,0,0,0,.34-4.16v-3h-6.19v7.2Zm2.42-7.2v3a25.89,25.89,0,0,1-.28,4.16h6.87v-7.2Z"/><path d="M294.91,165.21c0,4.19-.59,9.54-5.91,12.77a6.21,6.21,0,0,0-1.21-1.38c5-2.79,5.32-7.79,5.32-11.42v-8h1.8Zm-4,5.66h-1.69V153.64h9.4v17.14h-1.75V155.38h-6Zm4.75.28a35.2,35.2,0,0,1,3.71,4.9l-1.46,1.24a31.22,31.22,0,0,0-3.66-5.07Zm17.75-11.28h-3.24v15.42c0,1.32-.34,1.94-1.13,2.25a11.78,11.78,0,0,1-4.19.42,8.75,8.75,0,0,0-.73-2.08c1.49.06,2.93.06,3.35,0s.59-.14.59-.62v-12a33.91,33.91,0,0,1-7.43,10.89,8.79,8.79,0,0,0-1.55-1.69c3.26-2.62,6.5-7.74,8.3-12.63h-7.46v-2h8.13v-5.51h2.11v5.51h3.24Z"/><path d="M330.25,152.91h2.14V177.7h-2.14v-6.22c-2.5,1.1-5.06,2.14-7.09,3l-1-2.08c2.05-.67,5-1.83,8-3v-7.88H323v-2.05h7.2Zm14.41,22.37c1.32,0,1.52-1.15,1.72-5.82a6.41,6.41,0,0,0,2,1c-.25,5.12-.84,6.89-3.57,6.89h-4.39c-2.65,0-3.41-.82-3.41-3.77V152.91h2.14v9.34a45.06,45.06,0,0,0,7-5.09l1.69,1.74a62.38,62.38,0,0,1-8.64,5.51v9.17c0,1.44.23,1.69,1.46,1.69Z"/><path d="M359,156.62h5.21v19.22h-1.91v-1.46h-8.67v1.86h-1.83V156.62H357v-4.25h2Zm-5.37,1.83v5.88H357v-5.88Zm0,14.1H357v-6.39h-3.43Zm8.67-14.1h-3.41v5.88h3.41Zm0,14.1v-6.39h-3.41v6.39Zm13.62-17.87c-1,2.56-2.34,5.74-3.55,8.36,2.56,2.64,3.21,4.81,3.21,6.78,0,1.63-.39,3-1.32,3.6a4.27,4.27,0,0,1-1.74.59,14.36,14.36,0,0,1-2.48,0,5.12,5.12,0,0,0-.62-2c.9.08,1.69.08,2.28.08a2.73,2.73,0,0,0,1.18-.31,2.47,2.47,0,0,0,.73-2.19c0-1.75-.73-3.8-3.29-6.33,1.07-2.36,2.17-5.32,3-7.48h-4.53V178h-1.83V153.84h7.23l.34-.08Z"/><path d="M403.58,173.84V176h-24.2v-2.14ZM402.09,155v2.11H381V155Zm-2.31,9.12v2.11h-17v-2.11Z"/><path d="M415.06,168.41c-.37-1-1.29-2.81-2.05-4.33V178H411.1V164.39a33,33,0,0,1-3.46,8.5,9.34,9.34,0,0,0-1.12-2c1.72-2.33,3.4-6.81,4.19-10.66h-3.26v-2h3.66v-5.94H413v5.94h3.15v2H413v1.13c.67,1,2.84,4.64,3.32,5.49Zm13.87-3.86a21.43,21.43,0,0,1-3.43,7.06,18.14,18.14,0,0,0,7.15,4.42,7.39,7.39,0,0,0-1.41,1.8,18.74,18.74,0,0,1-7.09-4.64,22.21,22.21,0,0,1-7,4.87,7.69,7.69,0,0,0-1.32-1.58,21.13,21.13,0,0,0,7-4.84,25.16,25.16,0,0,1-3.74-7l1.8-.51a20.77,20.77,0,0,0,3.24,5.91,18.81,18.81,0,0,0,2.81-6ZM422.46,160a25.85,25.85,0,0,1-5,6.25A13.15,13.15,0,0,0,416,165a19.29,19.29,0,0,0,4.59-5.82Zm9.74-1.58H416.86v-1.94H424a17.66,17.66,0,0,0-2.22-3.52l1.75-.76a15.07,15.07,0,0,1,2.36,3.43l-1.83.84h8.19Zm-5,.59a31.34,31.34,0,0,1,4.92,5.77L430.59,166a31.05,31.05,0,0,0-4.81-6Z"/><path d="M444.41,172.44V178h-1.83v-5.26L435.32,174l-.45-2c.56-.08,1.15-.14,1.8-.23V155.44h-1.55v-1.91h10.52v1.91h-1.24v15.14l2.19-.34.14,1.8Zm-5.88-17v3.94h4.05v-3.94Zm0,9.74h4.05v-4h-4.05Zm0,6.36,4.05-.65v-3.94h-4.05Zm15-4.45c1.24,4.19,3.71,7.6,7.26,9.17a7.57,7.57,0,0,0-1.38,1.75,14.76,14.76,0,0,1-6.7-7.79,15.86,15.86,0,0,1-6.39,8.08,7.09,7.09,0,0,0-1.55-1.49,13.44,13.44,0,0,0,6.56-9.71h-5.57v-1.91h5.77c.06-.62.06-1.18.06-1.74v-3.35h-5.12v-1.94h7a32.31,32.31,0,0,0,3-5.32l2.08.59c-.9,1.6-1.94,3.35-2.9,4.73h3.8v1.94h-5.77v3.38c0,.56,0,1.1-.06,1.72h6.87v1.91Zm-3.4-9.12a19,19,0,0,0-2.73-4.36l1.66-.82A18.09,18.09,0,0,1,451.9,157Z"/><path d="M482.17,165.46a17.51,17.51,0,0,0,6.75,3.35,7.33,7.33,0,0,0-1.29,1.63,18,18,0,0,1-3.8-1.8v5.29h-2v-4.81H470V174H468v-5.29a20.62,20.62,0,0,1-3.83,1.83,8.27,8.27,0,0,0-1.27-1.52,20.68,20.68,0,0,0,6.95-3.6h-6.27v-1.55h7.15v-1.8H466.9v-1.24h3.88v-1.69h-4.31v-1.32h4.31v-1.29h2v1.29h6.42v-1.29h2v1.29h4.22v1.32h-4.22v1.69H485v1.24h-3.91v1.8h7.17v1.55Zm-5,4.33c-1,5.35-3.77,7.23-12.58,8.16a5.72,5.72,0,0,0-.82-1.66c8.24-.73,10.58-2.19,11.34-6.5Zm-11.28-11.2h-1.94v-4.3h11.31a14.44,14.44,0,0,0-.82-1.6l2.05-.51a12.61,12.61,0,0,1,1.13,2.11H488v4.3h-2v-2.64H465.88Zm16.29,8.92a11.86,11.86,0,0,1-2.2-2.05h-7.77a16.11,16.11,0,0,1-2.28,2.05Zm-9.43-6.64h6.42v-1.69h-6.42Zm0,3h6.42v-1.8h-6.42Zm4.78,9.06a83.93,83.93,0,0,1,10.58,3.41L487,178a69.58,69.58,0,0,0-10.5-3.63Z"/><path class="cls-9" d="M200.78,200.61c.33.15.69.43,1.23.72a9.47,9.47,0,0,0,4.28.66,54.53,54.53,0,0,0,6-.35,7.18,7.18,0,0,0-.48,1.71c-1.22.08-3.92.16-5.56.16a9.58,9.58,0,0,1-4.49-.77c-.69-.38-1.23-.82-1.6-.82-.53,0-1.3.92-2,1.83l-1.07-1.5a7.77,7.77,0,0,1,2.27-1.61v-4.38h-2v-1.42h3.46Zm-1.09-7.75a13.83,13.83,0,0,0-2.27-2.62l1.2-.82a14.51,14.51,0,0,1,2.37,2.52ZM210.25,201a42.56,42.56,0,0,0-3.39-3,12.81,12.81,0,0,1-4.67,3,7.35,7.35,0,0,0-.91-1.33,11.33,11.33,0,0,0,4.41-2.6c-1.3-1-2.67-2-3.87-2.85l1-.92c1.15.81,2.47,1.73,3.77,2.67a11.09,11.09,0,0,0,1.69-3.36h-7V191.2h4.61a13.43,13.43,0,0,0-1-2.09l1.46-.48a13.69,13.69,0,0,1,1.18,2.35l-.64.21h5v1.43h-2a14.13,14.13,0,0,1-2.11,4.26,46.43,46.43,0,0,1,3.62,3Z"/><path class="cls-9" d="M228.65,195.31V197h-15v-1.66Z"/><path class="cls-9" d="M234.6,197.22c-1,1.69-2.09,3.54-3.11,5.05l-1.42-1a50.6,50.6,0,0,0,3.31-5Zm-1.12-3.93a16.69,16.69,0,0,0-3.19-2.32l.92-1.1a17.05,17.05,0,0,1,3.24,2.16Zm6.75,1.37c0,.33,0,.72,0,1.1.72,3.18,2.21,5.61,5,6.61a6.11,6.11,0,0,0-1,1.37,8.38,8.38,0,0,1-4.56-5.13,9.55,9.55,0,0,1-5.05,5.35,5.92,5.92,0,0,0-1.18-1.22c4.8-2.34,5.2-5.87,5.2-8.11v-1h1.63Zm-3-1.71a15.09,15.09,0,0,1-1.76,3.42,13.18,13.18,0,0,0-1.5-.86,15.67,15.67,0,0,0,2.73-6.76l1.65.3c-.18.81-.38,1.61-.61,2.39h5.58l.31-.1,1.1.64a22.94,22.94,0,0,1-1.71,4.57c-.31-.18-.91-.49-1.28-.66a19.76,19.76,0,0,0,1.09-2.95Z"/><path class="cls-9" d="M265,191.15v1.46h-8.85a20.11,20.11,0,0,1-2,3.31v7.9h-1.53V197.7a14.36,14.36,0,0,1-1.71,1.43,9.13,9.13,0,0,0-.76-1.43,13.44,13.44,0,0,0,4.23-5.08h-3.78v-1.46H255a17.4,17.4,0,0,0,.81-2.42l1.6.39c-.21.67-.44,1.35-.71,2ZM260.81,202h4.13v1.43h-9.82V202h4.15v-4.25h-3.52v-1.42h3.52v-3h1.55v3h3.51v1.42h-3.51Z"/><path class="cls-9" d="M271.12,189.08h1.58v14.58h-1.58v-3.49c-1.37.59-2.76,1.17-3.9,1.65l-.67-1.55c1.15-.38,2.86-1,4.57-1.66v-4.29h-4v-1.53h4ZM279.49,202c.72,0,.82-.69.94-3.36a5.14,5.14,0,0,0,1.46.69c-.15,3-.56,4.16-2.25,4.16H277.3c-1.7,0-2.17-.56-2.17-2.52V189.08h1.58v5.2a27.53,27.53,0,0,0,3.74-2.73l1.2,1.3a44.27,44.27,0,0,1-4.94,3.06V201c0,.86.12,1,.77,1Z"/><path class="cls-9" d="M289.38,202.21c0,.67-.13,1.07-.54,1.28a4.64,4.64,0,0,1-2,.26,3.43,3.43,0,0,0-.41-1.3c.63,0,1.23,0,1.4,0s.26-.07.26-.26V197h-2.48c0,2.24-.21,5.12-1.37,7a5.19,5.19,0,0,0-1.18-.76c1.09-1.73,1.22-4.23,1.22-6.24h-1.12v-1.23h1.12v-5.08h1.48a20.6,20.6,0,0,0,.44-2l1.55.26c-.2.59-.43,1.23-.64,1.76h2.32ZM288,195.77v-3.87h-2.48v3.87Zm-1.25,4.61a14.85,14.85,0,0,0-1.09-2.48l.94-.39a19.46,19.46,0,0,1,1.14,2.44Zm-.08-7.87a17.82,17.82,0,0,1,.92,2.27l-1,.43a19.13,19.13,0,0,0-.91-2.32ZM297,202.42a.34.34,0,0,0,.26-.08,1.1,1.1,0,0,0,.13-.46c0-.3,0-.94,0-1.76a3.46,3.46,0,0,0,1,.54,14.62,14.62,0,0,1-.16,2.07,1.21,1.21,0,0,1-.43.72,1.4,1.4,0,0,1-.84.23h-.74a1.45,1.45,0,0,1-.94-.33c-.26-.26-.35-.58-.35-1.73v-6.09h-2.47v2.16c0,1.94-.28,4.56-1.93,6.24a5.22,5.22,0,0,0-1.2-.84c1.55-1.53,1.73-3.7,1.73-5.41v-3.47h5.28v7.45a1.73,1.73,0,0,0,.07.67.25.25,0,0,0,.21.08Zm1.14-9.68h-8.33V191.4h3.47a20.12,20.12,0,0,0-1-2.39l1.46-.43a22.41,22.41,0,0,1,1.07,2.42l-1.18.39h4.51Z"/><path class="cls-9" d="M310.45,202.22c0,.58-.1,1-.46,1.2a3.2,3.2,0,0,1-1.66.26,3.87,3.87,0,0,0-.36-1.25v.49h-1.07V200h-1.37a9.45,9.45,0,0,1-1.22,3.88,5,5,0,0,0-1.12-.71c1.1-1.73,1.22-4.15,1.22-6v-2.67l-.16.2a8.76,8.76,0,0,0-1.1-.9,11.9,11.9,0,0,0,2.48-5.13L307,189c-.12.41-.23.81-.38,1.22h2.07l.21-.07.91.58a19.1,19.1,0,0,1-1,2.16h1.58Zm-4.25-10.81c-.21.51-.46,1-.71,1.48h2a12.12,12.12,0,0,0,.63-1.48Zm.69,7.45v-1.94h-1.22v.31c0,.49,0,1.05,0,1.63Zm-1.22-3.08h1.22v-1.73h-1.22Zm3.52,0v-1.73H308v1.73ZM308,196.92v1.94h1.23v-1.94Zm0,5.48a9.83,9.83,0,0,0,1,0c.16,0,.21,0,.21-.21V200H308Zm6.45-11.55a5.19,5.19,0,0,1-3,4.33,4.16,4.16,0,0,0-.82-1.05,3.94,3.94,0,0,0,2.44-3.27H311v-1.27h7s0,.35,0,.53c-.1,2.65-.23,3.75-.59,4.15a1.26,1.26,0,0,1-.94.46,10.75,10.75,0,0,1-1.68,0,2.86,2.86,0,0,0-.35-1.27,12.14,12.14,0,0,0,1.35.07c.21,0,.36,0,.44-.15s.3-.86.38-2.53Zm4,10h-2.67v3h-1.45v-3H311v-1.33h3.23v-1.78h-1.69a7.93,7.93,0,0,1-.76,1.45,10.89,10.89,0,0,0-1.15-.59,9.34,9.34,0,0,0,1.42-3.6l1.25.25c-.08.41-.18.81-.28,1.2h1.22V195h1.45v1.43H318v1.3h-2.27v1.78h2.67Z"/><path class="cls-9" d="M323.66,197.71c-.77,1.79-1.76,3.8-2.65,5.4l-1.33-.94a51,51,0,0,0,2.83-5.38Zm-1.25-4.13a21.69,21.69,0,0,0-2.52-3.47l1.22-.72a21,21,0,0,1,2.6,3.34Zm8.06,4a7.3,7.3,0,0,0,4.54,4.84,5.83,5.83,0,0,0-1,1.33,8.34,8.34,0,0,1-4.76-5.48,9.08,9.08,0,0,1-4.89,5.56,6.44,6.44,0,0,0-1.12-1.23c2.9-1.32,4.1-3.14,4.57-5h-3.6v-1.46H328a18.61,18.61,0,0,0,.08-1.89V192.7H325v-1.45h3.13v-2.48h1.6v2.48h3.62v4.92h1.51v1.46Zm-.76-3.36a18.61,18.61,0,0,1-.08,1.89h2.24V192.7h-2.16Z"/><path class="cls-9" d="M351.13,202.12v1.23H336.43v-1.23h6.48V201h-5.27v-1.2h5.27v-.94h-4.76V193.7h4.76v-.84h-6.4v-1.22h6.4v-1c-1.65.1-3.32.15-4.85.18a4.78,4.78,0,0,0-.31-1.2,89.22,89.22,0,0,0,11-.86l.77,1.2c-1.41.25-3.18.43-5,.56v1.09H351v1.22h-6.57v.84h5v5.12h-5v.94h5.63V201h-5.63v1.17Zm-11.47-6.35h3.26v-1h-3.26Zm3.26,2v-1h-3.26v1Zm1.53-3v1h3.46v-1Zm3.46,2h-3.46v1h3.46Z"/><path class="cls-9" d="M364.46,198.85a7,7,0,0,1-1.88,2.39c1.76.48,3.36,1,4.57,1.4l-1.25,1.18c-1.25-.49-2.95-1.05-4.89-1.6a21.17,21.17,0,0,1-7.39,1.61,4,4,0,0,0-.58-1.32,22.8,22.8,0,0,0,5.74-.86c-1.22-.3-2.48-.58-3.78-.84a19.29,19.29,0,0,0,1.58-2h-3.7v-1.32h4.59a13.46,13.46,0,0,0,.69-1.23h-4.25v-4.36h3.59v-1.2h-4.38V189.4h14.1v1.33h-4.53v1.2h3.92v4.36H359l.82.2c-.18.35-.36.67-.58,1h8.29v1.32Zm-9.1-3.77h2.16v-1.93h-2.16Zm3,3.77c-.31.41-.61.84-.89,1.18,1.09.23,2.21.49,3.29.74a5.57,5.57,0,0,0,1.94-1.93Zm.56-6.91h2.3v-1.2H359Zm2.3,3.14v-1.93H359v1.93Zm1.45-1.93v1.93h2.4v-1.93Z"/><path class="cls-9" d="M377.35,191c-.2.72-.44,1.46-.67,2.09h6.6v9c0,.77-.15,1.18-.67,1.42a6.72,6.72,0,0,1-2.5.26,7.47,7.47,0,0,0-.49-1.4c.79,0,1.58,0,1.79,0s.33-.08.33-.31v-7.54H379.3v8.8h-1.51v-8.8h-2.32v8.8h-1.53v-8.8h-2.22v9.31h-1.56V193.12H375c.18-.64.36-1.42.49-2.09h-6.17v-1.55H384V191Z"/><path class="cls-9" d="M389.16,200.61c.3.2.64.46,1.12.77a8.61,8.61,0,0,0,4.48.79,51.14,51.14,0,0,0,6.12-.38,8,8,0,0,0-.48,1.71c-1.15.08-4,.18-5.71.18-2.16,0-3.52-.18-4.71-.91-.69-.43-1.27-1-1.63-1s-1.23,1.07-1.94,2.16l-1.12-1.5a7.58,7.58,0,0,1,2.34-1.94v-4.77h-2v-1.5h3.55Zm-.48-8a20.87,20.87,0,0,0-2.44-2.83l1.18-.86a21.85,21.85,0,0,1,2.52,2.72Zm10.81,7.8h-8.38v-9.58H394a16.29,16.29,0,0,0,.49-2.12l1.76.18c-.2.67-.43,1.35-.63,1.94h3.87Zm-1.66-8.19h-5.12v2.73h5.12Zm0,4h-5.12V199h5.12Z"/><path class="cls-9" d="M408.37,197.83a9.67,9.67,0,0,0,.25,1.37c-3.85,1.74-4.43,2.06-4.79,2.39a5.15,5.15,0,0,0-.71-1.37,1.4,1.4,0,0,0,.77-1.27v-4.1l-1.79.36-.25-1.4,2-.41v-4h1.48v3.7l2.91-.59.25,1.38-3.16.64v4.56Zm8.44-7.73s0,.59,0,.81c-.21,8.24-.39,11-1.05,11.9a1.72,1.72,0,0,1-1.35.82,13.3,13.3,0,0,1-2.32,0,3.82,3.82,0,0,0-.48-1.55c.92.07,1.73.08,2.09.08a.66.66,0,0,0,.64-.31c.49-.58.72-3.27.89-10.32h-3c-.12,5.13-.48,9.79-4.64,12.32a4.86,4.86,0,0,0-1.1-1.22c3.88-2.21,4.13-6.43,4.21-11.11h-2.47V190.1Z"/><path class="cls-9" d="M433.12,191.3s0,.53,0,.72c-.23,7.42-.43,10-1.09,10.79a1.84,1.84,0,0,1-1.43.77,17.65,17.65,0,0,1-2.48,0,3.59,3.59,0,0,0-.49-1.48c1.05.08,2,.1,2.42.1a.74.74,0,0,0,.69-.28c.53-.54.74-3,1-9.23h-3.88a16.57,16.57,0,0,1-1.5,2.76,8.1,8.1,0,0,0-1.2-.86v7.55h-4.46v1.25h-1.4v-12h1.84a19.32,19.32,0,0,0,.58-2.67l1.66.28c-.28.82-.59,1.7-.86,2.39h2.63v3.11a15.71,15.71,0,0,0,2.45-5.78l1.48.35c-.2.76-.41,1.51-.67,2.24Zm-12.49,1.42v3.13h3.06v-3.13Zm3.06,8.1v-3.64h-3.06v3.64Zm5.48-1.28a26.77,26.77,0,0,0-2.4-3.8L428,195a29.58,29.58,0,0,1,2.48,3.67Z"/><path class="cls-9" d="M435.74,192.51h1.51v11.34h-1.51Zm1.25-3.59c.82.81,2,2,2.52,2.65l-1.18.84c-.51-.71-1.61-1.89-2.42-2.76Zm3.92,10.88v1h-1.38v-7.09h5.87v6.09Zm8.36,2.07c0,.91-.2,1.35-.77,1.6a7.73,7.73,0,0,1-2.83.26,5.76,5.76,0,0,0-.51-1.5c.92,0,1.94,0,2.2,0s.38-.1.38-.39V191h-7.65v-1.42h9.18Zm-8.36-6.78v3.32h3V195.1Z"/><path class="cls-9" d="M456.08,201.78a13.32,13.32,0,0,0,4.33.49c.87,0,5.05,0,6.15,0a4.27,4.27,0,0,0-.51,1.27h-5.66c-3.29,0-5.51-.35-6.89-2.34a6.9,6.9,0,0,1-1.15,2.67,5.78,5.78,0,0,0-1.07-.72c1-1.25,1.3-3.21,1.37-5.51l1.25.1c0,.67-.08,1.3-.15,1.91a3.84,3.84,0,0,0,1,1.4v-4.11h-3.19v-1.17H459v1.17h-2.88v1.55h2.55v1.15h-2.55Zm2.11-7.14h-5.73V189.4h5.73Zm-1.43-4.16h-2.93v1h2.93Zm0,2.06h-2.93v1h2.93Zm6.53,1.42c-.12,4.51-.56,6.88-4.31,8.08a3.79,3.79,0,0,0-.72-1c3.41-1,3.67-3,3.77-7.08Zm-2-1.86c.16-.39.33-.92.48-1.4h-2.88v-1.22h7.49v1.22H463.3c-.2.49-.41,1-.61,1.4h3v6.78h-1.32v-5.64h-3.6v5.71h-1.27v-6.85Zm4.2,9.91a23.5,23.5,0,0,0-2.83-2.42l.87-.81a24.58,24.58,0,0,1,2.86,2.29Z"/></svg>