<?xml version="1.0" encoding="iso-8859-1"?>
<!-- Generator: Adobe Illustrator 18.1.1, SVG Export Plug-In . SVG Version: 6.00 Build 0)  -->
<svg version="1.1" xmlns="http://www.w3.org/2000/svg" xmlns:xlink="http://www.w3.org/1999/xlink" x="0px" y="0px"
	 viewBox="0 0 98.663 75.341" style="enable-background:new 0 0 98.663 75.341;" xml:space="preserve">
<g id="Layer_1">
</g>
<g id="Backgrounds">
</g>
<g id="nav">
	<g>
		<polygon style="fill:#231F20;" points="36.798,37.921 39.882,37.921 39.757,39.081 35.409,39.081 36.488,28.93 37.751,28.93 		"/>
		<polygon style="fill:#231F20;" points="95.064,28.889 93.978,39.078 95.189,39.078 96.273,28.897 96.273,28.889 		"/>
		<path style="fill:#5A7EA8;" d="M7.499,27.51l-0.621,5.044c-0.137,1.031-0.789,1.65-1.738,1.65c-0.424,0-0.75-0.128-0.967-0.374
			c-0.264-0.296-0.365-0.775-0.291-1.375l0.605-4.946H2.781l-0.594,4.896c0,0.004-0.008,0.159-0.008,0.159l-0.002,0.748
			c0.154,1.58,1.219,2.56,2.777,2.56c1.953,0,3.383-1.321,3.641-3.374l0.609-4.989H9.138H7.499z"/>
		<path style="fill:#5A7EA8;" d="M14.476,27.346c-2.535,0-4.379,1.692-4.699,4.314c-0.148,1.23,0.145,2.333,0.832,3.112
			c0.652,0.741,1.623,1.133,2.813,1.133c0.744,0,1.483-0.201,2.266-0.617l0.033-0.02l0.269-2.209l-0.146,0.142
			c-0.688,0.667-1.4,0.976-2.238,0.976c-0.693,0-1.254-0.222-1.623-0.639c-0.4-0.452-0.566-1.124-0.473-1.899
			c0.197-1.595,1.252-2.584,2.756-2.584c0.641,0,1.371,0.108,1.963,0.925l0.107,0.149l0.273-2.149l-0.035-0.025
			C15.945,27.545,15.257,27.346,14.476,27.346"/>
		<path style="fill:#5A7EA8;" d="M21.091,34.072h-2.188c0.017-0.153,0.795-6.575,0.795-6.575h-0.079h-1.648l-1.002,8.219h4.832
			l0.211-1.663L21.091,34.072z"/>
		<path style="fill:#5A7EA8;" d="M25.568,32.944c0,0,1.059-2.18,1.082-2.229c0.049-0.106,0.098-0.239,0.117-0.312h0.023
			c0.004,0.093,0.018,0.206,0.043,0.315c0.07,0.339,0.577,2.229,0.577,2.229L25.568,32.944z M27.226,27.127h-0.051h-0.152
			l-4.688,8.589h1.844c0,0,0.611-1.202,0.652-1.282h2.949c0.022,0.096,0.338,1.282,0.338,1.282l1.83-0.003L27.226,27.127z"/>
		<path style="fill:#F6921E;" d="M37.786,21.823C41.847-0.015,50.829-0.72,51.251,2.373C51.675,5.472,41.445,11.377,37.786,21.823"
			/>
		<path style="fill:#00A957;" d="M41.966,23.616c4.115-5.274,14.385-11.655,17.444-7.314C62.468,20.644,48.402,18.868,41.966,23.616
			"/>
		<path style="fill:#FFD300;" d="M15.568,65.045c-4.076-3.095,6.508-16.11,13.259-18.057C25.097,63.638,19.648,68.14,15.568,65.045"
			/>
		<path style="fill:#0090C2;" d="M47.773,53.985c-3.063,1.987-3.906-5.892-10.801-8.142C44.429,46.123,50.833,52.001,47.773,53.985"
			/>
		<path style="fill:#EF5A93;" d="M34.779,47.831c1.004,10.392,13.01,26.345,6.258,25.818C35.4,73.205,34.833,55.742,34.779,47.831"
			/>
		<path style="fill:#B71C8C;" d="M23.029,9.635c-1.658,1.743,0.346,4.064,1.295,5.014c0.949,0.949,4.115,4.746,5.771,9.274
			C28.652,11.483,24.689,7.893,23.029,9.635"/>
		<path style="fill:#8FC54B;" d="M29.267,39.582L29.267,39.582c-7.838,1.161-15.994,13.523-18.527,7.616
			C8.206,40.445,18.3,39.373,29.267,39.582"/>
		<polygon style="fill:#231F20;" points="36.798,37.921 39.882,37.921 39.757,39.081 35.409,39.081 36.488,28.93 37.751,28.93 		"/>
		<path style="fill:#231F20;" d="M45.695,35.927c0.13-1.223-0.5-2.262-1.807-2.262c-1.252,0-2.109,1.092-2.232,2.262
			c-0.125,1.185,0.469,2.289,1.75,2.289C44.722,38.216,45.564,37.165,45.695,35.927 M46.505,39.081h-1.211l0.105-0.985h-0.03
			c-0.56,0.714-1.364,1.202-2.269,1.202c-1.926,0-2.844-1.607-2.654-3.409c0.184-1.724,1.496-3.299,3.328-3.299
			c0.927,0,1.631,0.484,2.049,1.239h0.025l0.113-1.051h1.213L46.505,39.081z"/>
		<path style="fill:#231F20;" d="M53.64,35.927c0.129-1.223-0.502-2.262-1.807-2.262c-1.252,0-2.111,1.092-2.234,2.262
			c-0.125,1.185,0.473,2.289,1.75,2.289C52.669,38.216,53.507,37.165,53.64,35.927 M49.206,28.889h1.211l-0.527,4.939h0.027
			c0.58-0.754,1.385-1.239,2.325-1.239c1.819,0,2.794,1.575,2.612,3.299c-0.189,1.803-1.438,3.409-3.377,3.409
			c-0.889,0-1.604-0.488-2.014-1.202h-0.027l-0.104,0.985H48.12L49.206,28.889z"/>
		<path style="fill:#231F20;" d="M64.013,30.852c-0.309-0.633-0.758-0.954-1.525-0.954c-0.809,0-1.756,0.55-1.85,1.439
			c-0.086,0.794,0.65,1.212,1.26,1.456l0.697,0.281c1.381,0.564,2.371,1.361,2.193,3.056c-0.197,1.847-1.764,3.164-3.58,3.164
			c-1.645,0-2.793-1.211-2.838-2.84l1.309-0.268c-0.133,1.117,0.67,1.925,1.762,1.925c1.09,0,1.969-0.916,2.08-1.98
			c0.117-1.09-0.709-1.562-1.547-1.925l-0.668-0.298c-1.104-0.497-2.086-1.156-1.934-2.57c0.174-1.642,1.734-2.624,3.266-2.624
			c1.135,0,2.002,0.551,2.449,1.534L64.013,30.852z"/>
		<path style="fill:#231F20;" d="M70.97,34.567c-0.424-0.551-0.984-0.845-1.713-0.845c-1.184,0-2.211,1.047-2.334,2.208
			c-0.137,1.289,0.664,2.231,1.943,2.231c0.701,0,1.301-0.322,1.813-0.831l-0.162,1.546c-0.586,0.296-1.149,0.416-1.783,0.416
			c-1.859,0-3.229-1.425-3.027-3.311c0.207-1.951,1.865-3.393,3.807-3.393c0.565,0,1.17,0.135,1.625,0.418L70.97,34.567z"/>
		<path style="fill:#231F20;" d="M74.23,28.889l-0.504,4.74h0.027c0.446-0.677,1.241-1.04,2.008-1.04
			c1.775,0,2.107,1.199,1.945,2.733l-0.4,3.758h-1.213l0.387-3.608c0.111-1.08,0.039-1.808-1.199-1.808
			c-1.56,0-1.705,1.375-1.826,2.52l-0.307,2.896h-1.213l1.084-10.191H74.23z"/>
		<path style="fill:#231F20;" d="M80.091,35.943c-0.127,1.184,0.725,2.19,1.922,2.19c1.199,0,2.262-1.007,2.387-2.19
			c0.127-1.199-0.723-2.196-1.92-2.196C81.281,33.748,80.218,34.744,80.091,35.943 M85.611,35.943c-0.2,1.896-1.834,3.35-3.721,3.35
			c-1.887,0-3.211-1.454-3.01-3.35c0.203-1.9,1.836-3.354,3.723-3.354C84.488,32.589,85.814,34.043,85.611,35.943"/>
		<path style="fill:#231F20;" d="M87.497,35.943c-0.127,1.184,0.723,2.19,1.92,2.19c1.199,0,2.262-1.007,2.389-2.19
			c0.125-1.199-0.723-2.196-1.922-2.196C88.687,33.748,87.624,34.744,87.497,35.943 M93.019,35.943
			c-0.203,1.896-1.84,3.35-3.723,3.35c-1.885,0-3.213-1.454-3.013-3.35c0.202-1.9,1.841-3.354,3.724-3.354
			C91.89,32.589,93.22,34.043,93.019,35.943"/>
		<polygon style="fill:#231F20;" points="95.064,28.889 93.978,39.078 95.189,39.078 96.273,28.897 96.273,28.889 		"/>
	</g>
</g>
</svg>
