<svg id="Layer_1" data-name="Layer 1" xmlns="http://www.w3.org/2000/svg" viewBox="0 0 800 800"><defs><style>.cls-1{fill:#ebebeb;}.cls-2,.cls-3{fill:none;stroke:#d9d9d9;stroke-miterlimit:10;stroke-width:8px;}.cls-3{stroke-dasharray:50 50;}</style></defs><title>box</title><rect class="cls-1" width="800" height="800"/><polyline class="cls-2" points="800 775 800 800 775 800"/><line class="cls-3" x1="725" y1="800" x2="50" y2="800"/><polyline class="cls-2" points="25 800 0 800 0 775"/><line class="cls-3" y1="725" y2="50"/><polyline class="cls-2" points="0 25 0 0 25 0"/><line class="cls-3" x1="75" x2="750"/><polyline class="cls-2" points="775 0 800 0 800 25"/><line class="cls-3" x1="800" y1="75" x2="800" y2="750"/><polyline class="cls-2" points="0 236 0 0 236 0"/><polyline class="cls-2" points="564 0 800 0 800 236"/><polyline class="cls-2" points="800 564 800 800 564 800"/><polyline class="cls-2" points="236 800 0 800 0 564"/></svg>